# 
# Wavefront OBJ file
# Created with Kaydara FBX
# 
mtllib exo_joint.mtl

g exo_joint
v 98.859107 -1.000000 5.903999
v 98.077524 -1.000000 13.739708
v 96.675863 -1.000000 21.488550
v 94.662986 -1.000000 29.101535
v 92.051619 -1.000000 36.530530
v 88.858273 -1.000000 43.728568
v 85.103135 -1.000000 50.650139
v 80.809949 -1.000000 57.251484
v 76.005855 -1.000000 63.490867
v 70.721229 -1.000000 69.328840
v 64.989479 -1.000000 74.728494
v 58.846846 -1.000000 79.655690
v 52.332164 -1.000000 84.079277
v 45.486621 -1.000000 87.971288
v 38.353497 -1.000000 91.307117
v 30.977889 -1.000000 94.065672
v 23.406430 -1.000000 96.229513
v 15.686988 -1.000000 97.784961
v 7.868367 -1.000000 98.722181
v 0.000000 -1.000000 99.035247
v -7.868367 -1.000000 98.722181
v -15.686988 -1.000000 97.784961
v -23.406430 -1.000000 96.229513
v -30.977889 -1.000000 94.065672
v -38.353497 -1.000000 91.307117
v -45.486621 -1.000000 87.971288
v -52.332164 -1.000000 84.079277
v -58.846846 -1.000000 79.655690
v -64.989479 -1.000000 74.728494
v -70.721229 -1.000000 69.328840
v -76.005855 -1.000000 63.490867
v -80.809949 -1.000000 57.251484
v -85.103135 -1.000000 50.650139
v -88.858273 -1.000000 43.728568
v -92.051619 -1.000000 36.530530
v -94.662986 -1.000000 29.101535
v -96.675863 -1.000000 21.488550
v -98.077524 -1.000000 13.739708
v -98.859107 -1.000000 5.903999
v -99.015671 -1.000000 -1.969037
v -98.546226 -1.000000 -9.829625
v -97.453740 -1.000000 -17.628066
v -95.745121 -1.000000 -25.315056
v -93.431170 -1.000000 -32.841997
v -90.526516 -1.000000 -40.161300
v -87.049525 -1.000000 -47.226691
v -83.022179 -1.000000 -53.993499
v -78.469940 -1.000000 -60.418943
v -73.421589 -1.000000 -66.462399
v -67.909043 -1.000000 -72.085658
v -61.967154 -1.000000 -77.253169
v -55.633489 -1.000000 -81.932260
v -48.948091 -1.000000 -86.093348
v -41.953227 -1.000000 -89.710128
v -34.693121 -1.000000 -92.759730
v -27.213675 -1.000000 -95.222876
v -19.562175 -1.000000 -97.083992
v -11.786996 -1.000000 -98.331312
v -3.937296 -1.000000 -98.956950
v 3.937296 -1.000000 -98.956950
v 11.786996 -1.000000 -98.331312
v 19.562175 -1.000000 -97.083992
v 27.213675 -1.000000 -95.222876
v 34.693121 -1.000000 -92.759730
v 41.953227 -1.000000 -89.710128
v 48.948091 -1.000000 -86.093348
v 55.633489 -1.000000 -81.932260
v 61.967154 -1.000000 -77.253169
v 67.909043 -1.000000 -72.085658
v 73.421589 -1.000000 -66.462399
v 78.469940 -1.000000 -60.418943
v 83.022179 -1.000000 -53.993499
v 87.049525 -1.000000 -47.226691
v 90.526516 -1.000000 -40.161300
v 93.431170 -1.000000 -32.841997
v 95.745121 -1.000000 -25.315056
v 97.453740 -1.000000 -17.628066
v 98.546226 -1.000000 -9.829625
v 99.015671 -1.000000 -1.969037
v 99.035247 -1.000000 0.000000
v 0.000000 -1.000000 0.000000
v 0.000000 0.000000 99.035247
v 7.868367 0.000000 98.722181
v 15.686988 0.000000 97.784961
v 23.406430 0.000000 96.229513
v 30.977889 0.000000 94.065672
v 38.353497 0.000000 91.307117
v 45.486621 0.000000 87.971288
v 52.332164 0.000000 84.079277
v 58.846846 0.000000 79.655690
v 64.989479 0.000000 74.728494
v 70.721229 0.000000 69.328840
v 76.005855 0.000000 63.490867
v 80.809949 0.000000 57.251484
v 85.103135 0.000000 50.650139
v 88.858273 0.000000 43.728568
v 92.051619 0.000000 36.530530
v 94.662986 0.000000 29.101535
v 96.675863 0.000000 21.488550
v 98.077524 0.000000 13.739708
v 99.015671 0.000000 -1.969037
v 99.035247 0.000000 -0.000000
v 98.859107 0.000000 5.903999
v 98.546226 0.000000 -9.829625
v 97.453740 0.000000 -17.628066
v 95.745121 0.000000 -25.315056
v 93.431170 0.000000 -32.841997
v 90.526516 0.000000 -40.161300
v 87.049525 0.000000 -47.226691
v 83.022179 0.000000 -53.993499
v 78.469940 0.000000 -60.418943
v 73.421589 0.000000 -66.462399
v 67.909043 0.000000 -72.085658
v 61.967154 0.000000 -77.253169
v 55.633489 0.000000 -81.932260
v 48.948091 0.000000 -86.093348
v 41.953227 0.000000 -89.710128
v 34.693121 0.000000 -92.759730
v 27.213675 0.000000 -95.222876
v 19.562175 0.000000 -97.083992
v 11.786996 0.000000 -98.331312
v 3.937296 0.000000 -98.956950
v -3.937296 0.000000 -98.956950
v -11.786996 0.000000 -98.331312
v -19.562175 0.000000 -97.083992
v -27.213675 0.000000 -95.222876
v -34.693121 0.000000 -92.759730
v -41.953227 0.000000 -89.710128
v -48.948091 0.000000 -86.093348
v -55.633489 0.000000 -81.932260
v -61.967154 0.000000 -77.253169
v -67.909043 0.000000 -72.085658
v -73.421589 0.000000 -66.462399
v -78.469940 0.000000 -60.418943
v -83.022179 0.000000 -53.993499
v -87.049525 0.000000 -47.226691
v -90.526516 0.000000 -40.161300
v -93.431170 0.000000 -32.841997
v -95.745121 0.000000 -25.315056
v -97.453740 0.000000 -17.628066
v -98.546226 0.000000 -9.829625
v -99.015671 0.000000 -1.969037
v -98.859107 0.000000 5.903999
v -98.077524 0.000000 13.739708
v -96.675863 0.000000 21.488550
v -94.662986 0.000000 29.101535
v -92.051619 0.000000 36.530530
v -88.858273 0.000000 43.728568
v -85.103135 0.000000 50.650139
v -80.809949 0.000000 57.251484
v -76.005855 0.000000 63.490867
v -70.721229 0.000000 69.328840
v -64.989479 0.000000 74.728494
v -58.846846 0.000000 79.655690
v -52.332164 0.000000 84.079277
v -45.486621 0.000000 87.971288
v -38.353497 0.000000 91.307117
v -30.977889 0.000000 94.065672
v -23.406430 0.000000 96.229513
v -15.686988 0.000000 97.784961
v -7.868367 0.000000 98.722181
v 0.000000 0.000000 0.000000
usemtl exo_jointMaterial0
f 81 1 2
f 2 3 81
f 3 4 81
f 4 5 81
f 5 6 81
f 6 7 81
f 7 8 81
f 8 9 81
f 9 10 81
f 10 11 81
f 11 12 81
f 12 13 81
f 13 14 81
f 14 15 81
f 15 16 81
f 16 17 81
f 17 18 81
f 18 19 81
f 19 20 81
f 20 21 81
f 21 22 81
f 22 23 81
f 23 24 81
f 24 25 81
f 25 26 81
f 26 27 81
f 27 28 81
f 28 29 81
f 29 30 81
f 30 31 81
f 31 32 81
f 32 33 81
f 33 34 81
f 34 35 81
f 35 36 81
f 36 37 81
f 37 38 81
f 38 39 81
f 39 40 81
f 40 41 81
f 41 42 81
f 42 43 81
f 43 44 81
f 44 45 81
f 45 46 81
f 46 47 81
f 47 48 81
f 48 49 81
f 49 50 81
f 50 51 81
f 51 52 81
f 52 53 81
f 53 54 81
f 54 55 81
f 55 56 81
f 56 57 81
f 57 58 81
f 58 59 81
f 59 60 81
f 60 61 81
f 61 62 81
f 62 63 81
f 63 64 81
f 64 65 81
f 65 66 81
f 66 67 81
f 67 68 81
f 68 69 81
f 69 70 81
f 70 71 81
f 71 72 81
f 72 73 81
f 73 74 81
f 74 75 81
f 75 76 81
f 76 77 81
f 77 78 81
f 78 79 81
f 79 80 81
f 80 1 81
f 82 20 19
f 83 19 18
f 84 18 17
f 85 17 16
f 86 16 15
f 87 15 14
f 88 14 13
f 89 13 12
f 90 12 11
f 91 11 10
f 92 10 9
f 93 9 8
f 94 8 7
f 95 7 6
f 96 6 5
f 97 5 4
f 98 4 3
f 99 3 2
f 100 2 1
f 79 101 102
f 103 1 80
f 80 102 103
f 101 79 78
f 104 78 77
f 105 77 76
f 106 76 75
f 107 75 74
f 108 74 73
f 109 73 72
f 110 72 71
f 111 71 70
f 112 70 69
f 113 69 68
f 114 68 67
f 115 67 66
f 116 66 65
f 117 65 64
f 118 64 63
f 119 63 62
f 120 62 61
f 121 61 60
f 122 60 59
f 123 59 58
f 124 58 57
f 125 57 56
f 126 56 55
f 127 55 54
f 128 54 53
f 129 53 52
f 130 52 51
f 131 51 50
f 132 50 49
f 133 49 48
f 134 48 47
f 135 47 46
f 136 46 45
f 137 45 44
f 138 44 43
f 139 43 42
f 140 42 41
f 141 41 40
f 142 40 39
f 143 39 38
f 144 38 37
f 145 37 36
f 146 36 35
f 147 35 34
f 148 34 33
f 149 33 32
f 150 32 31
f 151 31 30
f 152 30 29
f 153 29 28
f 154 28 27
f 155 27 26
f 156 26 25
f 157 25 24
f 158 24 23
f 159 23 22
f 160 22 21
f 161 21 20
f 20 82 161
f 21 161 160
f 22 160 159
f 23 159 158
f 24 158 157
f 25 157 156
f 26 156 155
f 27 155 154
f 28 154 153
f 29 153 152
f 30 152 151
f 31 151 150
f 32 150 149
f 33 149 148
f 34 148 147
f 35 147 146
f 36 146 145
f 37 145 144
f 38 144 143
f 39 143 142
f 40 142 141
f 41 141 140
f 42 140 139
f 43 139 138
f 44 138 137
f 45 137 136
f 46 136 135
f 47 135 134
f 48 134 133
f 49 133 132
f 50 132 131
f 51 131 130
f 52 130 129
f 53 129 128
f 54 128 127
f 55 127 126
f 56 126 125
f 57 125 124
f 58 124 123
f 59 123 122
f 60 122 121
f 61 121 120
f 62 120 119
f 63 119 118
f 64 118 117
f 65 117 116
f 66 116 115
f 67 115 114
f 68 114 113
f 69 113 112
f 70 112 111
f 71 111 110
f 72 110 109
f 73 109 108
f 74 108 107
f 75 107 106
f 76 106 105
f 77 105 104
f 78 104 101
f 102 80 79
f 1 103 100
f 2 100 99
f 3 99 98
f 4 98 97
f 5 97 96
f 6 96 95
f 7 95 94
f 8 94 93
f 9 93 92
f 10 92 91
f 11 91 90
f 12 90 89
f 13 89 88
f 14 88 87
f 15 87 86
f 16 86 85
f 17 85 84
f 18 84 83
f 19 83 82
f 162 101 104
f 104 105 162
f 105 106 162
f 106 107 162
f 107 108 162
f 108 109 162
f 109 110 162
f 110 111 162
f 111 112 162
f 112 113 162
f 113 114 162
f 114 115 162
f 115 116 162
f 116 117 162
f 117 118 162
f 118 119 162
f 119 120 162
f 120 121 162
f 121 122 162
f 122 123 162
f 123 124 162
f 124 125 162
f 125 126 162
f 126 127 162
f 127 128 162
f 128 129 162
f 129 130 162
f 130 131 162
f 131 132 162
f 132 133 162
f 133 134 162
f 134 135 162
f 135 136 162
f 136 137 162
f 137 138 162
f 138 139 162
f 139 140 162
f 140 141 162
f 141 142 162
f 142 143 162
f 143 144 162
f 144 145 162
f 145 146 162
f 146 147 162
f 147 148 162
f 148 149 162
f 149 150 162
f 150 151 162
f 151 152 162
f 152 153 162
f 153 154 162
f 154 155 162
f 155 156 162
f 156 157 162
f 157 158 162
f 158 159 162
f 159 160 162
f 160 161 162
f 161 82 162
f 82 83 162
f 83 84 162
f 84 85 162
f 85 86 162
f 86 87 162
f 87 88 162
f 88 89 162
f 89 90 162
f 90 91 162
f 91 92 162
f 92 93 162
f 93 94 162
f 94 95 162
f 95 96 162
f 96 97 162
f 97 98 162
f 98 99 162
f 99 100 162
f 100 103 162
f 103 102 162
f 102 101 162
