# 
# Wavefront OBJ file
# Created with Kaydara FBX
# 
mtllib strap.mtl

g strap
v -0.000000 0.000000 -105.000000
v -0.000000 40.000000 -105.000000
v 8.136704 40.000000 -104.684259
v 8.136704 0.000000 -104.684259
v 16.224473 40.000000 -103.738934
v 16.224473 0.000000 -103.738934
v 24.214666 40.000000 -102.169711
v 24.214666 0.000000 -102.169711
v 32.059230 40.000000 -99.986028
v 32.059230 0.000000 -99.986028
v 39.710985 40.000000 -97.201017
v 39.710985 0.000000 -97.201017
v 47.123914 40.000000 -93.831427
v 47.123914 0.000000 -93.831427
v 54.253434 40.000000 -89.897524
v 54.253434 0.000000 -89.897524
v 61.056667 40.000000 -85.422967
v 61.056667 0.000000 -85.422967
v 67.492699 40.000000 -80.434667
v 67.492699 0.000000 -80.434667
v 73.522822 40.000000 -74.962622
v 73.522822 0.000000 -74.962622
v 79.110769 40.000000 -69.039744
v 79.110769 0.000000 -69.039744
v 84.222935 40.000000 -62.701652
v 84.222935 0.000000 -62.701652
v 88.828575 40.000000 -55.986465
v 88.828575 0.000000 -55.986465
v 92.899989 40.000000 -48.934570
v 92.899989 0.000000 -48.934570
v 96.412691 40.000000 -41.588375
v 96.412691 0.000000 -41.588375
v 99.345556 40.000000 -33.992064
v 99.345556 0.000000 -33.992064
v 101.680946 40.000000 -26.191320
v 101.680946 0.000000 -26.191320
v 103.404814 40.000000 -18.233059
v 103.404814 0.000000 -18.233059
v 104.506794 40.000000 -10.165141
v 104.506794 0.000000 -10.165141
v 104.980257 40.000000 -2.036090
v 104.822357 40.000000 6.105207
v 104.822357 0.000000 6.105207
v 105.000000 0.000000 -0.000000
v 104.980257 0.000000 -2.036090
v 105.000000 40.000000 -0.000000
v 104.034042 40.000000 14.209786
v 104.034042 0.000000 14.209786
v 102.620055 40.000000 22.228907
v 102.620055 0.000000 22.228907
v 100.588899 40.000000 30.114339
v 100.588899 0.000000 30.114339
v 97.952789 40.000000 37.818661
v 97.952789 0.000000 37.818661
v 94.727580 40.000000 45.295537
v 94.727580 0.000000 45.295537
v 90.932667 40.000000 52.500000
v 90.932667 0.000000 52.500000
v 86.590875 40.000000 59.388722
v 86.590875 0.000000 59.388722
v 81.728316 40.000000 65.920273
v 81.728316 0.000000 65.920273
v 76.374232 40.000000 72.055372
v 76.374232 0.000000 72.055372
v 70.560825 40.000000 77.757121
v 70.560825 0.000000 77.757121
v 64.323057 40.000000 82.991230
v 64.323057 0.000000 82.991230
v 57.698443 40.000000 87.726220
v 57.698443 0.000000 87.726220
v 50.726823 40.000000 91.933614
v 50.726823 0.000000 91.933614
v 43.450126 40.000000 95.588109
v 43.450126 0.000000 95.588109
v 35.912115 40.000000 98.667725
v 35.912115 0.000000 98.667725
v 28.158124 40.000000 101.153942
v 28.158124 0.000000 101.153942
v 20.234787 40.000000 103.031808
v 20.234787 0.000000 103.031808
v 12.189756 40.000000 104.290028
v 12.189756 0.000000 104.290028
v 4.071414 40.000000 104.921035
v 4.071414 0.000000 104.921035
v -4.071414 40.000000 104.921035
v -4.071414 0.000000 104.921035
v -12.189756 40.000000 104.290028
v -12.189756 0.000000 104.290028
v -20.234787 40.000000 103.031808
v -20.234787 0.000000 103.031808
v -28.158124 40.000000 101.153942
v -28.158124 0.000000 101.153942
v -35.912115 40.000000 98.667725
v -35.912115 0.000000 98.667725
v -43.450126 40.000000 95.588109
v -43.450126 0.000000 95.588109
v -50.726823 40.000000 91.933614
v -50.726823 0.000000 91.933614
v -57.698443 40.000000 87.726220
v -57.698443 0.000000 87.726220
v -64.323057 40.000000 82.991230
v -64.323057 0.000000 82.991230
v -70.560825 40.000000 77.757121
v -70.560825 0.000000 77.757121
v -76.374232 40.000000 72.055372
v -76.374232 0.000000 72.055372
v -81.728316 40.000000 65.920273
v -81.728316 0.000000 65.920273
v -86.590875 40.000000 59.388722
v -86.590875 0.000000 59.388722
v -90.932667 40.000000 52.500000
v -90.932667 0.000000 52.500000
v -94.727580 40.000000 45.295537
v -94.727580 0.000000 45.295537
v -97.952789 40.000000 37.818661
v -97.952789 0.000000 37.818661
v -100.588899 40.000000 30.114339
v -100.588899 0.000000 30.114339
v -102.620055 40.000000 22.228907
v -102.620055 0.000000 22.228907
v -104.034042 40.000000 14.209786
v -104.034042 0.000000 14.209786
v -104.822357 40.000000 6.105207
v -104.822357 0.000000 6.105207
v -104.980257 40.000000 -2.036090
v -104.980257 0.000000 -2.036090
v -104.506794 40.000000 -10.165141
v -104.506794 0.000000 -10.165141
v -103.404814 40.000000 -18.233059
v -103.404814 0.000000 -18.233059
v -101.680946 40.000000 -26.191320
v -101.680946 0.000000 -26.191320
v -99.345556 40.000000 -33.992064
v -99.345556 0.000000 -33.992064
v -96.412691 40.000000 -41.588375
v -96.412691 0.000000 -41.588375
v -92.899989 40.000000 -48.934570
v -92.899989 0.000000 -48.934570
v -88.828575 40.000000 -55.986465
v -88.828575 0.000000 -55.986465
v -84.222935 40.000000 -62.701652
v -84.222935 0.000000 -62.701652
v -79.110769 40.000000 -69.039744
v -79.110769 0.000000 -69.039744
v -73.522822 40.000000 -74.962622
v -73.522822 0.000000 -74.962622
v -67.492699 40.000000 -80.434667
v -67.492699 0.000000 -80.434667
v -61.056667 40.000000 -85.422967
v -61.056667 0.000000 -85.422967
v -54.253434 40.000000 -89.897524
v -54.253434 0.000000 -89.897524
v -47.123914 40.000000 -93.831427
v -47.123914 0.000000 -93.831427
v -39.710985 40.000000 -97.201017
v -39.710985 0.000000 -97.201017
v -32.059230 40.000000 -99.986028
v -32.059230 0.000000 -99.986028
v -24.214666 40.000000 -102.169711
v -24.214666 0.000000 -102.169711
v -16.224473 40.000000 -103.738934
v -16.224473 0.000000 -103.738934
v -8.136704 40.000000 -104.684259
v -8.136704 0.000000 -104.684259
v 99.822144 40.000000 -5.961513
v -99.980233 40.000000 1.988219
v -99.822144 40.000000 -5.961513
v 99.980233 40.000000 1.988219
v 99.506215 40.000000 9.925380
v 100.000000 40.000000 -0.000000
v -99.032947 40.000000 -13.873553
v -85.932168 40.000000 -51.143548
v -81.597159 40.000000 -57.809200
v -89.723886 40.000000 -44.154550
v -97.617631 40.000000 -21.697881
v -95.585146 40.000000 -29.385027
v -99.506215 40.000000 9.925380
v 99.032947 40.000000 -13.873553
v -23.634444 40.000000 -97.166934
v -15.839802 40.000000 -98.737534
v -31.279661 40.000000 -94.982013
v -92.948341 40.000000 -36.886392
v -98.403087 40.000000 17.799790
v -96.677823 40.000000 25.561663
v -94.341330 40.000000 33.161928
v -87.897519 40.000000 47.686750
v -83.830941 40.000000 54.519477
v -35.031085 40.000000 93.663350
v -27.478777 40.000000 96.150490
v 68.570580 40.000000 72.787881
v 62.570808 40.000000 78.005731
v 74.136826 40.000000 67.109843
v 83.830941 40.000000 54.519477
v 79.234356 40.000000 61.007515
v 87.897519 40.000000 47.686750
v 91.408381 40.000000 40.552532
v 94.341330 40.000000 33.161928
v 98.403087 40.000000 17.799790
v 52.841958 40.000000 -84.898336
v 45.929729 40.000000 -88.828261
v -0.000000 40.000000 -100.000000
v -7.945017 40.000000 -99.683884
v -91.408381 40.000000 40.552532
v -68.570580 40.000000 72.787881
v -62.570808 40.000000 78.005731
v -56.175443 40.000000 82.730403
v -49.424919 40.000000 86.932027
v -42.361915 40.000000 90.584039
v 11.901819 40.000000 99.289207
v 3.975652 40.000000 99.920940
v 19.752740 40.000000 98.029737
v 27.478777 40.000000 96.150490
v 35.031085 40.000000 93.663350
v 42.361915 40.000000 90.584039
v 49.424919 40.000000 86.932027
v 56.175443 40.000000 82.730403
v 97.617631 40.000000 -21.697881
v 89.723886 40.000000 -44.154550
v 85.932168 40.000000 -51.143548
v 76.746267 40.000000 -64.109364
v 71.410160 40.000000 -70.004207
v 38.727117 40.000000 -92.196585
v 31.279661 40.000000 -94.982013
v 23.634444 40.000000 -97.166934
v 15.839802 40.000000 -98.737534
v 7.945017 40.000000 -99.683884
v -38.727117 40.000000 -92.196585
v -45.929729 40.000000 -88.828261
v -52.841958 40.000000 -84.898336
v -59.420103 40.000000 -80.431657
v -65.622575 40.000000 -75.456462
v -71.410160 40.000000 -70.004207
v -76.746267 40.000000 -64.109364
v -79.234356 40.000000 61.007515
v -74.136826 40.000000 67.109843
v 96.677823 40.000000 25.561663
v 95.585146 40.000000 -29.385027
v 92.948341 40.000000 -36.886392
v 81.597159 40.000000 -57.809200
v 65.622575 40.000000 -75.456462
v 59.420103 40.000000 -80.431657
v -19.752740 40.000000 98.029737
v -11.901819 40.000000 99.289207
v -3.975652 40.000000 99.920940
v -7.945017 0.000000 -99.683884
v -0.000000 0.000000 -100.000000
v -15.839802 0.000000 -98.737534
v -23.634444 0.000000 -97.166934
v -31.279661 0.000000 -94.982013
v -38.727117 0.000000 -92.196585
v -45.929729 0.000000 -88.828261
v -52.841958 0.000000 -84.898336
v -59.420103 0.000000 -80.431657
v -65.622575 0.000000 -75.456462
v -71.410160 0.000000 -70.004207
v -76.746267 0.000000 -64.109364
v -81.597159 0.000000 -57.809200
v -85.932168 0.000000 -51.143548
v -89.723886 0.000000 -44.154550
v -92.948341 0.000000 -36.886392
v -95.585146 0.000000 -29.385027
v -97.617631 0.000000 -21.697881
v -99.032947 0.000000 -13.873553
v -99.822144 0.000000 -5.961513
v -99.980233 0.000000 1.988219
v -99.506215 0.000000 9.925380
v -98.403087 0.000000 17.799790
v -96.677823 0.000000 25.561663
v -94.341330 0.000000 33.161928
v -91.408381 0.000000 40.552532
v -87.897519 0.000000 47.686750
v -83.830941 0.000000 54.519477
v -79.234356 0.000000 61.007515
v -74.136826 0.000000 67.109843
v -68.570580 0.000000 72.787881
v -62.570808 0.000000 78.005731
v -56.175443 0.000000 82.730403
v -49.424919 0.000000 86.932027
v -42.361915 0.000000 90.584039
v -35.031085 0.000000 93.663350
v -27.478777 0.000000 96.150490
v -19.752740 0.000000 98.029737
v -11.901819 0.000000 99.289207
v -3.975652 0.000000 99.920940
v 3.975652 0.000000 99.920940
v 11.901819 0.000000 99.289207
v 19.752740 0.000000 98.029737
v 27.478777 0.000000 96.150490
v 35.031085 0.000000 93.663350
v 42.361915 0.000000 90.584039
v 49.424919 0.000000 86.932027
v 56.175443 0.000000 82.730403
v 62.570808 0.000000 78.005731
v 68.570580 0.000000 72.787881
v 74.136826 0.000000 67.109843
v 79.234356 0.000000 61.007515
v 83.830941 0.000000 54.519477
v 87.897519 0.000000 47.686750
v 91.408381 0.000000 40.552532
v 94.341330 0.000000 33.161928
v 96.677823 0.000000 25.561663
v 98.403087 0.000000 17.799790
v 99.506215 0.000000 9.925380
v 99.980233 0.000000 1.988219
v 99.822144 0.000000 -5.961513
v 100.000000 0.000000 -0.000000
v 99.032947 0.000000 -13.873553
v 97.617631 0.000000 -21.697881
v 95.585146 0.000000 -29.385027
v 92.948341 0.000000 -36.886392
v 89.723886 0.000000 -44.154550
v 85.932168 0.000000 -51.143548
v 81.597159 0.000000 -57.809200
v 76.746267 0.000000 -64.109364
v 71.410160 0.000000 -70.004207
v 65.622575 0.000000 -75.456462
v 59.420103 0.000000 -80.431657
v 52.841958 0.000000 -84.898336
v 45.929729 0.000000 -88.828261
v 38.727117 0.000000 -92.196585
v 31.279661 0.000000 -94.982013
v 23.634444 0.000000 -97.166934
v 15.839802 0.000000 -98.737534
v 7.945017 0.000000 -99.683884
usemtl strapMaterial0
f 1 2 3
f 4 3 5
f 6 5 7
f 8 7 9
f 10 9 11
f 12 11 13
f 14 13 15
f 16 15 17
f 18 17 19
f 20 19 21
f 22 21 23
f 24 23 25
f 26 25 27
f 28 27 29
f 30 29 31
f 32 31 33
f 34 33 35
f 36 35 37
f 38 37 39
f 40 39 41
f 42 43 44
f 45 41 46
f 46 44 45
f 43 42 47
f 48 47 49
f 50 49 51
f 52 51 53
f 54 53 55
f 56 55 57
f 58 57 59
f 60 59 61
f 62 61 63
f 64 63 65
f 66 65 67
f 68 67 69
f 70 69 71
f 72 71 73
f 74 73 75
f 76 75 77
f 78 77 79
f 80 79 81
f 82 81 83
f 84 83 85
f 86 85 87
f 88 87 89
f 90 89 91
f 92 91 93
f 94 93 95
f 96 95 97
f 98 97 99
f 100 99 101
f 102 101 103
f 104 103 105
f 106 105 107
f 108 107 109
f 110 109 111
f 112 111 113
f 114 113 115
f 116 115 117
f 118 117 119
f 120 119 121
f 122 121 123
f 124 123 125
f 126 125 127
f 128 127 129
f 130 129 131
f 132 131 133
f 134 133 135
f 136 135 137
f 138 137 139
f 140 139 141
f 142 141 143
f 144 143 145
f 146 145 147
f 148 147 149
f 150 149 151
f 152 151 153
f 154 153 155
f 156 155 157
f 158 157 159
f 160 159 161
f 162 161 163
f 164 163 2
f 2 1 164
f 163 164 162
f 161 162 160
f 159 160 158
f 157 158 156
f 155 156 154
f 153 154 152
f 151 152 150
f 149 150 148
f 147 148 146
f 145 146 144
f 143 144 142
f 141 142 140
f 139 140 138
f 137 138 136
f 135 136 134
f 133 134 132
f 131 132 130
f 129 130 128
f 127 128 126
f 125 126 124
f 123 124 122
f 121 122 120
f 119 120 118
f 117 118 116
f 115 116 114
f 113 114 112
f 111 112 110
f 109 110 108
f 107 108 106
f 105 106 104
f 103 104 102
f 101 102 100
f 99 100 98
f 97 98 96
f 95 96 94
f 93 94 92
f 91 92 90
f 89 90 88
f 87 88 86
f 85 86 84
f 83 84 82
f 81 82 80
f 79 80 78
f 77 78 76
f 75 76 74
f 73 74 72
f 71 72 70
f 69 70 68
f 67 68 66
f 65 66 64
f 63 64 62
f 61 62 60
f 59 60 58
f 57 58 56
f 55 56 54
f 53 54 52
f 51 52 50
f 49 50 48
f 47 48 43
f 44 46 42
f 41 45 40
f 39 40 38
f 37 38 36
f 35 36 34
f 33 34 32
f 31 32 30
f 29 30 28
f 27 28 26
f 25 26 24
f 23 24 22
f 21 22 20
f 19 20 18
f 17 18 16
f 15 16 14
f 13 14 12
f 11 12 10
f 9 10 8
f 7 8 6
f 5 6 4
f 3 4 1
f 41 39 165
f 125 166 167
f 42 168 169
f 170 46 41
f 127 167 171
f 167 127 125
f 169 47 42
f 165 170 41
f 139 172 173
f 137 174 172
f 131 175 176
f 129 171 175
f 125 123 166
f 123 121 177
f 170 168 46
f 39 37 178
f 159 179 180
f 157 181 179
f 172 139 137
f 135 182 174
f 133 176 182
f 175 131 129
f 177 166 123
f 121 119 183
f 119 117 184
f 117 115 185
f 113 111 186
f 111 109 187
f 95 93 188
f 93 91 189
f 65 190 191
f 63 192 190
f 59 193 194
f 57 195 193
f 55 196 195
f 53 197 196
f 47 169 198
f 178 165 39
f 17 15 199
f 15 13 200
f 3 2 201
f 163 202 201
f 161 180 202
f 179 159 157
f 174 137 135
f 176 133 131
f 183 177 121
f 185 184 117
f 115 113 203
f 187 186 111
f 105 103 204
f 103 101 205
f 101 99 206
f 99 97 207
f 97 95 208
f 189 188 93
f 81 209 210
f 79 211 209
f 77 212 211
f 75 213 212
f 73 214 213
f 71 215 214
f 69 216 215
f 67 191 216
f 190 65 63
f 61 194 192
f 193 59 57
f 196 55 53
f 42 46 168
f 37 35 217
f 31 29 218
f 29 27 219
f 25 23 220
f 23 21 221
f 200 199 15
f 13 11 222
f 11 9 223
f 9 7 224
f 7 5 225
f 5 3 226
f 201 2 163
f 180 161 159
f 155 227 181
f 153 228 227
f 151 229 228
f 149 230 229
f 147 231 230
f 145 232 231
f 143 233 232
f 141 173 233
f 182 135 133
f 184 183 119
f 186 203 113
f 109 107 234
f 107 105 235
f 205 204 103
f 207 206 99
f 188 208 95
f 209 81 79
f 212 77 75
f 214 73 71
f 216 69 67
f 192 63 61
f 195 57 55
f 51 236 197
f 49 198 236
f 217 178 37
f 35 33 237
f 33 31 238
f 219 218 29
f 27 25 239
f 221 220 23
f 21 19 240
f 19 17 241
f 222 200 13
f 224 223 9
f 226 225 5
f 202 163 161
f 227 155 153
f 229 151 149
f 231 147 145
f 233 143 141
f 171 129 127
f 234 187 109
f 204 235 105
f 208 207 97
f 91 89 242
f 89 87 243
f 87 85 244
f 85 83 210
f 211 79 77
f 215 71 69
f 194 61 59
f 236 51 49
f 237 217 35
f 218 238 31
f 220 239 25
f 241 240 19
f 223 222 11
f 201 226 3
f 228 153 151
f 232 145 143
f 203 185 115
f 206 205 101
f 243 242 89
f 210 244 85
f 213 75 73
f 197 53 51
f 238 237 33
f 240 221 21
f 225 224 7
f 230 149 147
f 235 234 107
f 244 243 87
f 191 67 65
f 239 219 27
f 181 157 155
f 242 189 91
f 198 49 47
f 173 141 139
f 199 241 17
f 210 83 81
f 245 246 201
f 247 245 202
f 248 247 180
f 249 248 179
f 250 249 181
f 251 250 227
f 252 251 228
f 253 252 229
f 254 253 230
f 255 254 231
f 256 255 232
f 257 256 233
f 258 257 173
f 259 258 172
f 260 259 174
f 261 260 182
f 262 261 176
f 263 262 175
f 264 263 171
f 265 264 167
f 266 265 166
f 267 266 177
f 268 267 183
f 269 268 184
f 270 269 185
f 271 270 203
f 272 271 186
f 273 272 187
f 274 273 234
f 275 274 235
f 276 275 204
f 277 276 205
f 278 277 206
f 279 278 207
f 280 279 208
f 281 280 188
f 282 281 189
f 283 282 242
f 284 283 243
f 285 284 244
f 286 285 210
f 287 286 209
f 288 287 211
f 289 288 212
f 290 289 213
f 291 290 214
f 292 291 215
f 293 292 216
f 294 293 191
f 295 294 190
f 296 295 192
f 297 296 194
f 298 297 193
f 299 298 195
f 300 299 196
f 301 300 197
f 302 301 236
f 303 302 198
f 304 303 169
f 165 305 306
f 304 168 170
f 170 306 304
f 307 305 165
f 308 307 178
f 309 308 217
f 310 309 237
f 311 310 238
f 312 311 218
f 313 312 219
f 314 313 239
f 315 314 220
f 316 315 221
f 317 316 240
f 318 317 241
f 319 318 199
f 320 319 200
f 321 320 222
f 322 321 223
f 323 322 224
f 324 323 225
f 246 324 226
f 226 201 246
f 225 226 324
f 224 225 323
f 223 224 322
f 222 223 321
f 200 222 320
f 199 200 319
f 241 199 318
f 240 241 317
f 221 240 316
f 220 221 315
f 239 220 314
f 219 239 313
f 218 219 312
f 238 218 311
f 237 238 310
f 217 237 309
f 178 217 308
f 165 178 307
f 306 170 165
f 169 168 304
f 198 169 303
f 236 198 302
f 197 236 301
f 196 197 300
f 195 196 299
f 193 195 298
f 194 193 297
f 192 194 296
f 190 192 295
f 191 190 294
f 216 191 293
f 215 216 292
f 214 215 291
f 213 214 290
f 212 213 289
f 211 212 288
f 209 211 287
f 210 209 286
f 244 210 285
f 243 244 284
f 242 243 283
f 189 242 282
f 188 189 281
f 208 188 280
f 207 208 279
f 206 207 278
f 205 206 277
f 204 205 276
f 235 204 275
f 234 235 274
f 187 234 273
f 186 187 272
f 203 186 271
f 185 203 270
f 184 185 269
f 183 184 268
f 177 183 267
f 166 177 266
f 167 166 265
f 171 167 264
f 175 171 263
f 176 175 262
f 182 176 261
f 174 182 260
f 172 174 259
f 173 172 258
f 233 173 257
f 232 233 256
f 231 232 255
f 230 231 254
f 229 230 253
f 228 229 252
f 227 228 251
f 181 227 250
f 179 181 249
f 180 179 248
f 202 180 247
f 201 202 245
f 45 306 305
f 305 40 45
f 43 48 303
f 44 304 306
f 304 44 43
f 40 305 307
f 303 304 43
f 45 44 306
f 48 50 302
f 24 314 315
f 26 313 314
f 30 311 312
f 32 310 311
f 38 307 308
f 302 303 48
f 54 56 299
f 56 58 298
f 58 60 297
f 60 62 296
f 20 316 317
f 22 315 316
f 314 24 26
f 28 312 313
f 311 30 32
f 34 309 310
f 36 308 309
f 307 38 40
f 50 52 301
f 52 54 300
f 298 299 56
f 296 297 60
f 64 66 294
f 66 68 293
f 80 82 286
f 82 84 285
f 316 20 22
f 313 26 28
f 310 32 34
f 308 36 38
f 300 301 52
f 297 298 58
f 62 64 295
f 293 294 66
f 285 286 82
f 86 284 285
f 126 128 264
f 315 22 24
f 309 34 36
f 299 300 54
f 294 295 64
f 68 70 292
f 70 72 291
f 72 74 290
f 74 76 289
f 76 78 288
f 78 80 287
f 285 84 86
f 88 283 284
f 94 280 281
f 96 279 280
f 118 268 269
f 120 267 268
f 124 265 266
f 265 124 126
f 130 132 262
f 132 134 261
f 138 140 258
f 140 142 257
f 312 28 30
f 295 296 62
f 291 292 70
f 289 290 74
f 287 288 78
f 284 86 88
f 90 282 283
f 92 281 282
f 280 94 96
f 98 278 279
f 100 277 278
f 102 276 277
f 104 275 276
f 106 274 275
f 112 271 272
f 114 270 271
f 268 118 120
f 122 266 267
f 264 265 126
f 128 130 263
f 261 262 132
f 134 136 260
f 136 138 259
f 257 258 140
f 301 302 50
f 290 291 72
f 286 287 80
f 282 90 92
f 279 96 98
f 277 100 102
f 275 104 106
f 108 273 274
f 271 112 114
f 116 269 270
f 267 120 122
f 263 264 128
f 260 261 134
f 258 259 138
f 292 293 68
f 283 88 90
f 278 98 100
f 274 106 108
f 110 272 273
f 270 114 116
f 266 122 124
f 259 260 136
f 142 144 256
f 144 146 255
f 146 148 254
f 148 150 253
f 150 152 252
f 152 154 251
f 154 156 250
f 156 158 249
f 10 321 322
f 12 320 321
f 288 289 76
f 276 102 104
f 272 110 112
f 262 263 130
f 255 256 144
f 253 254 148
f 251 252 152
f 249 250 156
f 158 160 248
f 160 162 247
f 6 323 324
f 8 322 323
f 321 10 12
f 14 319 320
f 16 318 319
f 18 317 318
f 281 92 94
f 269 116 118
f 254 255 146
f 250 251 154
f 247 248 160
f 162 164 245
f 4 324 246
f 323 6 8
f 320 12 14
f 318 16 18
f 273 108 110
f 252 253 150
f 245 247 162
f 164 1 246
f 324 4 6
f 319 14 16
f 256 257 142
f 246 245 164
f 322 8 10
f 248 249 158
f 317 18 20
f 246 1 4
