<?xml version="1.0" encoding="utf-8" standalone="no"?>
<!DOCTYPE svg PUBLIC "-//W3C//DTD SVG 1.1//EN"
  "http://www.w3.org/Graphics/SVG/1.1/DTD/svg11.dtd">
<svg xmlns:xlink="http://www.w3.org/1999/xlink" width="864pt" height="576pt" viewBox="0 0 864 576" xmlns="http://www.w3.org/2000/svg" version="1.1">
 <metadata>
  <rdf:RDF xmlns:dc="http://purl.org/dc/elements/1.1/" xmlns:cc="http://creativecommons.org/ns#" xmlns:rdf="http://www.w3.org/1999/02/22-rdf-syntax-ns#">
   <cc:Work>
    <dc:type rdf:resource="http://purl.org/dc/dcmitype/StillImage"/>
    <dc:date>2025-11-25T18:30:17.562217</dc:date>
    <dc:format>image/svg+xml</dc:format>
    <dc:creator>
     <cc:Agent>
      <dc:title>Matplotlib v3.9.4, https://matplotlib.org/</dc:title>
     </cc:Agent>
    </dc:creator>
   </cc:Work>
  </rdf:RDF>
 </metadata>
 <defs>
  <style type="text/css">*{stroke-linejoin: round; stroke-linecap: butt}</style>
 </defs>
 <g id="figure_1">
  <g id="patch_1">
   <path d="M 0 576 
L 864 576 
L 864 0 
L 0 0 
z
" style="fill: #ffffff"/>
  </g>
  <g id="axes_1">
   <g id="patch_2">
    <path d="M 55.82 257.04 
L 853.2 257.04 
L 853.2 10.8 
L 55.82 10.8 
z
" style="fill: #ffffff"/>
   </g>
   <g id="matplotlib.axis_1">
    <g id="xtick_1">
     <g id="line2d_1">
      <path d="M 92.064545 257.04 
L 92.064545 10.8 
" clip-path="url(#p500d4384b7)" style="fill: none; stroke: #b0b0b0; stroke-width: 0.8; stroke-linecap: square"/>
     </g>
     <g id="line2d_2">
      <defs>
       <path id="ma25e3df065" d="M 0 0 
L 0 3.5 
" style="stroke: #000000; stroke-width: 0.8"/>
      </defs>
      <g>
       <use xlink:href="#ma25e3df065" x="92.064545" y="257.04" style="stroke: #000000; stroke-width: 0.8"/>
      </g>
     </g>
     <g id="text_1">
      <!-- 0.0 -->
      <g transform="translate(84.112983 271.638438) scale(0.1 -0.1)">
       <defs>
        <path id="DejaVuSans-30" d="M 2034 4250 
Q 1547 4250 1301 3770 
Q 1056 3291 1056 2328 
Q 1056 1369 1301 889 
Q 1547 409 2034 409 
Q 2525 409 2770 889 
Q 3016 1369 3016 2328 
Q 3016 3291 2770 3770 
Q 2525 4250 2034 4250 
z
M 2034 4750 
Q 2819 4750 3233 4129 
Q 3647 3509 3647 2328 
Q 3647 1150 3233 529 
Q 2819 -91 2034 -91 
Q 1250 -91 836 529 
Q 422 1150 422 2328 
Q 422 3509 836 4129 
Q 1250 4750 2034 4750 
z
" transform="scale(0.015625)"/>
        <path id="DejaVuSans-2e" d="M 684 794 
L 1344 794 
L 1344 0 
L 684 0 
L 684 794 
z
" transform="scale(0.015625)"/>
       </defs>
       <use xlink:href="#DejaVuSans-30"/>
       <use xlink:href="#DejaVuSans-2e" x="63.623047"/>
       <use xlink:href="#DejaVuSans-30" x="95.410156"/>
      </g>
     </g>
    </g>
    <g id="xtick_2">
     <g id="line2d_3">
      <path d="M 182.630626 257.04 
L 182.630626 10.8 
" clip-path="url(#p500d4384b7)" style="fill: none; stroke: #b0b0b0; stroke-width: 0.8; stroke-linecap: square"/>
     </g>
     <g id="line2d_4">
      <g>
       <use xlink:href="#ma25e3df065" x="182.630626" y="257.04" style="stroke: #000000; stroke-width: 0.8"/>
      </g>
     </g>
     <g id="text_2">
      <!-- 2.5 -->
      <g transform="translate(174.679064 271.638438) scale(0.1 -0.1)">
       <defs>
        <path id="DejaVuSans-32" d="M 1228 531 
L 3431 531 
L 3431 0 
L 469 0 
L 469 531 
Q 828 903 1448 1529 
Q 2069 2156 2228 2338 
Q 2531 2678 2651 2914 
Q 2772 3150 2772 3378 
Q 2772 3750 2511 3984 
Q 2250 4219 1831 4219 
Q 1534 4219 1204 4116 
Q 875 4013 500 3803 
L 500 4441 
Q 881 4594 1212 4672 
Q 1544 4750 1819 4750 
Q 2544 4750 2975 4387 
Q 3406 4025 3406 3419 
Q 3406 3131 3298 2873 
Q 3191 2616 2906 2266 
Q 2828 2175 2409 1742 
Q 1991 1309 1228 531 
z
" transform="scale(0.015625)"/>
        <path id="DejaVuSans-35" d="M 691 4666 
L 3169 4666 
L 3169 4134 
L 1269 4134 
L 1269 2991 
Q 1406 3038 1543 3061 
Q 1681 3084 1819 3084 
Q 2600 3084 3056 2656 
Q 3513 2228 3513 1497 
Q 3513 744 3044 326 
Q 2575 -91 1722 -91 
Q 1428 -91 1123 -41 
Q 819 9 494 109 
L 494 744 
Q 775 591 1075 516 
Q 1375 441 1709 441 
Q 2250 441 2565 725 
Q 2881 1009 2881 1497 
Q 2881 1984 2565 2268 
Q 2250 2553 1709 2553 
Q 1456 2553 1204 2497 
Q 953 2441 691 2322 
L 691 4666 
z
" transform="scale(0.015625)"/>
       </defs>
       <use xlink:href="#DejaVuSans-32"/>
       <use xlink:href="#DejaVuSans-2e" x="63.623047"/>
       <use xlink:href="#DejaVuSans-35" x="95.410156"/>
      </g>
     </g>
    </g>
    <g id="xtick_3">
     <g id="line2d_5">
      <path d="M 273.196707 257.04 
L 273.196707 10.8 
" clip-path="url(#p500d4384b7)" style="fill: none; stroke: #b0b0b0; stroke-width: 0.8; stroke-linecap: square"/>
     </g>
     <g id="line2d_6">
      <g>
       <use xlink:href="#ma25e3df065" x="273.196707" y="257.04" style="stroke: #000000; stroke-width: 0.8"/>
      </g>
     </g>
     <g id="text_3">
      <!-- 5.0 -->
      <g transform="translate(265.245144 271.638438) scale(0.1 -0.1)">
       <use xlink:href="#DejaVuSans-35"/>
       <use xlink:href="#DejaVuSans-2e" x="63.623047"/>
       <use xlink:href="#DejaVuSans-30" x="95.410156"/>
      </g>
     </g>
    </g>
    <g id="xtick_4">
     <g id="line2d_7">
      <path d="M 363.762787 257.04 
L 363.762787 10.8 
" clip-path="url(#p500d4384b7)" style="fill: none; stroke: #b0b0b0; stroke-width: 0.8; stroke-linecap: square"/>
     </g>
     <g id="line2d_8">
      <g>
       <use xlink:href="#ma25e3df065" x="363.762787" y="257.04" style="stroke: #000000; stroke-width: 0.8"/>
      </g>
     </g>
     <g id="text_4">
      <!-- 7.5 -->
      <g transform="translate(355.811225 271.638438) scale(0.1 -0.1)">
       <defs>
        <path id="DejaVuSans-37" d="M 525 4666 
L 3525 4666 
L 3525 4397 
L 1831 0 
L 1172 0 
L 2766 4134 
L 525 4134 
L 525 4666 
z
" transform="scale(0.015625)"/>
       </defs>
       <use xlink:href="#DejaVuSans-37"/>
       <use xlink:href="#DejaVuSans-2e" x="63.623047"/>
       <use xlink:href="#DejaVuSans-35" x="95.410156"/>
      </g>
     </g>
    </g>
    <g id="xtick_5">
     <g id="line2d_9">
      <path d="M 454.328868 257.04 
L 454.328868 10.8 
" clip-path="url(#p500d4384b7)" style="fill: none; stroke: #b0b0b0; stroke-width: 0.8; stroke-linecap: square"/>
     </g>
     <g id="line2d_10">
      <g>
       <use xlink:href="#ma25e3df065" x="454.328868" y="257.04" style="stroke: #000000; stroke-width: 0.8"/>
      </g>
     </g>
     <g id="text_5">
      <!-- 10.0 -->
      <g transform="translate(443.196055 271.638438) scale(0.1 -0.1)">
       <defs>
        <path id="DejaVuSans-31" d="M 794 531 
L 1825 531 
L 1825 4091 
L 703 3866 
L 703 4441 
L 1819 4666 
L 2450 4666 
L 2450 531 
L 3481 531 
L 3481 0 
L 794 0 
L 794 531 
z
" transform="scale(0.015625)"/>
       </defs>
       <use xlink:href="#DejaVuSans-31"/>
       <use xlink:href="#DejaVuSans-30" x="63.623047"/>
       <use xlink:href="#DejaVuSans-2e" x="127.246094"/>
       <use xlink:href="#DejaVuSans-30" x="159.033203"/>
      </g>
     </g>
    </g>
    <g id="xtick_6">
     <g id="line2d_11">
      <path d="M 544.894948 257.04 
L 544.894948 10.8 
" clip-path="url(#p500d4384b7)" style="fill: none; stroke: #b0b0b0; stroke-width: 0.8; stroke-linecap: square"/>
     </g>
     <g id="line2d_12">
      <g>
       <use xlink:href="#ma25e3df065" x="544.894948" y="257.04" style="stroke: #000000; stroke-width: 0.8"/>
      </g>
     </g>
     <g id="text_6">
      <!-- 12.5 -->
      <g transform="translate(533.762136 271.638438) scale(0.1 -0.1)">
       <use xlink:href="#DejaVuSans-31"/>
       <use xlink:href="#DejaVuSans-32" x="63.623047"/>
       <use xlink:href="#DejaVuSans-2e" x="127.246094"/>
       <use xlink:href="#DejaVuSans-35" x="159.033203"/>
      </g>
     </g>
    </g>
    <g id="xtick_7">
     <g id="line2d_13">
      <path d="M 635.461029 257.04 
L 635.461029 10.8 
" clip-path="url(#p500d4384b7)" style="fill: none; stroke: #b0b0b0; stroke-width: 0.8; stroke-linecap: square"/>
     </g>
     <g id="line2d_14">
      <g>
       <use xlink:href="#ma25e3df065" x="635.461029" y="257.04" style="stroke: #000000; stroke-width: 0.8"/>
      </g>
     </g>
     <g id="text_7">
      <!-- 15.0 -->
      <g transform="translate(624.328217 271.638438) scale(0.1 -0.1)">
       <use xlink:href="#DejaVuSans-31"/>
       <use xlink:href="#DejaVuSans-35" x="63.623047"/>
       <use xlink:href="#DejaVuSans-2e" x="127.246094"/>
       <use xlink:href="#DejaVuSans-30" x="159.033203"/>
      </g>
     </g>
    </g>
    <g id="xtick_8">
     <g id="line2d_15">
      <path d="M 726.02711 257.04 
L 726.02711 10.8 
" clip-path="url(#p500d4384b7)" style="fill: none; stroke: #b0b0b0; stroke-width: 0.8; stroke-linecap: square"/>
     </g>
     <g id="line2d_16">
      <g>
       <use xlink:href="#ma25e3df065" x="726.02711" y="257.04" style="stroke: #000000; stroke-width: 0.8"/>
      </g>
     </g>
     <g id="text_8">
      <!-- 17.5 -->
      <g transform="translate(714.894297 271.638438) scale(0.1 -0.1)">
       <use xlink:href="#DejaVuSans-31"/>
       <use xlink:href="#DejaVuSans-37" x="63.623047"/>
       <use xlink:href="#DejaVuSans-2e" x="127.246094"/>
       <use xlink:href="#DejaVuSans-35" x="159.033203"/>
      </g>
     </g>
    </g>
    <g id="xtick_9">
     <g id="line2d_17">
      <path d="M 816.59319 257.04 
L 816.59319 10.8 
" clip-path="url(#p500d4384b7)" style="fill: none; stroke: #b0b0b0; stroke-width: 0.8; stroke-linecap: square"/>
     </g>
     <g id="line2d_18">
      <g>
       <use xlink:href="#ma25e3df065" x="816.59319" y="257.04" style="stroke: #000000; stroke-width: 0.8"/>
      </g>
     </g>
     <g id="text_9">
      <!-- 20.0 -->
      <g transform="translate(805.460378 271.638438) scale(0.1 -0.1)">
       <use xlink:href="#DejaVuSans-32"/>
       <use xlink:href="#DejaVuSans-30" x="63.623047"/>
       <use xlink:href="#DejaVuSans-2e" x="127.246094"/>
       <use xlink:href="#DejaVuSans-30" x="159.033203"/>
      </g>
     </g>
    </g>
   </g>
   <g id="matplotlib.axis_2">
    <g id="ytick_1">
     <g id="line2d_19">
      <path d="M 55.82 253.160895 
L 853.2 253.160895 
" clip-path="url(#p500d4384b7)" style="fill: none; stroke: #b0b0b0; stroke-width: 0.8; stroke-linecap: square"/>
     </g>
     <g id="line2d_20">
      <defs>
       <path id="m8143ddbc20" d="M 0 0 
L -3.5 0 
" style="stroke: #000000; stroke-width: 0.8"/>
      </defs>
      <g>
       <use xlink:href="#m8143ddbc20" x="55.82" y="253.160895" style="stroke: #000000; stroke-width: 0.8"/>
      </g>
     </g>
     <g id="text_10">
      <!-- −50 -->
      <g transform="translate(27.715313 256.960113) scale(0.1 -0.1)">
       <defs>
        <path id="DejaVuSans-2212" d="M 678 2272 
L 4684 2272 
L 4684 1741 
L 678 1741 
L 678 2272 
z
" transform="scale(0.015625)"/>
       </defs>
       <use xlink:href="#DejaVuSans-2212"/>
       <use xlink:href="#DejaVuSans-35" x="83.789062"/>
       <use xlink:href="#DejaVuSans-30" x="147.412109"/>
      </g>
     </g>
    </g>
    <g id="ytick_2">
     <g id="line2d_21">
      <path d="M 55.82 202.06054 
L 853.2 202.06054 
" clip-path="url(#p500d4384b7)" style="fill: none; stroke: #b0b0b0; stroke-width: 0.8; stroke-linecap: square"/>
     </g>
     <g id="line2d_22">
      <g>
       <use xlink:href="#m8143ddbc20" x="55.82" y="202.06054" style="stroke: #000000; stroke-width: 0.8"/>
      </g>
     </g>
     <g id="text_11">
      <!-- 0 -->
      <g transform="translate(42.4575 205.859759) scale(0.1 -0.1)">
       <use xlink:href="#DejaVuSans-30"/>
      </g>
     </g>
    </g>
    <g id="ytick_3">
     <g id="line2d_23">
      <path d="M 55.82 150.960186 
L 853.2 150.960186 
" clip-path="url(#p500d4384b7)" style="fill: none; stroke: #b0b0b0; stroke-width: 0.8; stroke-linecap: square"/>
     </g>
     <g id="line2d_24">
      <g>
       <use xlink:href="#m8143ddbc20" x="55.82" y="150.960186" style="stroke: #000000; stroke-width: 0.8"/>
      </g>
     </g>
     <g id="text_12">
      <!-- 50 -->
      <g transform="translate(36.095 154.759405) scale(0.1 -0.1)">
       <use xlink:href="#DejaVuSans-35"/>
       <use xlink:href="#DejaVuSans-30" x="63.623047"/>
      </g>
     </g>
    </g>
    <g id="ytick_4">
     <g id="line2d_25">
      <path d="M 55.82 99.859832 
L 853.2 99.859832 
" clip-path="url(#p500d4384b7)" style="fill: none; stroke: #b0b0b0; stroke-width: 0.8; stroke-linecap: square"/>
     </g>
     <g id="line2d_26">
      <g>
       <use xlink:href="#m8143ddbc20" x="55.82" y="99.859832" style="stroke: #000000; stroke-width: 0.8"/>
      </g>
     </g>
     <g id="text_13">
      <!-- 100 -->
      <g transform="translate(29.7325 103.659051) scale(0.1 -0.1)">
       <use xlink:href="#DejaVuSans-31"/>
       <use xlink:href="#DejaVuSans-30" x="63.623047"/>
       <use xlink:href="#DejaVuSans-30" x="127.246094"/>
      </g>
     </g>
    </g>
    <g id="ytick_5">
     <g id="line2d_27">
      <path d="M 55.82 48.759478 
L 853.2 48.759478 
" clip-path="url(#p500d4384b7)" style="fill: none; stroke: #b0b0b0; stroke-width: 0.8; stroke-linecap: square"/>
     </g>
     <g id="line2d_28">
      <g>
       <use xlink:href="#m8143ddbc20" x="55.82" y="48.759478" style="stroke: #000000; stroke-width: 0.8"/>
      </g>
     </g>
     <g id="text_14">
      <!-- 150 -->
      <g transform="translate(29.7325 52.558696) scale(0.1 -0.1)">
       <use xlink:href="#DejaVuSans-31"/>
       <use xlink:href="#DejaVuSans-35" x="63.623047"/>
       <use xlink:href="#DejaVuSans-30" x="127.246094"/>
      </g>
     </g>
    </g>
    <g id="text_15">
     <!-- Input (Right) -->
     <g transform="translate(21.219688 171.844688) rotate(-90) scale(0.12 -0.12)">
      <defs>
       <path id="DejaVuSans-49" d="M 628 4666 
L 1259 4666 
L 1259 0 
L 628 0 
L 628 4666 
z
" transform="scale(0.015625)"/>
       <path id="DejaVuSans-6e" d="M 3513 2113 
L 3513 0 
L 2938 0 
L 2938 2094 
Q 2938 2591 2744 2837 
Q 2550 3084 2163 3084 
Q 1697 3084 1428 2787 
Q 1159 2491 1159 1978 
L 1159 0 
L 581 0 
L 581 3500 
L 1159 3500 
L 1159 2956 
Q 1366 3272 1645 3428 
Q 1925 3584 2291 3584 
Q 2894 3584 3203 3211 
Q 3513 2838 3513 2113 
z
" transform="scale(0.015625)"/>
       <path id="DejaVuSans-70" d="M 1159 525 
L 1159 -1331 
L 581 -1331 
L 581 3500 
L 1159 3500 
L 1159 2969 
Q 1341 3281 1617 3432 
Q 1894 3584 2278 3584 
Q 2916 3584 3314 3078 
Q 3713 2572 3713 1747 
Q 3713 922 3314 415 
Q 2916 -91 2278 -91 
Q 1894 -91 1617 61 
Q 1341 213 1159 525 
z
M 3116 1747 
Q 3116 2381 2855 2742 
Q 2594 3103 2138 3103 
Q 1681 3103 1420 2742 
Q 1159 2381 1159 1747 
Q 1159 1113 1420 752 
Q 1681 391 2138 391 
Q 2594 391 2855 752 
Q 3116 1113 3116 1747 
z
" transform="scale(0.015625)"/>
       <path id="DejaVuSans-75" d="M 544 1381 
L 544 3500 
L 1119 3500 
L 1119 1403 
Q 1119 906 1312 657 
Q 1506 409 1894 409 
Q 2359 409 2629 706 
Q 2900 1003 2900 1516 
L 2900 3500 
L 3475 3500 
L 3475 0 
L 2900 0 
L 2900 538 
Q 2691 219 2414 64 
Q 2138 -91 1772 -91 
Q 1169 -91 856 284 
Q 544 659 544 1381 
z
M 1991 3584 
L 1991 3584 
z
" transform="scale(0.015625)"/>
       <path id="DejaVuSans-74" d="M 1172 4494 
L 1172 3500 
L 2356 3500 
L 2356 3053 
L 1172 3053 
L 1172 1153 
Q 1172 725 1289 603 
Q 1406 481 1766 481 
L 2356 481 
L 2356 0 
L 1766 0 
Q 1100 0 847 248 
Q 594 497 594 1153 
L 594 3053 
L 172 3053 
L 172 3500 
L 594 3500 
L 594 4494 
L 1172 4494 
z
" transform="scale(0.015625)"/>
       <path id="DejaVuSans-20" transform="scale(0.015625)"/>
       <path id="DejaVuSans-28" d="M 1984 4856 
Q 1566 4138 1362 3434 
Q 1159 2731 1159 2009 
Q 1159 1288 1364 580 
Q 1569 -128 1984 -844 
L 1484 -844 
Q 1016 -109 783 600 
Q 550 1309 550 2009 
Q 550 2706 781 3412 
Q 1013 4119 1484 4856 
L 1984 4856 
z
" transform="scale(0.015625)"/>
       <path id="DejaVuSans-52" d="M 2841 2188 
Q 3044 2119 3236 1894 
Q 3428 1669 3622 1275 
L 4263 0 
L 3584 0 
L 2988 1197 
Q 2756 1666 2539 1819 
Q 2322 1972 1947 1972 
L 1259 1972 
L 1259 0 
L 628 0 
L 628 4666 
L 2053 4666 
Q 2853 4666 3247 4331 
Q 3641 3997 3641 3322 
Q 3641 2881 3436 2590 
Q 3231 2300 2841 2188 
z
M 1259 4147 
L 1259 2491 
L 2053 2491 
Q 2509 2491 2742 2702 
Q 2975 2913 2975 3322 
Q 2975 3731 2742 3939 
Q 2509 4147 2053 4147 
L 1259 4147 
z
" transform="scale(0.015625)"/>
       <path id="DejaVuSans-69" d="M 603 3500 
L 1178 3500 
L 1178 0 
L 603 0 
L 603 3500 
z
M 603 4863 
L 1178 4863 
L 1178 4134 
L 603 4134 
L 603 4863 
z
" transform="scale(0.015625)"/>
       <path id="DejaVuSans-67" d="M 2906 1791 
Q 2906 2416 2648 2759 
Q 2391 3103 1925 3103 
Q 1463 3103 1205 2759 
Q 947 2416 947 1791 
Q 947 1169 1205 825 
Q 1463 481 1925 481 
Q 2391 481 2648 825 
Q 2906 1169 2906 1791 
z
M 3481 434 
Q 3481 -459 3084 -895 
Q 2688 -1331 1869 -1331 
Q 1566 -1331 1297 -1286 
Q 1028 -1241 775 -1147 
L 775 -588 
Q 1028 -725 1275 -790 
Q 1522 -856 1778 -856 
Q 2344 -856 2625 -561 
Q 2906 -266 2906 331 
L 2906 616 
Q 2728 306 2450 153 
Q 2172 0 1784 0 
Q 1141 0 747 490 
Q 353 981 353 1791 
Q 353 2603 747 3093 
Q 1141 3584 1784 3584 
Q 2172 3584 2450 3431 
Q 2728 3278 2906 2969 
L 2906 3500 
L 3481 3500 
L 3481 434 
z
" transform="scale(0.015625)"/>
       <path id="DejaVuSans-68" d="M 3513 2113 
L 3513 0 
L 2938 0 
L 2938 2094 
Q 2938 2591 2744 2837 
Q 2550 3084 2163 3084 
Q 1697 3084 1428 2787 
Q 1159 2491 1159 1978 
L 1159 0 
L 581 0 
L 581 4863 
L 1159 4863 
L 1159 2956 
Q 1366 3272 1645 3428 
Q 1925 3584 2291 3584 
Q 2894 3584 3203 3211 
Q 3513 2838 3513 2113 
z
" transform="scale(0.015625)"/>
       <path id="DejaVuSans-29" d="M 513 4856 
L 1013 4856 
Q 1481 4119 1714 3412 
Q 1947 2706 1947 2009 
Q 1947 1309 1714 600 
Q 1481 -109 1013 -844 
L 513 -844 
Q 928 -128 1133 580 
Q 1338 1288 1338 2009 
Q 1338 2731 1133 3434 
Q 928 4138 513 4856 
z
" transform="scale(0.015625)"/>
      </defs>
      <use xlink:href="#DejaVuSans-49"/>
      <use xlink:href="#DejaVuSans-6e" x="29.492188"/>
      <use xlink:href="#DejaVuSans-70" x="92.871094"/>
      <use xlink:href="#DejaVuSans-75" x="156.347656"/>
      <use xlink:href="#DejaVuSans-74" x="219.726562"/>
      <use xlink:href="#DejaVuSans-20" x="258.935547"/>
      <use xlink:href="#DejaVuSans-28" x="290.722656"/>
      <use xlink:href="#DejaVuSans-52" x="329.736328"/>
      <use xlink:href="#DejaVuSans-69" x="399.21875"/>
      <use xlink:href="#DejaVuSans-67" x="427.001953"/>
      <use xlink:href="#DejaVuSans-68" x="490.478516"/>
      <use xlink:href="#DejaVuSans-74" x="553.857422"/>
      <use xlink:href="#DejaVuSans-29" x="593.066406"/>
     </g>
    </g>
   </g>
   <g id="line2d_29">
    <path d="M 92.064545 202.06054 
L 182.630626 202.06054 
L 182.99289 157.897326 
L 183.355155 198.487451 
L 184.804212 200.965568 
L 188.78912 207.539041 
L 189.151384 208.003263 
L 189.513648 208.023097 
L 190.238177 207.707666 
L 190.962705 207.132139 
L 191.687234 206.324618 
L 192.049498 206.256546 
L 192.774027 206.565667 
L 193.498556 207.081056 
L 194.585349 207.399171 
L 196.034406 207.799535 
L 197.483463 208.199908 
L 198.207992 208.224547 
L 198.932521 208.031334 
L 199.294785 207.793502 
L 199.657049 206.86175 
L 201.468371 199.681531 
L 202.192899 197.447828 
L 202.917428 195.960558 
L 203.279692 195.487789 
L 203.641957 195.204628 
L 204.004221 195.111014 
L 204.366485 195.194301 
L 205.091014 195.786141 
L 205.453278 196.206507 
L 205.815543 194.409901 
L 206.177807 190.03651 
L 206.540071 189.931345 
L 207.2646 191.130424 
L 207.626864 192.029257 
L 208.351393 198.655523 
L 209.075922 198.532702 
L 210.524979 198.45279 
L 210.887243 241.977957 
L 211.249508 210.452046 
L 211.611772 211.108194 
L 211.974036 211.438815 
L 212.3363 211.363627 
L 212.698565 210.397839 
L 213.060829 209.960889 
L 213.423093 210.554661 
L 213.785358 210.865265 
L 214.147622 210.8338 
L 214.509886 210.527789 
L 214.872151 209.917365 
L 215.234415 208.926904 
L 216.683472 203.468327 
L 217.770265 201.142953 
L 218.857058 199.421096 
L 219.943851 198.15922 
L 220.66838 197.728125 
L 221.392909 197.585558 
L 222.117437 197.704906 
L 222.479702 197.857207 
L 222.841966 197.565321 
L 223.20423 196.347931 
L 223.566494 196.201709 
L 224.291023 196.769117 
L 225.015552 197.735156 
L 229.724988 205.906793 
L 230.811781 207.507346 
L 231.53631 207.819205 
L 232.260838 207.853656 
L 232.985367 207.692251 
L 233.709896 207.451712 
L 234.796688 206.743513 
L 235.521217 206.988141 
L 236.970274 207.892556 
L 238.781596 208.45378 
L 239.868389 208.732386 
L 240.592918 208.787386 
L 241.679711 208.407893 
L 242.041975 207.674931 
L 244.94009 197.65185 
L 245.664618 196.222223 
L 246.389147 195.575451 
L 246.751411 195.499511 
L 247.47594 195.721061 
L 248.200468 196.183217 
L 248.562733 191.932916 
L 248.924997 190.337707 
L 249.287261 190.603092 
L 250.01179 191.835762 
L 250.374054 192.720787 
L 250.736319 196.978191 
L 251.098583 198.9533 
L 251.823112 198.849028 
L 253.996698 198.750793 
L 254.358962 242.344223 
L 254.721226 210.088962 
L 255.445755 211.357931 
L 255.808019 211.726672 
L 256.170283 211.41339 
L 256.894812 210.414891 
L 259.430662 205.177535 
L 260.155191 202.418939 
L 263.053306 195.161589 
L 264.140099 192.938836 
L 264.864627 191.767243 
L 265.589156 190.929551 
L 266.313685 190.339358 
L 267.038213 189.98739 
L 268.125006 190.149415 
L 268.849535 190.539014 
L 269.574063 191.188099 
L 270.660856 192.848088 
L 273.558971 196.211693 
L 273.921235 197.143881 
L 275.008028 198.688665 
L 278.268407 204.260584 
L 281.166522 207.454178 
L 282.977843 210.870726 
L 283.340108 211.23973 
L 283.702372 211.250965 
L 284.064636 211.47372 
L 284.789165 212.420746 
L 285.513694 212.819009 
L 286.600487 213.415528 
L 287.325015 214.150344 
L 287.68728 213.754057 
L 288.049544 212.493575 
L 288.411808 210.061115 
L 288.774073 208.442647 
L 289.498601 206.526466 
L 289.860865 205.897717 
L 290.22313 200.464646 
L 290.585394 197.878416 
L 291.672187 194.216729 
L 292.396716 192.464457 
L 293.121244 191.145781 
L 293.483509 195.359538 
L 293.845773 167.318881 
L 294.208037 209.42023 
L 294.570302 210.013523 
L 294.932566 211.645404 
L 295.29483 212.608407 
L 295.657095 213.159834 
L 296.019359 213.434514 
L 296.381623 213.518394 
L 296.743888 213.421704 
L 297.468416 212.494113 
L 298.192945 210.806022 
L 298.917474 208.39152 
L 299.642002 205.674393 
L 300.366531 203.966712 
L 303.264645 198.265642 
L 304.351438 196.951653 
L 305.075967 196.307892 
L 305.800496 195.926065 
L 306.525024 195.804774 
L 307.249553 196.004947 
L 307.974082 196.540014 
L 309.060875 198.173165 
L 310.509932 200.766206 
L 311.596725 202.49272 
L 312.321253 202.778265 
L 313.770311 204.643354 
L 314.494839 206.241483 
L 316.306161 210.552476 
L 317.03069 211.749735 
L 317.392954 212.114597 
L 317.755218 211.517838 
L 319.928804 213.22716 
L 320.653333 213.638997 
L 322.826919 214.064952 
L 323.551447 213.722198 
L 324.63824 212.966716 
L 325.362769 212.144725 
L 326.087298 211.198514 
L 326.449562 210.33111 
L 327.174091 207.35387 
L 328.985412 199.911057 
L 330.43447 194.841887 
L 331.158998 193.099754 
L 331.883527 191.844276 
L 332.608056 190.988525 
L 332.97032 190.760327 
L 333.332584 190.675776 
L 333.694848 190.803179 
L 334.419377 191.503097 
L 334.781641 192.048552 
L 335.143906 192.261709 
L 335.50617 194.026711 
L 335.868434 197.340232 
L 336.230699 196.839482 
L 336.592963 196.571206 
L 336.955227 196.684073 
L 337.317492 197.170307 
L 338.404285 199.585402 
L 338.766549 200.010189 
L 339.128813 200.219617 
L 339.491078 200.247016 
L 340.215606 199.951155 
L 342.026928 198.951612 
L 343.113721 198.645527 
L 344.562778 198.478971 
L 349.272214 198.371341 
L 349.634479 198.749551 
L 349.996743 245.847273 
L 350.359007 211.955065 
L 350.721272 210.582481 
L 352.170329 212.079906 
L 352.894858 212.142538 
L 353.257122 212.129768 
L 354.343915 211.192996 
L 354.706179 210.731364 
L 355.068444 210.044607 
L 356.155236 207.128017 
L 357.242029 204.755456 
L 360.140144 199.896445 
L 361.226937 198.573364 
L 362.31373 197.574872 
L 363.038259 197.132218 
L 363.762787 196.949597 
L 364.487316 196.922134 
L 364.84958 196.977007 
L 366.298637 198.005706 
L 366.660902 198.438474 
L 367.747695 200.129882 
L 370.645809 204.069764 
L 373.906188 208.071409 
L 376.804303 210.540006 
L 377.166567 210.746006 
L 377.891096 209.913259 
L 378.25336 209.739734 
L 378.615624 209.76527 
L 378.977889 210.070178 
L 379.702417 211.194422 
L 380.426946 212.350609 
L 381.151475 213.086146 
L 381.513739 213.310754 
L 382.238268 213.379463 
L 382.962796 213.256314 
L 384.411854 212.510389 
L 385.136382 211.942167 
L 385.498647 21.992727 
L 385.860911 216.712823 
L 386.223175 214.781312 
L 386.58544 211.753525 
L 386.947704 174.287969 
L 387.309968 215.125256 
L 388.034497 216.285876 
L 388.396761 216.68005 
L 388.759025 216.751126 
L 389.12129 216.478755 
L 389.845818 214.57741 
L 390.570347 211.230109 
L 391.294876 206.754821 
L 392.019404 203.71272 
L 393.106197 200.051766 
L 394.19299 197.205181 
L 394.917519 195.965043 
L 395.642048 195.266377 
L 396.004312 195.19172 
L 396.366576 195.255466 
L 396.728841 195.486006 
L 397.091105 195.890584 
L 397.815634 197.265275 
L 400.351484 204.922672 
L 402.52507 210.14105 
L 403.974127 212.901459 
L 405.06092 214.501986 
L 405.785449 215.284537 
L 406.509977 215.822308 
L 407.234506 216.058253 
L 407.59677 216.080142 
L 407.959035 215.986957 
L 410.494885 212.860974 
L 410.857149 212.23415 
L 411.219413 211.269115 
L 411.943942 206.481201 
L 413.030735 199.267763 
L 413.755264 195.301918 
L 414.842057 190.24586 
L 415.204321 189.261358 
L 415.566585 188.602742 
L 415.92885 188.230076 
L 416.291114 188.152211 
L 416.653378 188.382918 
L 417.015643 188.936809 
L 417.377907 189.903256 
L 417.740171 191.345905 
L 418.102436 195.071799 
L 418.4647 200.210156 
L 419.189229 200.049184 
L 422.811872 199.868299 
L 431.143951 199.683444 
L 437.664709 199.36725 
L 450.706225 198.74319 
L 467.732648 198.01209 
L 500.698701 196.57201 
L 747.400705 186.207251 
L 816.955455 183.377605 
L 816.955455 183.377605 
" clip-path="url(#p500d4384b7)" style="fill: none; stroke: #0000ff; stroke-linecap: square"/>
   </g>
   <g id="patch_3">
    <path d="M 55.82 257.04 
L 55.82 10.8 
" style="fill: none; stroke: #000000; stroke-width: 0.8; stroke-linejoin: miter; stroke-linecap: square"/>
   </g>
   <g id="patch_4">
    <path d="M 853.2 257.04 
L 853.2 10.8 
" style="fill: none; stroke: #000000; stroke-width: 0.8; stroke-linejoin: miter; stroke-linecap: square"/>
   </g>
   <g id="patch_5">
    <path d="M 55.82 257.04 
L 853.2 257.04 
" style="fill: none; stroke: #000000; stroke-width: 0.8; stroke-linejoin: miter; stroke-linecap: square"/>
   </g>
   <g id="patch_6">
    <path d="M 55.82 10.8 
L 853.2 10.8 
" style="fill: none; stroke: #000000; stroke-width: 0.8; stroke-linejoin: miter; stroke-linecap: square"/>
   </g>
  </g>
  <g id="axes_2">
   <g id="patch_7">
    <path d="M 55.82 531.16 
L 853.2 531.16 
L 853.2 284.92 
L 55.82 284.92 
z
" style="fill: #ffffff"/>
   </g>
   <g id="matplotlib.axis_3">
    <g id="xtick_10">
     <g id="line2d_30">
      <path d="M 92.064545 531.16 
L 92.064545 284.92 
" clip-path="url(#p4d1ddaecc1)" style="fill: none; stroke: #b0b0b0; stroke-width: 0.8; stroke-linecap: square"/>
     </g>
     <g id="line2d_31">
      <g>
       <use xlink:href="#ma25e3df065" x="92.064545" y="531.16" style="stroke: #000000; stroke-width: 0.8"/>
      </g>
     </g>
     <g id="text_16">
      <!-- 0.0 -->
      <g transform="translate(84.112983 545.758438) scale(0.1 -0.1)">
       <use xlink:href="#DejaVuSans-30"/>
       <use xlink:href="#DejaVuSans-2e" x="63.623047"/>
       <use xlink:href="#DejaVuSans-30" x="95.410156"/>
      </g>
     </g>
    </g>
    <g id="xtick_11">
     <g id="line2d_32">
      <path d="M 182.630626 531.16 
L 182.630626 284.92 
" clip-path="url(#p4d1ddaecc1)" style="fill: none; stroke: #b0b0b0; stroke-width: 0.8; stroke-linecap: square"/>
     </g>
     <g id="line2d_33">
      <g>
       <use xlink:href="#ma25e3df065" x="182.630626" y="531.16" style="stroke: #000000; stroke-width: 0.8"/>
      </g>
     </g>
     <g id="text_17">
      <!-- 2.5 -->
      <g transform="translate(174.679064 545.758438) scale(0.1 -0.1)">
       <use xlink:href="#DejaVuSans-32"/>
       <use xlink:href="#DejaVuSans-2e" x="63.623047"/>
       <use xlink:href="#DejaVuSans-35" x="95.410156"/>
      </g>
     </g>
    </g>
    <g id="xtick_12">
     <g id="line2d_34">
      <path d="M 273.196707 531.16 
L 273.196707 284.92 
" clip-path="url(#p4d1ddaecc1)" style="fill: none; stroke: #b0b0b0; stroke-width: 0.8; stroke-linecap: square"/>
     </g>
     <g id="line2d_35">
      <g>
       <use xlink:href="#ma25e3df065" x="273.196707" y="531.16" style="stroke: #000000; stroke-width: 0.8"/>
      </g>
     </g>
     <g id="text_18">
      <!-- 5.0 -->
      <g transform="translate(265.245144 545.758438) scale(0.1 -0.1)">
       <use xlink:href="#DejaVuSans-35"/>
       <use xlink:href="#DejaVuSans-2e" x="63.623047"/>
       <use xlink:href="#DejaVuSans-30" x="95.410156"/>
      </g>
     </g>
    </g>
    <g id="xtick_13">
     <g id="line2d_36">
      <path d="M 363.762787 531.16 
L 363.762787 284.92 
" clip-path="url(#p4d1ddaecc1)" style="fill: none; stroke: #b0b0b0; stroke-width: 0.8; stroke-linecap: square"/>
     </g>
     <g id="line2d_37">
      <g>
       <use xlink:href="#ma25e3df065" x="363.762787" y="531.16" style="stroke: #000000; stroke-width: 0.8"/>
      </g>
     </g>
     <g id="text_19">
      <!-- 7.5 -->
      <g transform="translate(355.811225 545.758438) scale(0.1 -0.1)">
       <use xlink:href="#DejaVuSans-37"/>
       <use xlink:href="#DejaVuSans-2e" x="63.623047"/>
       <use xlink:href="#DejaVuSans-35" x="95.410156"/>
      </g>
     </g>
    </g>
    <g id="xtick_14">
     <g id="line2d_38">
      <path d="M 454.328868 531.16 
L 454.328868 284.92 
" clip-path="url(#p4d1ddaecc1)" style="fill: none; stroke: #b0b0b0; stroke-width: 0.8; stroke-linecap: square"/>
     </g>
     <g id="line2d_39">
      <g>
       <use xlink:href="#ma25e3df065" x="454.328868" y="531.16" style="stroke: #000000; stroke-width: 0.8"/>
      </g>
     </g>
     <g id="text_20">
      <!-- 10.0 -->
      <g transform="translate(443.196055 545.758438) scale(0.1 -0.1)">
       <use xlink:href="#DejaVuSans-31"/>
       <use xlink:href="#DejaVuSans-30" x="63.623047"/>
       <use xlink:href="#DejaVuSans-2e" x="127.246094"/>
       <use xlink:href="#DejaVuSans-30" x="159.033203"/>
      </g>
     </g>
    </g>
    <g id="xtick_15">
     <g id="line2d_40">
      <path d="M 544.894948 531.16 
L 544.894948 284.92 
" clip-path="url(#p4d1ddaecc1)" style="fill: none; stroke: #b0b0b0; stroke-width: 0.8; stroke-linecap: square"/>
     </g>
     <g id="line2d_41">
      <g>
       <use xlink:href="#ma25e3df065" x="544.894948" y="531.16" style="stroke: #000000; stroke-width: 0.8"/>
      </g>
     </g>
     <g id="text_21">
      <!-- 12.5 -->
      <g transform="translate(533.762136 545.758438) scale(0.1 -0.1)">
       <use xlink:href="#DejaVuSans-31"/>
       <use xlink:href="#DejaVuSans-32" x="63.623047"/>
       <use xlink:href="#DejaVuSans-2e" x="127.246094"/>
       <use xlink:href="#DejaVuSans-35" x="159.033203"/>
      </g>
     </g>
    </g>
    <g id="xtick_16">
     <g id="line2d_42">
      <path d="M 635.461029 531.16 
L 635.461029 284.92 
" clip-path="url(#p4d1ddaecc1)" style="fill: none; stroke: #b0b0b0; stroke-width: 0.8; stroke-linecap: square"/>
     </g>
     <g id="line2d_43">
      <g>
       <use xlink:href="#ma25e3df065" x="635.461029" y="531.16" style="stroke: #000000; stroke-width: 0.8"/>
      </g>
     </g>
     <g id="text_22">
      <!-- 15.0 -->
      <g transform="translate(624.328217 545.758438) scale(0.1 -0.1)">
       <use xlink:href="#DejaVuSans-31"/>
       <use xlink:href="#DejaVuSans-35" x="63.623047"/>
       <use xlink:href="#DejaVuSans-2e" x="127.246094"/>
       <use xlink:href="#DejaVuSans-30" x="159.033203"/>
      </g>
     </g>
    </g>
    <g id="xtick_17">
     <g id="line2d_44">
      <path d="M 726.02711 531.16 
L 726.02711 284.92 
" clip-path="url(#p4d1ddaecc1)" style="fill: none; stroke: #b0b0b0; stroke-width: 0.8; stroke-linecap: square"/>
     </g>
     <g id="line2d_45">
      <g>
       <use xlink:href="#ma25e3df065" x="726.02711" y="531.16" style="stroke: #000000; stroke-width: 0.8"/>
      </g>
     </g>
     <g id="text_23">
      <!-- 17.5 -->
      <g transform="translate(714.894297 545.758438) scale(0.1 -0.1)">
       <use xlink:href="#DejaVuSans-31"/>
       <use xlink:href="#DejaVuSans-37" x="63.623047"/>
       <use xlink:href="#DejaVuSans-2e" x="127.246094"/>
       <use xlink:href="#DejaVuSans-35" x="159.033203"/>
      </g>
     </g>
    </g>
    <g id="xtick_18">
     <g id="line2d_46">
      <path d="M 816.59319 531.16 
L 816.59319 284.92 
" clip-path="url(#p4d1ddaecc1)" style="fill: none; stroke: #b0b0b0; stroke-width: 0.8; stroke-linecap: square"/>
     </g>
     <g id="line2d_47">
      <g>
       <use xlink:href="#ma25e3df065" x="816.59319" y="531.16" style="stroke: #000000; stroke-width: 0.8"/>
      </g>
     </g>
     <g id="text_24">
      <!-- 20.0 -->
      <g transform="translate(805.460378 545.758438) scale(0.1 -0.1)">
       <use xlink:href="#DejaVuSans-32"/>
       <use xlink:href="#DejaVuSans-30" x="63.623047"/>
       <use xlink:href="#DejaVuSans-2e" x="127.246094"/>
       <use xlink:href="#DejaVuSans-30" x="159.033203"/>
      </g>
     </g>
    </g>
    <g id="text_25">
     <!-- Time (s) -->
     <g transform="translate(430.115313 560.95625) scale(0.12 -0.12)">
      <defs>
       <path id="DejaVuSans-54" d="M -19 4666 
L 3928 4666 
L 3928 4134 
L 2272 4134 
L 2272 0 
L 1638 0 
L 1638 4134 
L -19 4134 
L -19 4666 
z
" transform="scale(0.015625)"/>
       <path id="DejaVuSans-6d" d="M 3328 2828 
Q 3544 3216 3844 3400 
Q 4144 3584 4550 3584 
Q 5097 3584 5394 3201 
Q 5691 2819 5691 2113 
L 5691 0 
L 5113 0 
L 5113 2094 
Q 5113 2597 4934 2840 
Q 4756 3084 4391 3084 
Q 3944 3084 3684 2787 
Q 3425 2491 3425 1978 
L 3425 0 
L 2847 0 
L 2847 2094 
Q 2847 2600 2669 2842 
Q 2491 3084 2119 3084 
Q 1678 3084 1418 2786 
Q 1159 2488 1159 1978 
L 1159 0 
L 581 0 
L 581 3500 
L 1159 3500 
L 1159 2956 
Q 1356 3278 1631 3431 
Q 1906 3584 2284 3584 
Q 2666 3584 2933 3390 
Q 3200 3197 3328 2828 
z
" transform="scale(0.015625)"/>
       <path id="DejaVuSans-65" d="M 3597 1894 
L 3597 1613 
L 953 1613 
Q 991 1019 1311 708 
Q 1631 397 2203 397 
Q 2534 397 2845 478 
Q 3156 559 3463 722 
L 3463 178 
Q 3153 47 2828 -22 
Q 2503 -91 2169 -91 
Q 1331 -91 842 396 
Q 353 884 353 1716 
Q 353 2575 817 3079 
Q 1281 3584 2069 3584 
Q 2775 3584 3186 3129 
Q 3597 2675 3597 1894 
z
M 3022 2063 
Q 3016 2534 2758 2815 
Q 2500 3097 2075 3097 
Q 1594 3097 1305 2825 
Q 1016 2553 972 2059 
L 3022 2063 
z
" transform="scale(0.015625)"/>
       <path id="DejaVuSans-73" d="M 2834 3397 
L 2834 2853 
Q 2591 2978 2328 3040 
Q 2066 3103 1784 3103 
Q 1356 3103 1142 2972 
Q 928 2841 928 2578 
Q 928 2378 1081 2264 
Q 1234 2150 1697 2047 
L 1894 2003 
Q 2506 1872 2764 1633 
Q 3022 1394 3022 966 
Q 3022 478 2636 193 
Q 2250 -91 1575 -91 
Q 1294 -91 989 -36 
Q 684 19 347 128 
L 347 722 
Q 666 556 975 473 
Q 1284 391 1588 391 
Q 1994 391 2212 530 
Q 2431 669 2431 922 
Q 2431 1156 2273 1281 
Q 2116 1406 1581 1522 
L 1381 1569 
Q 847 1681 609 1914 
Q 372 2147 372 2553 
Q 372 3047 722 3315 
Q 1072 3584 1716 3584 
Q 2034 3584 2315 3537 
Q 2597 3491 2834 3397 
z
" transform="scale(0.015625)"/>
      </defs>
      <use xlink:href="#DejaVuSans-54"/>
      <use xlink:href="#DejaVuSans-69" x="57.958984"/>
      <use xlink:href="#DejaVuSans-6d" x="85.742188"/>
      <use xlink:href="#DejaVuSans-65" x="183.154297"/>
      <use xlink:href="#DejaVuSans-20" x="244.677734"/>
      <use xlink:href="#DejaVuSans-28" x="276.464844"/>
      <use xlink:href="#DejaVuSans-73" x="315.478516"/>
      <use xlink:href="#DejaVuSans-29" x="367.578125"/>
     </g>
    </g>
   </g>
   <g id="matplotlib.axis_4">
    <g id="ytick_6">
     <g id="line2d_48">
      <path d="M 55.82 492.817624 
L 853.2 492.817624 
" clip-path="url(#p4d1ddaecc1)" style="fill: none; stroke: #b0b0b0; stroke-width: 0.8; stroke-linecap: square"/>
     </g>
     <g id="line2d_49">
      <g>
       <use xlink:href="#m8143ddbc20" x="55.82" y="492.817624" style="stroke: #000000; stroke-width: 0.8"/>
      </g>
     </g>
     <g id="text_26">
      <!-- −60 -->
      <g transform="translate(27.715313 496.616843) scale(0.1 -0.1)">
       <defs>
        <path id="DejaVuSans-36" d="M 2113 2584 
Q 1688 2584 1439 2293 
Q 1191 2003 1191 1497 
Q 1191 994 1439 701 
Q 1688 409 2113 409 
Q 2538 409 2786 701 
Q 3034 994 3034 1497 
Q 3034 2003 2786 2293 
Q 2538 2584 2113 2584 
z
M 3366 4563 
L 3366 3988 
Q 3128 4100 2886 4159 
Q 2644 4219 2406 4219 
Q 1781 4219 1451 3797 
Q 1122 3375 1075 2522 
Q 1259 2794 1537 2939 
Q 1816 3084 2150 3084 
Q 2853 3084 3261 2657 
Q 3669 2231 3669 1497 
Q 3669 778 3244 343 
Q 2819 -91 2113 -91 
Q 1303 -91 875 529 
Q 447 1150 447 2328 
Q 447 3434 972 4092 
Q 1497 4750 2381 4750 
Q 2619 4750 2861 4703 
Q 3103 4656 3366 4563 
z
" transform="scale(0.015625)"/>
       </defs>
       <use xlink:href="#DejaVuSans-2212"/>
       <use xlink:href="#DejaVuSans-36" x="83.789062"/>
       <use xlink:href="#DejaVuSans-30" x="147.412109"/>
      </g>
     </g>
    </g>
    <g id="ytick_7">
     <g id="line2d_50">
      <path d="M 55.82 447.906399 
L 853.2 447.906399 
" clip-path="url(#p4d1ddaecc1)" style="fill: none; stroke: #b0b0b0; stroke-width: 0.8; stroke-linecap: square"/>
     </g>
     <g id="line2d_51">
      <g>
       <use xlink:href="#m8143ddbc20" x="55.82" y="447.906399" style="stroke: #000000; stroke-width: 0.8"/>
      </g>
     </g>
     <g id="text_27">
      <!-- −40 -->
      <g transform="translate(27.715313 451.705618) scale(0.1 -0.1)">
       <defs>
        <path id="DejaVuSans-34" d="M 2419 4116 
L 825 1625 
L 2419 1625 
L 2419 4116 
z
M 2253 4666 
L 3047 4666 
L 3047 1625 
L 3713 1625 
L 3713 1100 
L 3047 1100 
L 3047 0 
L 2419 0 
L 2419 1100 
L 313 1100 
L 313 1709 
L 2253 4666 
z
" transform="scale(0.015625)"/>
       </defs>
       <use xlink:href="#DejaVuSans-2212"/>
       <use xlink:href="#DejaVuSans-34" x="83.789062"/>
       <use xlink:href="#DejaVuSans-30" x="147.412109"/>
      </g>
     </g>
    </g>
    <g id="ytick_8">
     <g id="line2d_52">
      <path d="M 55.82 402.995174 
L 853.2 402.995174 
" clip-path="url(#p4d1ddaecc1)" style="fill: none; stroke: #b0b0b0; stroke-width: 0.8; stroke-linecap: square"/>
     </g>
     <g id="line2d_53">
      <g>
       <use xlink:href="#m8143ddbc20" x="55.82" y="402.995174" style="stroke: #000000; stroke-width: 0.8"/>
      </g>
     </g>
     <g id="text_28">
      <!-- −20 -->
      <g transform="translate(27.715313 406.794393) scale(0.1 -0.1)">
       <use xlink:href="#DejaVuSans-2212"/>
       <use xlink:href="#DejaVuSans-32" x="83.789062"/>
       <use xlink:href="#DejaVuSans-30" x="147.412109"/>
      </g>
     </g>
    </g>
    <g id="ytick_9">
     <g id="line2d_54">
      <path d="M 55.82 358.083949 
L 853.2 358.083949 
" clip-path="url(#p4d1ddaecc1)" style="fill: none; stroke: #b0b0b0; stroke-width: 0.8; stroke-linecap: square"/>
     </g>
     <g id="line2d_55">
      <g>
       <use xlink:href="#m8143ddbc20" x="55.82" y="358.083949" style="stroke: #000000; stroke-width: 0.8"/>
      </g>
     </g>
     <g id="text_29">
      <!-- 0 -->
      <g transform="translate(42.4575 361.883168) scale(0.1 -0.1)">
       <use xlink:href="#DejaVuSans-30"/>
      </g>
     </g>
    </g>
    <g id="ytick_10">
     <g id="line2d_56">
      <path d="M 55.82 313.172724 
L 853.2 313.172724 
" clip-path="url(#p4d1ddaecc1)" style="fill: none; stroke: #b0b0b0; stroke-width: 0.8; stroke-linecap: square"/>
     </g>
     <g id="line2d_57">
      <g>
       <use xlink:href="#m8143ddbc20" x="55.82" y="313.172724" style="stroke: #000000; stroke-width: 0.8"/>
      </g>
     </g>
     <g id="text_30">
      <!-- 20 -->
      <g transform="translate(36.095 316.971942) scale(0.1 -0.1)">
       <use xlink:href="#DejaVuSans-32"/>
       <use xlink:href="#DejaVuSans-30" x="63.623047"/>
      </g>
     </g>
    </g>
    <g id="text_31">
     <!-- Input (Left) -->
     <g transform="translate(21.219688 441.454375) rotate(-90) scale(0.12 -0.12)">
      <defs>
       <path id="DejaVuSans-4c" d="M 628 4666 
L 1259 4666 
L 1259 531 
L 3531 531 
L 3531 0 
L 628 0 
L 628 4666 
z
" transform="scale(0.015625)"/>
       <path id="DejaVuSans-66" d="M 2375 4863 
L 2375 4384 
L 1825 4384 
Q 1516 4384 1395 4259 
Q 1275 4134 1275 3809 
L 1275 3500 
L 2222 3500 
L 2222 3053 
L 1275 3053 
L 1275 0 
L 697 0 
L 697 3053 
L 147 3053 
L 147 3500 
L 697 3500 
L 697 3744 
Q 697 4328 969 4595 
Q 1241 4863 1831 4863 
L 2375 4863 
z
" transform="scale(0.015625)"/>
      </defs>
      <use xlink:href="#DejaVuSans-49"/>
      <use xlink:href="#DejaVuSans-6e" x="29.492188"/>
      <use xlink:href="#DejaVuSans-70" x="92.871094"/>
      <use xlink:href="#DejaVuSans-75" x="156.347656"/>
      <use xlink:href="#DejaVuSans-74" x="219.726562"/>
      <use xlink:href="#DejaVuSans-20" x="258.935547"/>
      <use xlink:href="#DejaVuSans-28" x="290.722656"/>
      <use xlink:href="#DejaVuSans-4c" x="329.736328"/>
      <use xlink:href="#DejaVuSans-65" x="383.699219"/>
      <use xlink:href="#DejaVuSans-66" x="445.222656"/>
      <use xlink:href="#DejaVuSans-74" x="478.677734"/>
      <use xlink:href="#DejaVuSans-29" x="517.886719"/>
     </g>
    </g>
   </g>
   <g id="line2d_58">
    <path d="M 92.064545 358.083949 
L 182.630626 358.083949 
L 182.99289 306.582035 
L 183.355155 334.376547 
L 184.441948 341.272925 
L 184.804212 338.526921 
L 185.166476 332.756311 
L 185.528741 334.790412 
L 186.253269 341.944157 
L 186.977798 350.154666 
L 188.064591 358.374916 
L 189.151384 365.418409 
L 190.238177 371.439309 
L 190.600441 372.626823 
L 190.962705 372.99588 
L 191.687234 369.998857 
L 192.049498 370.969961 
L 192.411763 372.511584 
L 192.774027 373.539106 
L 193.136291 374.218629 
L 193.498556 374.624309 
L 193.86082 374.636893 
L 194.223084 374.201776 
L 194.585349 373.265291 
L 195.309877 370.180184 
L 197.845728 357.114364 
L 198.932521 353.279244 
L 199.657049 351.431575 
L 200.381578 350.244379 
L 201.468371 349.072003 
L 201.830635 345.191039 
L 202.192899 343.675158 
L 202.555164 343.270699 
L 202.917428 343.202322 
L 203.279692 343.354088 
L 203.641957 343.72831 
L 204.004221 344.330559 
L 204.72875 346.253408 
L 205.453278 349.346052 
L 207.626864 359.302509 
L 208.351393 353.236754 
L 209.80045 353.170846 
L 210.524979 353.090762 
L 210.887243 506.552895 
L 211.249508 373.908823 
L 211.611772 371.877742 
L 211.974036 371.554 
L 212.3363 370.843865 
L 212.698565 369.821131 
L 213.060829 369.195162 
L 213.423093 369.103363 
L 213.785358 369.159948 
L 214.147622 369.387153 
L 214.872151 370.012351 
L 215.596679 369.984896 
L 216.321208 369.893898 
L 218.13253 369.905854 
L 218.857058 369.600668 
L 219.219323 369.312493 
L 219.581587 368.798981 
L 219.943851 366.410244 
L 221.392909 352.644012 
L 222.479702 344.794702 
L 223.20423 341.125022 
L 223.566494 340.054287 
L 223.928759 339.482209 
L 224.291023 339.525582 
L 224.653287 340.078871 
L 225.015552 341.089446 
L 225.74008 343.96072 
L 226.102345 342.332095 
L 226.464609 331.030249 
L 226.826873 330.940883 
L 227.551402 335.144177 
L 228.275931 341.949529 
L 229.000459 349.786908 
L 230.087252 357.673358 
L 231.53631 366.59422 
L 232.985367 374.06756 
L 233.709896 375.425872 
L 234.07216 375.03229 
L 234.434424 373.129666 
L 234.796688 371.93391 
L 235.521217 374.318306 
L 235.883481 374.620461 
L 236.245746 374.398784 
L 236.60801 373.596103 
L 237.332539 371.050487 
L 238.057067 367.60272 
L 239.506125 360.035135 
L 240.955182 354.243774 
L 241.679711 352.143304 
L 242.404239 350.606977 
L 243.128768 349.644932 
L 243.853297 349.195294 
L 244.577825 349.181564 
L 244.94009 346.254551 
L 245.302354 344.445094 
L 245.664618 344.232908 
L 246.026882 344.449689 
L 246.389147 344.890532 
L 247.113675 346.431633 
L 247.838204 348.893224 
L 250.374054 360.046731 
L 250.736319 356.048484 
L 251.098583 353.857705 
L 252.185376 353.838525 
L 253.996698 353.630647 
L 254.358962 507.069447 
L 254.721226 373.981205 
L 255.083491 372.233563 
L 255.445755 372.007151 
L 256.532548 370.854139 
L 256.894812 371.085848 
L 257.257076 371.860788 
L 257.619341 373.321944 
L 259.068398 381.679572 
L 259.430662 382.800005 
L 260.155191 383.750384 
L 260.517455 383.93503 
L 260.87972 383.90277 
L 261.241984 383.690247 
L 261.966513 382.835553 
L 263.053306 380.156168 
L 263.41557 379.010127 
L 263.777834 377.10879 
L 264.140099 373.927916 
L 265.95142 353.753087 
L 267.400477 341.250488 
L 268.125006 336.723641 
L 268.849535 333.258107 
L 269.574063 330.974641 
L 269.936328 330.582176 
L 270.298592 330.42411 
L 270.660856 330.625946 
L 271.023121 331.200768 
L 271.385385 332.158298 
L 272.109914 335.292409 
L 274.2835 352.433044 
L 275.732557 360.325362 
L 276.094821 361.722044 
L 277.543879 365.521144 
L 278.268407 366.536318 
L 279.3552 367.422976 
L 279.717464 367.635949 
L 280.441993 367.562592 
L 281.166522 367.299585 
L 281.528786 367.39567 
L 282.253315 366.825547 
L 282.615579 366.150608 
L 283.340108 365.167285 
L 284.426901 363.379267 
L 284.789165 363.153376 
L 285.513694 367.250101 
L 285.875958 367.94413 
L 286.238222 367.80068 
L 286.600487 366.01473 
L 287.325015 361.16131 
L 287.68728 360.370705 
L 288.049544 363.541364 
L 288.411808 358.663809 
L 288.774073 349.387216 
L 289.136337 348.143413 
L 289.498601 347.32373 
L 290.22313 346.237126 
L 290.585394 346.152797 
L 291.309923 345.525307 
L 291.672187 345.448089 
L 292.396716 345.898071 
L 292.75898 346.188214 
L 293.483509 347.646049 
L 293.845773 519.967273 
L 294.208037 370.512684 
L 294.570302 365.001944 
L 295.29483 366.938148 
L 295.657095 366.915534 
L 296.019359 365.987861 
L 296.743888 362.486985 
L 297.106152 360.720492 
L 297.468416 361.52824 
L 297.830681 364.014203 
L 298.555209 364.660884 
L 298.917474 364.826362 
L 299.279738 364.83005 
L 299.642002 364.649642 
L 301.453324 362.803261 
L 302.177852 361.304704 
L 302.540117 361.212342 
L 302.902381 362.637885 
L 303.264645 361.268661 
L 303.989174 354.106392 
L 305.800496 335.839637 
L 306.16276 333.038217 
L 306.887289 329.759071 
L 307.249553 328.700039 
L 307.611817 328.006309 
L 307.974082 327.716942 
L 308.336346 327.890677 
L 308.69861 328.538279 
L 309.060875 329.557416 
L 309.785403 332.789069 
L 310.509932 337.248147 
L 311.23446 343.268003 
L 312.683518 355.161885 
L 313.045782 356.426894 
L 313.408046 356.504562 
L 314.857104 356.273981 
L 315.581632 356.698408 
L 316.306161 357.338407 
L 316.668425 357.844834 
L 317.755218 360.289988 
L 318.479747 361.22269 
L 318.842011 361.456735 
L 319.204276 361.530121 
L 319.56654 361.323675 
L 320.291069 360.405894 
L 320.653333 359.823317 
L 321.377862 372.827392 
L 321.740126 375.303501 
L 322.10239 374.942305 
L 322.826919 369.515194 
L 323.913712 361.080045 
L 324.63824 360.315414 
L 325.725033 356.960162 
L 326.087298 356.196875 
L 326.449562 356.261404 
L 327.174091 357.406982 
L 327.898619 357.988741 
L 328.260884 358.120404 
L 328.623148 356.424455 
L 328.985412 346.510223 
L 329.347677 342.688702 
L 329.709941 341.885508 
L 330.072205 341.493083 
L 330.796734 336.785696 
L 331.158998 336.175979 
L 331.521263 336.967208 
L 332.245791 340.80716 
L 332.97032 344.508678 
L 334.057113 349.125507 
L 335.143906 353.363964 
L 335.50617 352.259889 
L 335.868434 348.217872 
L 336.955227 348.580323 
L 338.766549 348.833684 
L 339.491078 349.209225 
L 342.389192 351.13644 
L 343.475985 351.706852 
L 344.200514 351.917581 
L 344.925042 351.92836 
L 345.649571 351.726807 
L 346.736364 351.119921 
L 347.823157 350.485844 
L 348.90995 350.045313 
L 349.634479 349.966776 
L 349.996743 503.155862 
L 350.359007 369.005193 
L 350.721272 369.782973 
L 351.083536 372.132659 
L 351.4458 373.395636 
L 351.808065 373.843409 
L 352.170329 374.025225 
L 353.619386 375.458859 
L 353.981651 375.391745 
L 354.343915 375.145873 
L 354.706179 374.694498 
L 355.068444 373.828356 
L 357.242029 367.0976 
L 357.604294 367.105651 
L 357.966558 368.908727 
L 358.328822 369.425868 
L 358.691087 368.866414 
L 359.053351 368.008508 
L 360.140144 364.025337 
L 361.226937 356.299519 
L 361.589201 353.511896 
L 362.31373 347.116833 
L 363.762787 337.038785 
L 364.84958 331.870533 
L 365.574109 329.333316 
L 366.298637 327.760703 
L 366.660902 327.339584 
L 367.023166 327.4161 
L 367.38543 327.640852 
L 367.747695 328.144983 
L 368.109959 328.927935 
L 368.834488 332.486778 
L 369.921281 340.058719 
L 371.008074 350.595981 
L 372.094867 359.661955 
L 372.819395 363.859755 
L 373.543924 366.520039 
L 373.906188 366.384862 
L 374.268453 365.421793 
L 374.992981 362.740487 
L 375.355246 361.88717 
L 375.71751 361.652256 
L 376.079774 362.191957 
L 377.528831 366.286515 
L 378.25336 367.585378 
L 379.340153 368.235837 
L 379.702417 368.096346 
L 381.151475 365.525187 
L 381.513739 364.588717 
L 382.238268 361.688135 
L 384.049589 355.376207 
L 385.136382 352.177132 
L 385.498647 296.112727 
L 385.860911 373.486542 
L 386.58544 374.85737 
L 386.947704 316.683204 
L 387.309968 381.141335 
L 387.672233 382.932053 
L 389.12129 385.778765 
L 389.483554 386.009793 
L 389.845818 385.902427 
L 390.208083 385.418854 
L 390.570347 384.580837 
L 391.294876 382.038437 
L 393.106197 372.717187 
L 393.468462 370.386201 
L 393.830726 367.247781 
L 394.555255 353.787993 
L 395.642048 334.44725 
L 396.366576 324.149407 
L 397.091105 317.012341 
L 397.453369 314.558608 
L 397.815634 312.920392 
L 398.177898 312.309227 
L 398.540162 312.514598 
L 398.902427 313.601734 
L 399.264691 315.603225 
L 399.626955 318.560523 
L 399.989219 322.623862 
L 401.800541 351.078061 
L 402.887334 362.953026 
L 403.974127 371.636922 
L 404.698656 375.760571 
L 405.423184 378.112507 
L 405.785449 378.646451 
L 406.147713 378.729501 
L 406.509977 378.289525 
L 407.234506 375.661865 
L 407.959035 371.062727 
L 408.683563 364.105824 
L 409.408092 356.918259 
L 410.494885 348.310945 
L 411.219413 343.473803 
L 411.943942 339.976337 
L 412.668471 337.608687 
L 413.030735 336.889847 
L 413.392999 336.560811 
L 413.755264 336.555634 
L 414.117528 336.898014 
L 414.479792 337.628959 
L 414.842057 338.762576 
L 415.566585 342.416712 
L 416.291114 347.292906 
L 417.015643 352.390304 
L 417.740171 356.940092 
L 418.102436 355.484749 
L 418.4647 349.624112 
L 419.551493 349.041733 
L 420.638286 348.364577 
L 421.725079 348.044753 
L 423.5364 347.776073 
L 430.419423 347.189568 
L 436.94018 345.943904 
L 439.113766 345.878742 
L 442.011881 346.040532 
L 446.359053 346.309176 
L 448.894903 346.241791 
L 452.155282 345.895255 
L 460.125097 344.932545 
L 467.008119 344.089447 
L 473.891141 343.250366 
L 479.325106 342.862481 
L 490.5553 342.11727 
L 501.785494 341.080336 
L 518.449653 339.495459 
L 547.793063 336.980696 
L 571.702508 334.920302 
L 724.940317 322.020934 
L 816.955455 314.569983 
L 816.955455 314.569983 
" clip-path="url(#p4d1ddaecc1)" style="fill: none; stroke: #0000ff; stroke-linecap: square"/>
   </g>
   <g id="patch_8">
    <path d="M 55.82 531.16 
L 55.82 284.92 
" style="fill: none; stroke: #000000; stroke-width: 0.8; stroke-linejoin: miter; stroke-linecap: square"/>
   </g>
   <g id="patch_9">
    <path d="M 853.2 531.16 
L 853.2 284.92 
" style="fill: none; stroke: #000000; stroke-width: 0.8; stroke-linejoin: miter; stroke-linecap: square"/>
   </g>
   <g id="patch_10">
    <path d="M 55.82 531.16 
L 853.2 531.16 
" style="fill: none; stroke: #000000; stroke-width: 0.8; stroke-linejoin: miter; stroke-linecap: square"/>
   </g>
   <g id="patch_11">
    <path d="M 55.82 284.92 
L 853.2 284.92 
" style="fill: none; stroke: #000000; stroke-width: 0.8; stroke-linejoin: miter; stroke-linecap: square"/>
   </g>
  </g>
 </g>
 <defs>
  <clipPath id="p500d4384b7">
   <rect x="55.82" y="10.8" width="797.38" height="246.24"/>
  </clipPath>
  <clipPath id="p4d1ddaecc1">
   <rect x="55.82" y="284.92" width="797.38" height="246.24"/>
  </clipPath>
 </defs>
</svg>
