<?xml version="1.0" encoding="utf-8" standalone="no"?>
<!DOCTYPE svg PUBLIC "-//W3C//DTD SVG 1.1//EN"
  "http://www.w3.org/Graphics/SVG/1.1/DTD/svg11.dtd">
<svg xmlns:xlink="http://www.w3.org/1999/xlink" width="864pt" height="576pt" viewBox="0 0 864 576" xmlns="http://www.w3.org/2000/svg" version="1.1">
 <metadata>
  <rdf:RDF xmlns:dc="http://purl.org/dc/elements/1.1/" xmlns:cc="http://creativecommons.org/ns#" xmlns:rdf="http://www.w3.org/1999/02/22-rdf-syntax-ns#">
   <cc:Work>
    <dc:type rdf:resource="http://purl.org/dc/dcmitype/StillImage"/>
    <dc:date>2025-11-25T18:32:02.902399</dc:date>
    <dc:format>image/svg+xml</dc:format>
    <dc:creator>
     <cc:Agent>
      <dc:title>Matplotlib v3.9.4, https://matplotlib.org/</dc:title>
     </cc:Agent>
    </dc:creator>
   </cc:Work>
  </rdf:RDF>
 </metadata>
 <defs>
  <style type="text/css">*{stroke-linejoin: round; stroke-linecap: butt}</style>
 </defs>
 <g id="figure_1">
  <g id="patch_1">
   <path d="M 0 576 
L 864 576 
L 864 0 
L 0 0 
z
" style="fill: #ffffff"/>
  </g>
  <g id="axes_1">
   <g id="patch_2">
    <path d="M 62.12 257.04 
L 853.2 257.04 
L 853.2 10.8 
L 62.12 10.8 
z
" style="fill: #ffffff"/>
   </g>
   <g id="matplotlib.axis_1">
    <g id="xtick_1">
     <g id="line2d_1">
      <path d="M 98.078182 257.04 
L 98.078182 10.8 
" clip-path="url(#p48674c0f16)" style="fill: none; stroke: #b0b0b0; stroke-width: 0.8; stroke-linecap: square"/>
     </g>
     <g id="line2d_2">
      <defs>
       <path id="ma872e67b4a" d="M 0 0 
L 0 3.5 
" style="stroke: #000000; stroke-width: 0.8"/>
      </defs>
      <g>
       <use xlink:href="#ma872e67b4a" x="98.078182" y="257.04" style="stroke: #000000; stroke-width: 0.8"/>
      </g>
     </g>
     <g id="text_1">
      <!-- 0.0 -->
      <g transform="translate(90.126619 271.638438) scale(0.1 -0.1)">
       <defs>
        <path id="DejaVuSans-30" d="M 2034 4250 
Q 1547 4250 1301 3770 
Q 1056 3291 1056 2328 
Q 1056 1369 1301 889 
Q 1547 409 2034 409 
Q 2525 409 2770 889 
Q 3016 1369 3016 2328 
Q 3016 3291 2770 3770 
Q 2525 4250 2034 4250 
z
M 2034 4750 
Q 2819 4750 3233 4129 
Q 3647 3509 3647 2328 
Q 3647 1150 3233 529 
Q 2819 -91 2034 -91 
Q 1250 -91 836 529 
Q 422 1150 422 2328 
Q 422 3509 836 4129 
Q 1250 4750 2034 4750 
z
" transform="scale(0.015625)"/>
        <path id="DejaVuSans-2e" d="M 684 794 
L 1344 794 
L 1344 0 
L 684 0 
L 684 794 
z
" transform="scale(0.015625)"/>
       </defs>
       <use xlink:href="#DejaVuSans-30"/>
       <use xlink:href="#DejaVuSans-2e" x="63.623047"/>
       <use xlink:href="#DejaVuSans-30" x="95.410156"/>
      </g>
     </g>
    </g>
    <g id="xtick_2">
     <g id="line2d_3">
      <path d="M 187.928711 257.04 
L 187.928711 10.8 
" clip-path="url(#p48674c0f16)" style="fill: none; stroke: #b0b0b0; stroke-width: 0.8; stroke-linecap: square"/>
     </g>
     <g id="line2d_4">
      <g>
       <use xlink:href="#ma872e67b4a" x="187.928711" y="257.04" style="stroke: #000000; stroke-width: 0.8"/>
      </g>
     </g>
     <g id="text_2">
      <!-- 2.5 -->
      <g transform="translate(179.977149 271.638438) scale(0.1 -0.1)">
       <defs>
        <path id="DejaVuSans-32" d="M 1228 531 
L 3431 531 
L 3431 0 
L 469 0 
L 469 531 
Q 828 903 1448 1529 
Q 2069 2156 2228 2338 
Q 2531 2678 2651 2914 
Q 2772 3150 2772 3378 
Q 2772 3750 2511 3984 
Q 2250 4219 1831 4219 
Q 1534 4219 1204 4116 
Q 875 4013 500 3803 
L 500 4441 
Q 881 4594 1212 4672 
Q 1544 4750 1819 4750 
Q 2544 4750 2975 4387 
Q 3406 4025 3406 3419 
Q 3406 3131 3298 2873 
Q 3191 2616 2906 2266 
Q 2828 2175 2409 1742 
Q 1991 1309 1228 531 
z
" transform="scale(0.015625)"/>
        <path id="DejaVuSans-35" d="M 691 4666 
L 3169 4666 
L 3169 4134 
L 1269 4134 
L 1269 2991 
Q 1406 3038 1543 3061 
Q 1681 3084 1819 3084 
Q 2600 3084 3056 2656 
Q 3513 2228 3513 1497 
Q 3513 744 3044 326 
Q 2575 -91 1722 -91 
Q 1428 -91 1123 -41 
Q 819 9 494 109 
L 494 744 
Q 775 591 1075 516 
Q 1375 441 1709 441 
Q 2250 441 2565 725 
Q 2881 1009 2881 1497 
Q 2881 1984 2565 2268 
Q 2250 2553 1709 2553 
Q 1456 2553 1204 2497 
Q 953 2441 691 2322 
L 691 4666 
z
" transform="scale(0.015625)"/>
       </defs>
       <use xlink:href="#DejaVuSans-32"/>
       <use xlink:href="#DejaVuSans-2e" x="63.623047"/>
       <use xlink:href="#DejaVuSans-35" x="95.410156"/>
      </g>
     </g>
    </g>
    <g id="xtick_3">
     <g id="line2d_5">
      <path d="M 277.77924 257.04 
L 277.77924 10.8 
" clip-path="url(#p48674c0f16)" style="fill: none; stroke: #b0b0b0; stroke-width: 0.8; stroke-linecap: square"/>
     </g>
     <g id="line2d_6">
      <g>
       <use xlink:href="#ma872e67b4a" x="277.77924" y="257.04" style="stroke: #000000; stroke-width: 0.8"/>
      </g>
     </g>
     <g id="text_3">
      <!-- 5.0 -->
      <g transform="translate(269.827678 271.638438) scale(0.1 -0.1)">
       <use xlink:href="#DejaVuSans-35"/>
       <use xlink:href="#DejaVuSans-2e" x="63.623047"/>
       <use xlink:href="#DejaVuSans-30" x="95.410156"/>
      </g>
     </g>
    </g>
    <g id="xtick_4">
     <g id="line2d_7">
      <path d="M 367.62977 257.04 
L 367.62977 10.8 
" clip-path="url(#p48674c0f16)" style="fill: none; stroke: #b0b0b0; stroke-width: 0.8; stroke-linecap: square"/>
     </g>
     <g id="line2d_8">
      <g>
       <use xlink:href="#ma872e67b4a" x="367.62977" y="257.04" style="stroke: #000000; stroke-width: 0.8"/>
      </g>
     </g>
     <g id="text_4">
      <!-- 7.5 -->
      <g transform="translate(359.678207 271.638438) scale(0.1 -0.1)">
       <defs>
        <path id="DejaVuSans-37" d="M 525 4666 
L 3525 4666 
L 3525 4397 
L 1831 0 
L 1172 0 
L 2766 4134 
L 525 4134 
L 525 4666 
z
" transform="scale(0.015625)"/>
       </defs>
       <use xlink:href="#DejaVuSans-37"/>
       <use xlink:href="#DejaVuSans-2e" x="63.623047"/>
       <use xlink:href="#DejaVuSans-35" x="95.410156"/>
      </g>
     </g>
    </g>
    <g id="xtick_5">
     <g id="line2d_9">
      <path d="M 457.480299 257.04 
L 457.480299 10.8 
" clip-path="url(#p48674c0f16)" style="fill: none; stroke: #b0b0b0; stroke-width: 0.8; stroke-linecap: square"/>
     </g>
     <g id="line2d_10">
      <g>
       <use xlink:href="#ma872e67b4a" x="457.480299" y="257.04" style="stroke: #000000; stroke-width: 0.8"/>
      </g>
     </g>
     <g id="text_5">
      <!-- 10.0 -->
      <g transform="translate(446.347486 271.638438) scale(0.1 -0.1)">
       <defs>
        <path id="DejaVuSans-31" d="M 794 531 
L 1825 531 
L 1825 4091 
L 703 3866 
L 703 4441 
L 1819 4666 
L 2450 4666 
L 2450 531 
L 3481 531 
L 3481 0 
L 794 0 
L 794 531 
z
" transform="scale(0.015625)"/>
       </defs>
       <use xlink:href="#DejaVuSans-31"/>
       <use xlink:href="#DejaVuSans-30" x="63.623047"/>
       <use xlink:href="#DejaVuSans-2e" x="127.246094"/>
       <use xlink:href="#DejaVuSans-30" x="159.033203"/>
      </g>
     </g>
    </g>
    <g id="xtick_6">
     <g id="line2d_11">
      <path d="M 547.330828 257.04 
L 547.330828 10.8 
" clip-path="url(#p48674c0f16)" style="fill: none; stroke: #b0b0b0; stroke-width: 0.8; stroke-linecap: square"/>
     </g>
     <g id="line2d_12">
      <g>
       <use xlink:href="#ma872e67b4a" x="547.330828" y="257.04" style="stroke: #000000; stroke-width: 0.8"/>
      </g>
     </g>
     <g id="text_6">
      <!-- 12.5 -->
      <g transform="translate(536.198016 271.638438) scale(0.1 -0.1)">
       <use xlink:href="#DejaVuSans-31"/>
       <use xlink:href="#DejaVuSans-32" x="63.623047"/>
       <use xlink:href="#DejaVuSans-2e" x="127.246094"/>
       <use xlink:href="#DejaVuSans-35" x="159.033203"/>
      </g>
     </g>
    </g>
    <g id="xtick_7">
     <g id="line2d_13">
      <path d="M 637.181358 257.04 
L 637.181358 10.8 
" clip-path="url(#p48674c0f16)" style="fill: none; stroke: #b0b0b0; stroke-width: 0.8; stroke-linecap: square"/>
     </g>
     <g id="line2d_14">
      <g>
       <use xlink:href="#ma872e67b4a" x="637.181358" y="257.04" style="stroke: #000000; stroke-width: 0.8"/>
      </g>
     </g>
     <g id="text_7">
      <!-- 15.0 -->
      <g transform="translate(626.048545 271.638438) scale(0.1 -0.1)">
       <use xlink:href="#DejaVuSans-31"/>
       <use xlink:href="#DejaVuSans-35" x="63.623047"/>
       <use xlink:href="#DejaVuSans-2e" x="127.246094"/>
       <use xlink:href="#DejaVuSans-30" x="159.033203"/>
      </g>
     </g>
    </g>
    <g id="xtick_8">
     <g id="line2d_15">
      <path d="M 727.031887 257.04 
L 727.031887 10.8 
" clip-path="url(#p48674c0f16)" style="fill: none; stroke: #b0b0b0; stroke-width: 0.8; stroke-linecap: square"/>
     </g>
     <g id="line2d_16">
      <g>
       <use xlink:href="#ma872e67b4a" x="727.031887" y="257.04" style="stroke: #000000; stroke-width: 0.8"/>
      </g>
     </g>
     <g id="text_8">
      <!-- 17.5 -->
      <g transform="translate(715.899074 271.638438) scale(0.1 -0.1)">
       <use xlink:href="#DejaVuSans-31"/>
       <use xlink:href="#DejaVuSans-37" x="63.623047"/>
       <use xlink:href="#DejaVuSans-2e" x="127.246094"/>
       <use xlink:href="#DejaVuSans-35" x="159.033203"/>
      </g>
     </g>
    </g>
    <g id="xtick_9">
     <g id="line2d_17">
      <path d="M 816.882416 257.04 
L 816.882416 10.8 
" clip-path="url(#p48674c0f16)" style="fill: none; stroke: #b0b0b0; stroke-width: 0.8; stroke-linecap: square"/>
     </g>
     <g id="line2d_18">
      <g>
       <use xlink:href="#ma872e67b4a" x="816.882416" y="257.04" style="stroke: #000000; stroke-width: 0.8"/>
      </g>
     </g>
     <g id="text_9">
      <!-- 20.0 -->
      <g transform="translate(805.749604 271.638438) scale(0.1 -0.1)">
       <use xlink:href="#DejaVuSans-32"/>
       <use xlink:href="#DejaVuSans-30" x="63.623047"/>
       <use xlink:href="#DejaVuSans-2e" x="127.246094"/>
       <use xlink:href="#DejaVuSans-30" x="159.033203"/>
      </g>
     </g>
    </g>
   </g>
   <g id="matplotlib.axis_2">
    <g id="ytick_1">
     <g id="line2d_19">
      <path d="M 62.12 256.314565 
L 853.2 256.314565 
" clip-path="url(#p48674c0f16)" style="fill: none; stroke: #b0b0b0; stroke-width: 0.8; stroke-linecap: square"/>
     </g>
     <g id="line2d_20">
      <defs>
       <path id="m976ad8cef0" d="M 0 0 
L -3.5 0 
" style="stroke: #000000; stroke-width: 0.8"/>
      </defs>
      <g>
       <use xlink:href="#m976ad8cef0" x="62.12" y="256.314565" style="stroke: #000000; stroke-width: 0.8"/>
      </g>
     </g>
     <g id="text_10">
      <!-- −80 -->
      <g transform="translate(34.015312 260.113783) scale(0.1 -0.1)">
       <defs>
        <path id="DejaVuSans-2212" d="M 678 2272 
L 4684 2272 
L 4684 1741 
L 678 1741 
L 678 2272 
z
" transform="scale(0.015625)"/>
        <path id="DejaVuSans-38" d="M 2034 2216 
Q 1584 2216 1326 1975 
Q 1069 1734 1069 1313 
Q 1069 891 1326 650 
Q 1584 409 2034 409 
Q 2484 409 2743 651 
Q 3003 894 3003 1313 
Q 3003 1734 2745 1975 
Q 2488 2216 2034 2216 
z
M 1403 2484 
Q 997 2584 770 2862 
Q 544 3141 544 3541 
Q 544 4100 942 4425 
Q 1341 4750 2034 4750 
Q 2731 4750 3128 4425 
Q 3525 4100 3525 3541 
Q 3525 3141 3298 2862 
Q 3072 2584 2669 2484 
Q 3125 2378 3379 2068 
Q 3634 1759 3634 1313 
Q 3634 634 3220 271 
Q 2806 -91 2034 -91 
Q 1263 -91 848 271 
Q 434 634 434 1313 
Q 434 1759 690 2068 
Q 947 2378 1403 2484 
z
M 1172 3481 
Q 1172 3119 1398 2916 
Q 1625 2713 2034 2713 
Q 2441 2713 2670 2916 
Q 2900 3119 2900 3481 
Q 2900 3844 2670 4047 
Q 2441 4250 2034 4250 
Q 1625 4250 1398 4047 
Q 1172 3844 1172 3481 
z
" transform="scale(0.015625)"/>
       </defs>
       <use xlink:href="#DejaVuSans-2212"/>
       <use xlink:href="#DejaVuSans-38" x="83.789062"/>
       <use xlink:href="#DejaVuSans-30" x="147.412109"/>
      </g>
     </g>
    </g>
    <g id="ytick_2">
     <g id="line2d_21">
      <path d="M 62.12 227.458987 
L 853.2 227.458987 
" clip-path="url(#p48674c0f16)" style="fill: none; stroke: #b0b0b0; stroke-width: 0.8; stroke-linecap: square"/>
     </g>
     <g id="line2d_22">
      <g>
       <use xlink:href="#m976ad8cef0" x="62.12" y="227.458987" style="stroke: #000000; stroke-width: 0.8"/>
      </g>
     </g>
     <g id="text_11">
      <!-- −60 -->
      <g transform="translate(34.015312 231.258206) scale(0.1 -0.1)">
       <defs>
        <path id="DejaVuSans-36" d="M 2113 2584 
Q 1688 2584 1439 2293 
Q 1191 2003 1191 1497 
Q 1191 994 1439 701 
Q 1688 409 2113 409 
Q 2538 409 2786 701 
Q 3034 994 3034 1497 
Q 3034 2003 2786 2293 
Q 2538 2584 2113 2584 
z
M 3366 4563 
L 3366 3988 
Q 3128 4100 2886 4159 
Q 2644 4219 2406 4219 
Q 1781 4219 1451 3797 
Q 1122 3375 1075 2522 
Q 1259 2794 1537 2939 
Q 1816 3084 2150 3084 
Q 2853 3084 3261 2657 
Q 3669 2231 3669 1497 
Q 3669 778 3244 343 
Q 2819 -91 2113 -91 
Q 1303 -91 875 529 
Q 447 1150 447 2328 
Q 447 3434 972 4092 
Q 1497 4750 2381 4750 
Q 2619 4750 2861 4703 
Q 3103 4656 3366 4563 
z
" transform="scale(0.015625)"/>
       </defs>
       <use xlink:href="#DejaVuSans-2212"/>
       <use xlink:href="#DejaVuSans-36" x="83.789062"/>
       <use xlink:href="#DejaVuSans-30" x="147.412109"/>
      </g>
     </g>
    </g>
    <g id="ytick_3">
     <g id="line2d_23">
      <path d="M 62.12 198.60341 
L 853.2 198.60341 
" clip-path="url(#p48674c0f16)" style="fill: none; stroke: #b0b0b0; stroke-width: 0.8; stroke-linecap: square"/>
     </g>
     <g id="line2d_24">
      <g>
       <use xlink:href="#m976ad8cef0" x="62.12" y="198.60341" style="stroke: #000000; stroke-width: 0.8"/>
      </g>
     </g>
     <g id="text_12">
      <!-- −40 -->
      <g transform="translate(34.015312 202.402629) scale(0.1 -0.1)">
       <defs>
        <path id="DejaVuSans-34" d="M 2419 4116 
L 825 1625 
L 2419 1625 
L 2419 4116 
z
M 2253 4666 
L 3047 4666 
L 3047 1625 
L 3713 1625 
L 3713 1100 
L 3047 1100 
L 3047 0 
L 2419 0 
L 2419 1100 
L 313 1100 
L 313 1709 
L 2253 4666 
z
" transform="scale(0.015625)"/>
       </defs>
       <use xlink:href="#DejaVuSans-2212"/>
       <use xlink:href="#DejaVuSans-34" x="83.789062"/>
       <use xlink:href="#DejaVuSans-30" x="147.412109"/>
      </g>
     </g>
    </g>
    <g id="ytick_4">
     <g id="line2d_25">
      <path d="M 62.12 169.747833 
L 853.2 169.747833 
" clip-path="url(#p48674c0f16)" style="fill: none; stroke: #b0b0b0; stroke-width: 0.8; stroke-linecap: square"/>
     </g>
     <g id="line2d_26">
      <g>
       <use xlink:href="#m976ad8cef0" x="62.12" y="169.747833" style="stroke: #000000; stroke-width: 0.8"/>
      </g>
     </g>
     <g id="text_13">
      <!-- −20 -->
      <g transform="translate(34.015312 173.547051) scale(0.1 -0.1)">
       <use xlink:href="#DejaVuSans-2212"/>
       <use xlink:href="#DejaVuSans-32" x="83.789062"/>
       <use xlink:href="#DejaVuSans-30" x="147.412109"/>
      </g>
     </g>
    </g>
    <g id="ytick_5">
     <g id="line2d_27">
      <path d="M 62.12 140.892255 
L 853.2 140.892255 
" clip-path="url(#p48674c0f16)" style="fill: none; stroke: #b0b0b0; stroke-width: 0.8; stroke-linecap: square"/>
     </g>
     <g id="line2d_28">
      <g>
       <use xlink:href="#m976ad8cef0" x="62.12" y="140.892255" style="stroke: #000000; stroke-width: 0.8"/>
      </g>
     </g>
     <g id="text_14">
      <!-- 0 -->
      <g transform="translate(48.7575 144.691474) scale(0.1 -0.1)">
       <use xlink:href="#DejaVuSans-30"/>
      </g>
     </g>
    </g>
    <g id="ytick_6">
     <g id="line2d_29">
      <path d="M 62.12 112.036678 
L 853.2 112.036678 
" clip-path="url(#p48674c0f16)" style="fill: none; stroke: #b0b0b0; stroke-width: 0.8; stroke-linecap: square"/>
     </g>
     <g id="line2d_30">
      <g>
       <use xlink:href="#m976ad8cef0" x="62.12" y="112.036678" style="stroke: #000000; stroke-width: 0.8"/>
      </g>
     </g>
     <g id="text_15">
      <!-- 20 -->
      <g transform="translate(42.395 115.835896) scale(0.1 -0.1)">
       <use xlink:href="#DejaVuSans-32"/>
       <use xlink:href="#DejaVuSans-30" x="63.623047"/>
      </g>
     </g>
    </g>
    <g id="ytick_7">
     <g id="line2d_31">
      <path d="M 62.12 83.1811 
L 853.2 83.1811 
" clip-path="url(#p48674c0f16)" style="fill: none; stroke: #b0b0b0; stroke-width: 0.8; stroke-linecap: square"/>
     </g>
     <g id="line2d_32">
      <g>
       <use xlink:href="#m976ad8cef0" x="62.12" y="83.1811" style="stroke: #000000; stroke-width: 0.8"/>
      </g>
     </g>
     <g id="text_16">
      <!-- 40 -->
      <g transform="translate(42.395 86.980319) scale(0.1 -0.1)">
       <use xlink:href="#DejaVuSans-34"/>
       <use xlink:href="#DejaVuSans-30" x="63.623047"/>
      </g>
     </g>
    </g>
    <g id="ytick_8">
     <g id="line2d_33">
      <path d="M 62.12 54.325523 
L 853.2 54.325523 
" clip-path="url(#p48674c0f16)" style="fill: none; stroke: #b0b0b0; stroke-width: 0.8; stroke-linecap: square"/>
     </g>
     <g id="line2d_34">
      <g>
       <use xlink:href="#m976ad8cef0" x="62.12" y="54.325523" style="stroke: #000000; stroke-width: 0.8"/>
      </g>
     </g>
     <g id="text_17">
      <!-- 60 -->
      <g transform="translate(42.395 58.124742) scale(0.1 -0.1)">
       <use xlink:href="#DejaVuSans-36"/>
       <use xlink:href="#DejaVuSans-30" x="63.623047"/>
      </g>
     </g>
    </g>
    <g id="ytick_9">
     <g id="line2d_35">
      <path d="M 62.12 25.469946 
L 853.2 25.469946 
" clip-path="url(#p48674c0f16)" style="fill: none; stroke: #b0b0b0; stroke-width: 0.8; stroke-linecap: square"/>
     </g>
     <g id="line2d_36">
      <g>
       <use xlink:href="#m976ad8cef0" x="62.12" y="25.469946" style="stroke: #000000; stroke-width: 0.8"/>
      </g>
     </g>
     <g id="text_18">
      <!-- 80 -->
      <g transform="translate(42.395 29.269164) scale(0.1 -0.1)">
       <use xlink:href="#DejaVuSans-38"/>
       <use xlink:href="#DejaVuSans-30" x="63.623047"/>
      </g>
     </g>
    </g>
    <g id="text_19">
     <!-- Input (Right) -->
     <g transform="translate(27.519687 171.844688) rotate(-90) scale(0.12 -0.12)">
      <defs>
       <path id="DejaVuSans-49" d="M 628 4666 
L 1259 4666 
L 1259 0 
L 628 0 
L 628 4666 
z
" transform="scale(0.015625)"/>
       <path id="DejaVuSans-6e" d="M 3513 2113 
L 3513 0 
L 2938 0 
L 2938 2094 
Q 2938 2591 2744 2837 
Q 2550 3084 2163 3084 
Q 1697 3084 1428 2787 
Q 1159 2491 1159 1978 
L 1159 0 
L 581 0 
L 581 3500 
L 1159 3500 
L 1159 2956 
Q 1366 3272 1645 3428 
Q 1925 3584 2291 3584 
Q 2894 3584 3203 3211 
Q 3513 2838 3513 2113 
z
" transform="scale(0.015625)"/>
       <path id="DejaVuSans-70" d="M 1159 525 
L 1159 -1331 
L 581 -1331 
L 581 3500 
L 1159 3500 
L 1159 2969 
Q 1341 3281 1617 3432 
Q 1894 3584 2278 3584 
Q 2916 3584 3314 3078 
Q 3713 2572 3713 1747 
Q 3713 922 3314 415 
Q 2916 -91 2278 -91 
Q 1894 -91 1617 61 
Q 1341 213 1159 525 
z
M 3116 1747 
Q 3116 2381 2855 2742 
Q 2594 3103 2138 3103 
Q 1681 3103 1420 2742 
Q 1159 2381 1159 1747 
Q 1159 1113 1420 752 
Q 1681 391 2138 391 
Q 2594 391 2855 752 
Q 3116 1113 3116 1747 
z
" transform="scale(0.015625)"/>
       <path id="DejaVuSans-75" d="M 544 1381 
L 544 3500 
L 1119 3500 
L 1119 1403 
Q 1119 906 1312 657 
Q 1506 409 1894 409 
Q 2359 409 2629 706 
Q 2900 1003 2900 1516 
L 2900 3500 
L 3475 3500 
L 3475 0 
L 2900 0 
L 2900 538 
Q 2691 219 2414 64 
Q 2138 -91 1772 -91 
Q 1169 -91 856 284 
Q 544 659 544 1381 
z
M 1991 3584 
L 1991 3584 
z
" transform="scale(0.015625)"/>
       <path id="DejaVuSans-74" d="M 1172 4494 
L 1172 3500 
L 2356 3500 
L 2356 3053 
L 1172 3053 
L 1172 1153 
Q 1172 725 1289 603 
Q 1406 481 1766 481 
L 2356 481 
L 2356 0 
L 1766 0 
Q 1100 0 847 248 
Q 594 497 594 1153 
L 594 3053 
L 172 3053 
L 172 3500 
L 594 3500 
L 594 4494 
L 1172 4494 
z
" transform="scale(0.015625)"/>
       <path id="DejaVuSans-20" transform="scale(0.015625)"/>
       <path id="DejaVuSans-28" d="M 1984 4856 
Q 1566 4138 1362 3434 
Q 1159 2731 1159 2009 
Q 1159 1288 1364 580 
Q 1569 -128 1984 -844 
L 1484 -844 
Q 1016 -109 783 600 
Q 550 1309 550 2009 
Q 550 2706 781 3412 
Q 1013 4119 1484 4856 
L 1984 4856 
z
" transform="scale(0.015625)"/>
       <path id="DejaVuSans-52" d="M 2841 2188 
Q 3044 2119 3236 1894 
Q 3428 1669 3622 1275 
L 4263 0 
L 3584 0 
L 2988 1197 
Q 2756 1666 2539 1819 
Q 2322 1972 1947 1972 
L 1259 1972 
L 1259 0 
L 628 0 
L 628 4666 
L 2053 4666 
Q 2853 4666 3247 4331 
Q 3641 3997 3641 3322 
Q 3641 2881 3436 2590 
Q 3231 2300 2841 2188 
z
M 1259 4147 
L 1259 2491 
L 2053 2491 
Q 2509 2491 2742 2702 
Q 2975 2913 2975 3322 
Q 2975 3731 2742 3939 
Q 2509 4147 2053 4147 
L 1259 4147 
z
" transform="scale(0.015625)"/>
       <path id="DejaVuSans-69" d="M 603 3500 
L 1178 3500 
L 1178 0 
L 603 0 
L 603 3500 
z
M 603 4863 
L 1178 4863 
L 1178 4134 
L 603 4134 
L 603 4863 
z
" transform="scale(0.015625)"/>
       <path id="DejaVuSans-67" d="M 2906 1791 
Q 2906 2416 2648 2759 
Q 2391 3103 1925 3103 
Q 1463 3103 1205 2759 
Q 947 2416 947 1791 
Q 947 1169 1205 825 
Q 1463 481 1925 481 
Q 2391 481 2648 825 
Q 2906 1169 2906 1791 
z
M 3481 434 
Q 3481 -459 3084 -895 
Q 2688 -1331 1869 -1331 
Q 1566 -1331 1297 -1286 
Q 1028 -1241 775 -1147 
L 775 -588 
Q 1028 -725 1275 -790 
Q 1522 -856 1778 -856 
Q 2344 -856 2625 -561 
Q 2906 -266 2906 331 
L 2906 616 
Q 2728 306 2450 153 
Q 2172 0 1784 0 
Q 1141 0 747 490 
Q 353 981 353 1791 
Q 353 2603 747 3093 
Q 1141 3584 1784 3584 
Q 2172 3584 2450 3431 
Q 2728 3278 2906 2969 
L 2906 3500 
L 3481 3500 
L 3481 434 
z
" transform="scale(0.015625)"/>
       <path id="DejaVuSans-68" d="M 3513 2113 
L 3513 0 
L 2938 0 
L 2938 2094 
Q 2938 2591 2744 2837 
Q 2550 3084 2163 3084 
Q 1697 3084 1428 2787 
Q 1159 2491 1159 1978 
L 1159 0 
L 581 0 
L 581 4863 
L 1159 4863 
L 1159 2956 
Q 1366 3272 1645 3428 
Q 1925 3584 2291 3584 
Q 2894 3584 3203 3211 
Q 3513 2838 3513 2113 
z
" transform="scale(0.015625)"/>
       <path id="DejaVuSans-29" d="M 513 4856 
L 1013 4856 
Q 1481 4119 1714 3412 
Q 1947 2706 1947 2009 
Q 1947 1309 1714 600 
Q 1481 -109 1013 -844 
L 513 -844 
Q 928 -128 1133 580 
Q 1338 1288 1338 2009 
Q 1338 2731 1133 3434 
Q 928 4138 513 4856 
z
" transform="scale(0.015625)"/>
      </defs>
      <use xlink:href="#DejaVuSans-49"/>
      <use xlink:href="#DejaVuSans-6e" x="29.492188"/>
      <use xlink:href="#DejaVuSans-70" x="92.871094"/>
      <use xlink:href="#DejaVuSans-75" x="156.347656"/>
      <use xlink:href="#DejaVuSans-74" x="219.726562"/>
      <use xlink:href="#DejaVuSans-20" x="258.935547"/>
      <use xlink:href="#DejaVuSans-28" x="290.722656"/>
      <use xlink:href="#DejaVuSans-52" x="329.736328"/>
      <use xlink:href="#DejaVuSans-69" x="399.21875"/>
      <use xlink:href="#DejaVuSans-67" x="427.001953"/>
      <use xlink:href="#DejaVuSans-68" x="490.478516"/>
      <use xlink:href="#DejaVuSans-74" x="553.857422"/>
      <use xlink:href="#DejaVuSans-29" x="593.066406"/>
     </g>
    </g>
   </g>
   <g id="line2d_37">
    <path d="M 98.078182 140.892255 
L 187.928711 140.892255 
L 188.288113 21.992727 
L 188.647515 134.187827 
L 189.36632 137.773915 
L 189.725722 139.19176 
L 190.803928 142.163518 
L 191.882134 144.978131 
L 193.319743 148.168381 
L 194.757351 150.684615 
L 195.116753 150.730076 
L 196.554362 146.198323 
L 197.632568 144.631091 
L 197.99197 144.233592 
L 198.351372 144.024782 
L 198.710775 144.014968 
L 201.226589 144.93908 
L 203.0236 145.193521 
L 203.742404 145.132505 
L 204.101806 144.990411 
L 204.461208 144.696454 
L 204.820611 143.675667 
L 206.258219 137.476268 
L 206.977023 135.5414 
L 207.336425 134.965971 
L 207.695828 134.618435 
L 208.05523 134.501659 
L 208.414632 134.606753 
L 208.774034 134.917832 
L 209.492838 135.970174 
L 210.571044 137.592184 
L 210.930447 134.342457 
L 211.289849 126.278529 
L 211.649251 126.362827 
L 212.727457 130.119305 
L 213.446261 139.042351 
L 214.165066 138.846576 
L 215.602674 138.813772 
L 215.962076 138.953975 
L 216.321478 244.886039 
L 216.68088 161.925009 
L 217.040283 161.105266 
L 217.399685 157.420973 
L 217.759087 155.462871 
L 218.477891 159.654762 
L 219.196695 161.725171 
L 219.556097 161.754559 
L 219.9155 160.586298 
L 220.274902 158.358479 
L 222.431314 140.121616 
L 223.509521 133.851356 
L 224.228325 130.670084 
L 224.947129 128.366914 
L 225.306531 127.706969 
L 225.665933 127.304927 
L 226.025336 127.176806 
L 226.74414 127.414465 
L 227.103542 123.134866 
L 227.462944 121.794101 
L 227.822346 121.793875 
L 228.181748 122.157761 
L 228.54115 122.763585 
L 229.259955 124.98087 
L 229.978759 128.160093 
L 230.697563 132.455801 
L 231.416367 137.473929 
L 231.775769 139.013242 
L 232.494574 141.109828 
L 233.57278 143.977372 
L 235.010388 147.142522 
L 236.447997 149.74602 
L 237.526203 151.332624 
L 238.60441 152.459365 
L 238.963812 152.672174 
L 239.682616 150.486339 
L 240.40142 148.900671 
L 241.839029 145.234714 
L 242.557833 144.122913 
L 242.917235 144.037171 
L 243.276637 144.084375 
L 244.354843 143.602787 
L 246.870658 142.092413 
L 247.23006 141.569822 
L 247.948865 139.138254 
L 249.027071 135.638965 
L 249.386473 134.712968 
L 250.105277 133.821643 
L 250.464679 133.672016 
L 250.824082 133.730843 
L 251.183484 133.964361 
L 251.902288 134.924637 
L 253.699299 138.115949 
L 254.058701 135.433911 
L 254.418103 127.684289 
L 254.777505 127.874306 
L 255.496309 130.395474 
L 255.855711 134.009093 
L 256.215113 139.321759 
L 256.933918 139.109105 
L 260.168537 139.047903 
L 260.527939 245.228491 
L 260.887341 161.04589 
L 261.246743 158.750829 
L 261.606145 155.336959 
L 261.965547 154.874105 
L 262.684351 158.639409 
L 263.403156 160.483122 
L 263.762558 160.875734 
L 264.12196 160.410825 
L 264.481362 159.072487 
L 265.200166 154.79836 
L 266.278373 146.1714 
L 267.356579 139.763383 
L 268.434785 134.470364 
L 269.15359 132.117697 
L 269.872394 130.495604 
L 270.231796 129.878485 
L 270.591198 129.630867 
L 270.9506 129.687649 
L 271.310002 129.979422 
L 271.669404 125.803234 
L 272.028807 123.789312 
L 272.388209 123.429348 
L 273.107013 123.762021 
L 273.466415 124.170103 
L 274.185219 125.56883 
L 274.544621 126.566585 
L 275.622828 131.375722 
L 277.060436 139.115383 
L 278.138642 141.905025 
L 279.935653 145.639784 
L 281.732664 148.575994 
L 282.451468 149.66257 
L 283.529674 150.928418 
L 285.326685 152.787933 
L 285.686087 152.71105 
L 288.201902 144.385941 
L 288.561304 143.804931 
L 290.358314 143.100651 
L 292.514727 142.589643 
L 293.592934 142.515685 
L 294.311738 140.598874 
L 295.389944 137.63749 
L 296.46815 135.690591 
L 296.827553 135.445011 
L 297.186955 135.359644 
L 297.546357 135.417147 
L 298.265161 135.917627 
L 298.983965 136.85706 
L 300.062172 138.362816 
L 300.421574 138.675246 
L 300.780976 136.343025 
L 301.140378 128.402702 
L 301.49978 128.191353 
L 302.577986 130.937864 
L 302.937389 132.095081 
L 303.296791 139.637771 
L 304.015595 139.364222 
L 306.172008 139.314195 
L 306.53141 139.449874 
L 306.890812 245.510792 
L 307.250214 159.999052 
L 307.969018 154.641282 
L 308.32842 154.405362 
L 309.047225 158.709629 
L 309.766029 161.053427 
L 310.125431 161.487116 
L 310.484833 161.042803 
L 310.844235 159.74695 
L 312.641246 148.526759 
L 313.36005 143.491673 
L 314.797658 136.712019 
L 315.516463 134.084157 
L 316.235267 132.360884 
L 316.954071 131.131489 
L 317.313473 130.980289 
L 317.672875 131.110574 
L 318.032277 128.923094 
L 318.39168 125.447337 
L 318.751082 124.646753 
L 319.110484 124.46357 
L 319.469886 124.413419 
L 319.829288 124.506276 
L 320.18869 124.75449 
L 320.548092 125.200425 
L 321.626299 127.990996 
L 322.345103 130.563224 
L 323.782711 138.156198 
L 324.501516 140.44819 
L 325.22032 142.070933 
L 327.376733 146.091722 
L 329.533145 149.357967 
L 330.611352 150.648068 
L 332.04896 152.11989 
L 332.408362 152.113131 
L 333.845971 148.159913 
L 335.283579 143.920458 
L 335.642981 143.423245 
L 336.361785 143.437661 
L 338.518198 143.681599 
L 341.034013 144.286795 
L 341.393415 144.095764 
L 341.752817 143.486904 
L 342.471621 140.839974 
L 343.190426 139.134973 
L 344.268632 137.115663 
L 344.628034 136.87559 
L 345.346838 136.806303 
L 346.065643 137.115545 
L 347.862653 138.824605 
L 348.222055 139.004533 
L 348.581457 132.231342 
L 348.94086 128.3421 
L 349.300262 128.590507 
L 349.659664 129.24911 
L 350.73787 132.040547 
L 351.097272 135.069322 
L 351.456674 139.822123 
L 352.175479 139.628059 
L 353.613087 139.652383 
L 353.972489 245.647238 
L 354.331891 159.809112 
L 354.691293 158.612562 
L 355.050696 155.821058 
L 355.410098 154.209167 
L 356.488304 159.986635 
L 356.847706 161.18709 
L 357.207108 161.85073 
L 357.56651 161.224046 
L 358.285315 158.546408 
L 359.004119 154.902349 
L 359.722923 149.852205 
L 361.160532 141.475786 
L 362.59814 135.639192 
L 363.316944 133.821226 
L 364.395151 131.902245 
L 364.754553 131.761209 
L 365.113955 131.831872 
L 365.832759 126.396122 
L 366.192161 125.683642 
L 366.910965 125.234202 
L 367.270368 125.202716 
L 368.348574 126.35457 
L 368.707976 126.955409 
L 369.42678 129.167931 
L 370.145584 131.599223 
L 370.504987 133.024816 
L 371.223791 137.064235 
L 371.942595 139.806874 
L 373.380204 142.677942 
L 376.25542 147.51867 
L 378.052431 149.849367 
L 378.771235 150.512632 
L 379.49004 149.330316 
L 380.927648 146.085227 
L 382.005854 143.638111 
L 382.365256 143.18484 
L 382.724659 143.149953 
L 383.802865 143.97799 
L 384.521669 144.437354 
L 388.475092 147.673934 
L 388.834495 147.780649 
L 389.553299 147.491146 
L 389.912701 146.996173 
L 390.272103 146.05842 
L 390.990907 142.982877 
L 391.709712 141.21102 
L 392.787918 139.188396 
L 393.506722 138.767625 
L 394.225526 138.527287 
L 395.663135 138.824217 
L 396.022537 138.788416 
L 396.381939 138.614461 
L 396.741341 131.331547 
L 397.100743 128.561695 
L 397.819547 129.206981 
L 398.17895 129.550545 
L 398.538352 130.067326 
L 398.897754 130.78139 
L 399.616558 132.691358 
L 399.97596 135.565185 
L 400.335362 245.847273 
L 400.694764 159.590002 
L 401.054167 159.901013 
L 401.772971 154.445969 
L 402.132373 155.15623 
L 402.851177 159.855971 
L 403.210579 161.257093 
L 403.569981 161.996971 
L 403.929383 161.442278 
L 404.288786 160.376177 
L 405.00759 157.152983 
L 405.726394 152.541178 
L 407.523405 142.592063 
L 408.961013 136.868925 
L 410.039219 134.016179 
L 410.758024 133.021348 
L 411.476828 132.488714 
L 411.83623 131.23403 
L 412.195632 127.468931 
L 412.555034 126.331129 
L 412.914436 125.883219 
L 413.633241 125.681791 
L 413.992643 125.728071 
L 414.352045 125.890578 
L 415.070849 127.079077 
L 415.789653 128.536669 
L 416.149055 129.626071 
L 417.227262 133.918223 
L 417.586664 135.275487 
L 417.946066 137.879326 
L 418.305468 139.32562 
L 419.024272 140.864811 
L 420.102479 142.999037 
L 422.977696 147.743815 
L 424.415304 149.533743 
L 425.134108 147.698319 
L 426.571717 145.421768 
L 427.649923 143.629946 
L 428.009325 143.191693 
L 428.368727 142.929874 
L 428.72813 143.045262 
L 432.322151 147.31313 
L 433.400357 148.867455 
L 434.837966 150.018711 
L 435.916172 149.65323 
L 436.275574 149.337564 
L 436.634976 148.752168 
L 438.791389 141.443457 
L 439.869595 139.591249 
L 440.228997 139.244218 
L 441.307204 138.801145 
L 442.744812 138.42823 
L 443.104214 138.200632 
L 443.823018 129.248514 
L 444.182421 128.986056 
L 445.620029 130.554011 
L 445.979431 131.283321 
L 446.338833 225.43442 
L 446.698235 160.212507 
L 447.057638 159.85701 
L 447.776442 155.248062 
L 448.135844 156.93909 
L 448.495246 159.250563 
L 449.21405 161.94739 
L 449.573452 162.484516 
L 449.932854 161.785073 
L 450.292257 160.712257 
L 451.011061 157.409208 
L 452.089267 150.414422 
L 453.526876 142.5096 
L 454.964484 136.840095 
L 456.04269 134.121937 
L 456.402093 133.434758 
L 457.120897 132.680513 
L 457.839701 132.069548 
L 458.199103 128.245808 
L 458.558505 126.610068 
L 458.917907 126.090184 
L 459.27731 125.920757 
L 459.996114 125.984745 
L 460.355516 126.17802 
L 460.714918 126.609437 
L 462.152526 129.864727 
L 463.230733 134.420315 
L 463.590135 135.807735 
L 464.308939 139.823059 
L 465.746548 142.795111 
L 468.621765 147.489917 
L 469.340569 148.554353 
L 469.699971 148.437755 
L 470.418775 146.600134 
L 472.215786 144.106982 
L 472.93459 143.371899 
L 473.293992 143.15853 
L 473.653394 143.141655 
L 475.450405 144.968075 
L 476.888013 146.85807 
L 479.403828 150.868452 
L 479.76323 151.174039 
L 480.482034 151.488209 
L 480.841437 151.498417 
L 481.200839 151.364556 
L 482.638447 149.217603 
L 484.435458 142.656314 
L 484.79486 141.477011 
L 485.513664 140.293076 
L 486.59187 138.984411 
L 488.388881 138.171563 
L 488.748283 137.917039 
L 489.107685 137.385921 
L 489.467087 130.860835 
L 489.826489 129.336581 
L 490.545294 129.644156 
L 490.904696 130.041974 
L 491.264098 197.334094 
L 491.6235 161.420252 
L 491.982902 161.616941 
L 492.701706 155.855472 
L 493.061109 155.781135 
L 493.779913 160.323865 
L 494.139315 161.642726 
L 494.498717 162.502653 
L 494.858119 162.084318 
L 495.576923 159.172541 
L 496.295728 155.431473 
L 497.014532 150.372179 
L 498.45214 142.427944 
L 499.889749 136.925263 
L 500.608553 135.100469 
L 501.686759 133.181733 
L 502.405564 132.724281 
L 502.764966 128.832017 
L 503.124368 126.855009 
L 503.48377 126.294137 
L 504.202574 125.875612 
L 504.561976 125.85471 
L 505.280781 126.614048 
L 505.999585 127.75512 
L 506.358987 128.568429 
L 508.155997 135.901604 
L 508.874802 139.606637 
L 509.234204 140.724503 
L 513.187627 147.99392 
L 513.906431 148.95066 
L 514.265833 149.169025 
L 514.984638 147.545366 
L 515.34404 146.800467 
L 517.500453 143.99324 
L 518.219257 143.714914 
L 518.578659 143.861364 
L 519.656865 144.99531 
L 520.375669 145.73308 
L 521.813278 147.6524 
L 523.250886 149.929635 
L 524.329093 151.09424 
L 524.688495 151.347547 
L 525.407299 151.269048 
L 525.766701 151.113385 
L 526.126103 150.822622 
L 526.485505 150.351349 
L 526.844908 149.571105 
L 527.563712 147.080236 
L 528.641918 142.833558 
L 529.360722 141.214554 
L 530.438929 139.438291 
L 531.157733 139.031284 
L 531.876537 138.745519 
L 532.595341 138.662246 
L 533.314146 138.274782 
L 533.673548 135.700368 
L 534.03295 129.845813 
L 534.392352 129.424033 
L 534.751754 129.729174 
L 535.82996 131.238443 
L 536.189363 218.911081 
L 536.548765 161.809088 
L 536.908167 162.543262 
L 537.626971 157.143935 
L 537.986373 155.79944 
L 538.705177 160.495089 
L 539.06458 161.839969 
L 539.423982 162.702726 
L 539.783384 162.49467 
L 540.502188 159.17213 
L 541.580394 152.710313 
L 542.299199 147.893716 
L 543.736807 140.673403 
L 545.174416 135.705917 
L 545.89322 134.23366 
L 546.612024 133.265392 
L 546.971426 132.846302 
L 547.330828 132.744358 
L 547.69023 129.182257 
L 548.049632 126.908963 
L 548.409035 126.269436 
L 549.127839 126.059962 
L 549.487241 126.145089 
L 549.846643 126.369256 
L 550.206045 126.812097 
L 551.643654 130.4392 
L 552.362458 133.726583 
L 554.159468 141.564563 
L 557.75349 148.229924 
L 558.831696 149.664653 
L 559.191098 149.853552 
L 559.909902 148.249475 
L 560.269304 147.335324 
L 562.425717 144.184706 
L 562.785119 143.907656 
L 563.144521 143.879728 
L 563.503923 144.036118 
L 563.863326 144.343114 
L 565.300934 146.158907 
L 567.097945 148.633043 
L 567.816749 149.624505 
L 568.894955 150.866512 
L 569.254357 151.14472 
L 570.332564 151.095864 
L 570.691966 150.870323 
L 571.051368 150.489639 
L 571.41077 149.743412 
L 572.129574 147.262685 
L 573.207781 142.832259 
L 573.926585 141.186281 
L 575.004791 139.441201 
L 575.723595 139.114262 
L 576.801802 138.972378 
L 577.520606 138.93034 
L 577.880008 138.750664 
L 578.23941 137.560774 
L 578.598812 130.534205 
L 578.958215 129.691283 
L 579.677019 130.33374 
L 580.395823 131.719661 
L 580.755225 222.193031 
L 581.114627 162.147172 
L 581.474029 162.705371 
L 582.192834 157.422047 
L 582.552236 157.203128 
L 583.27104 161.714591 
L 583.630442 162.781684 
L 583.989844 163.335819 
L 584.349246 162.997635 
L 585.068051 159.376066 
L 586.146257 152.987404 
L 586.865061 147.576637 
L 588.30267 140.391491 
L 589.021474 137.688443 
L 590.09968 134.519256 
L 590.818484 133.296752 
L 591.537289 132.601189 
L 591.896691 132.389713 
L 592.256093 128.969916 
L 592.615495 126.838411 
L 592.974897 126.291608 
L 593.334299 126.074956 
L 593.693701 126.138454 
L 594.412506 126.736042 
L 595.13131 127.869694 
L 595.850114 130.171794 
L 596.568918 132.796188 
L 596.92832 134.348434 
L 598.006527 140.023802 
L 598.365929 141.309954 
L 600.522342 145.728482 
L 601.600548 147.72821 
L 602.678754 149.330395 
L 603.038156 149.419187 
L 603.756961 147.868699 
L 604.116363 146.864628 
L 604.475765 146.224162 
L 605.194569 145.441656 
L 605.913373 144.547274 
L 606.272775 144.291864 
L 606.632178 144.227674 
L 607.350982 144.505408 
L 609.507394 146.943138 
L 610.945003 149.05009 
L 611.663807 150.236326 
L 613.460818 152.083938 
L 614.539024 151.771868 
L 615.257828 150.980832 
L 615.61723 150.14118 
L 616.336035 147.464081 
L 617.414241 143.013676 
L 618.133045 141.288677 
L 619.211252 139.520791 
L 619.570654 139.25722 
L 620.289458 139.057093 
L 621.727066 138.855671 
L 622.086469 138.67153 
L 622.445871 136.237956 
L 622.805273 130.222866 
L 623.164675 129.890758 
L 624.242881 131.225794 
L 624.602283 215.286418 
L 624.961686 162.760021 
L 625.321088 163.495831 
L 626.039892 157.761353 
L 626.399294 156.245611 
L 627.118098 161.264804 
L 627.4775 162.638227 
L 627.836902 163.421018 
L 628.196305 163.171716 
L 628.555707 161.561098 
L 631.430924 144.18882 
L 632.868532 137.91817 
L 633.587336 135.90071 
L 634.665543 133.748412 
L 635.384347 133.187634 
L 635.743749 131.496573 
L 636.103151 127.704012 
L 636.462553 126.700916 
L 636.821955 126.38042 
L 637.181358 126.243619 
L 637.54076 126.255977 
L 637.900162 126.530749 
L 638.618966 127.674269 
L 639.33777 129.337846 
L 639.697172 130.513359 
L 642.212987 141.99223 
L 644.3694 146.428782 
L 646.525813 150.055229 
L 646.885215 150.282952 
L 647.963421 147.939724 
L 648.322823 147.092296 
L 650.479236 144.576858 
L 650.838638 144.629508 
L 651.557442 145.067523 
L 656.589072 151.481116 
L 657.667278 151.82483 
L 658.02668 151.76615 
L 658.386082 151.548836 
L 659.104887 150.437077 
L 659.464289 149.454483 
L 660.183093 146.378583 
L 660.901897 143.330059 
L 661.620701 141.491702 
L 662.698908 139.590988 
L 663.417712 139.22498 
L 664.136516 139.133086 
L 665.574125 139.193634 
L 665.933527 139.005758 
L 666.292929 132.743092 
L 666.652331 130.165663 
L 667.011733 130.38354 
L 667.730537 131.357138 
L 668.449342 133.187395 
L 668.808744 234.869301 
L 669.168146 162.98893 
L 669.527548 163.760618 
L 670.246352 158.571337 
L 670.605754 157.211475 
L 671.324559 161.896977 
L 671.683961 163.073633 
L 672.043363 163.640152 
L 672.402765 163.245768 
L 672.762167 161.71468 
L 675.277982 145.704664 
L 677.074993 137.75267 
L 677.793797 135.777213 
L 678.872003 133.641481 
L 679.590807 133.091777 
L 679.950209 132.228523 
L 680.309612 128.119831 
L 680.669014 126.850785 
L 681.028416 126.534833 
L 681.387818 126.445522 
L 681.74722 126.511898 
L 682.106622 126.733877 
L 682.466024 127.292943 
L 683.184828 128.882056 
L 683.903633 131.028192 
L 684.263035 132.47464 
L 685.700643 139.974058 
L 686.419448 142.510662 
L 687.857056 145.471276 
L 688.935262 147.614804 
L 690.732273 150.575667 
L 691.091675 150.247162 
L 692.169881 147.811286 
L 692.529284 147.04337 
L 693.248088 146.114204 
L 693.966892 144.977259 
L 694.326294 144.577559 
L 694.685696 144.42409 
L 695.045098 144.582574 
L 696.482707 146.225201 
L 698.63912 149.266738 
L 699.717326 150.86143 
L 700.795532 151.950589 
L 701.514336 152.265225 
L 702.592543 151.58291 
L 703.311347 150.517923 
L 705.108358 143.140832 
L 705.827162 141.039175 
L 706.545966 139.987689 
L 707.26477 139.410098 
L 707.624172 139.164346 
L 708.342977 139.268135 
L 709.061781 139.397812 
L 709.780585 139.347788 
L 710.139987 137.810027 
L 710.499389 130.930012 
L 710.858792 130.335098 
L 711.577596 131.532962 
L 712.2964 133.006249 
L 712.655802 232.060615 
L 713.015204 163.132942 
L 713.374606 163.33147 
L 713.734008 160.263372 
L 714.093411 158.182784 
L 714.452813 158.446477 
L 714.812215 161.409448 
L 715.171617 163.238156 
L 715.531019 164.228155 
L 715.890421 164.482622 
L 716.249823 163.701164 
L 716.609225 162.092281 
L 717.687432 155.136399 
L 719.484442 144.001122 
L 720.922051 137.685445 
L 721.640855 135.716327 
L 722.719061 133.630907 
L 723.078463 133.21553 
L 723.437866 132.993217 
L 723.797268 131.609273 
L 724.15667 127.884554 
L 724.516072 126.834843 
L 724.875474 126.625331 
L 725.234876 126.593027 
L 725.594278 126.718039 
L 725.95368 127.001751 
L 726.313083 127.446915 
L 727.031887 129.296988 
L 727.750691 131.603215 
L 728.469495 134.715371 
L 729.188299 139.103649 
L 729.907104 141.823641 
L 730.98531 144.535036 
L 733.141723 148.716038 
L 733.860527 149.874962 
L 734.219929 149.810028 
L 736.01694 145.94241 
L 737.454548 144.618225 
L 737.81395 144.602359 
L 738.532755 145.201205 
L 738.892157 145.499133 
L 741.767374 149.505344 
L 742.84558 151.182792 
L 743.923786 152.59938 
L 744.283188 152.850775 
L 745.001993 153.002384 
L 745.361395 152.942946 
L 745.720797 152.740269 
L 746.080199 152.392583 
L 746.799003 151.053709 
L 747.158405 149.949237 
L 748.955416 142.595836 
L 749.67422 141.009211 
L 750.393024 139.792673 
L 751.111829 139.395263 
L 751.830633 139.343331 
L 753.268241 139.378251 
L 753.627643 139.200224 
L 753.987046 132.769756 
L 754.346448 130.598185 
L 754.70585 130.902829 
L 755.424654 132.031686 
L 755.784056 132.839983 
L 756.143458 229.192303 
L 756.50286 163.309782 
L 756.862263 162.644793 
L 757.221665 159.704859 
L 757.581067 157.759094 
L 757.940469 159.699736 
L 758.299871 162.287489 
L 758.659273 163.670795 
L 759.018675 164.49506 
L 759.378077 164.616039 
L 759.737479 163.757088 
L 760.096882 162.177781 
L 761.53449 152.993245 
L 762.972098 144.157969 
L 764.409707 137.949423 
L 765.128511 135.943529 
L 765.847315 134.552502 
L 766.56612 133.544433 
L 766.925522 133.349818 
L 767.284924 131.534023 
L 767.644326 127.961054 
L 768.003728 127.009203 
L 768.36313 126.796983 
L 768.722532 126.810733 
L 769.081934 126.961478 
L 769.441337 127.274524 
L 769.800739 127.753076 
L 770.160141 128.46314 
L 771.597749 133.488917 
L 771.957151 135.128906 
L 773.035358 141.181357 
L 774.472966 144.927389 
L 776.629379 149.113432 
L 777.348183 150.276914 
L 777.707585 150.449973 
L 779.504596 146.38314 
L 780.942204 144.879187 
L 781.301606 144.759374 
L 781.661009 144.908594 
L 783.098617 146.57262 
L 784.536226 148.580971 
L 787.05204 152.311183 
L 787.770845 152.967689 
L 788.130247 153.099543 
L 788.849051 152.940688 
L 789.208453 152.721449 
L 789.927257 151.855266 
L 790.286659 151.059743 
L 791.005464 148.047463 
L 791.724268 144.937384 
L 792.443072 142.319389 
L 793.161876 140.834961 
L 793.880681 139.935201 
L 794.240083 139.565895 
L 794.599485 139.417601 
L 795.318289 139.489014 
L 796.396495 139.718637 
L 796.755898 139.694395 
L 797.1153 139.535974 
L 797.474702 132.762585 
L 797.834104 130.77428 
L 798.193506 131.21495 
L 799.271712 133.401371 
L 799.631114 232.412216 
L 799.990517 164.065427 
L 800.349919 164.688376 
L 801.068723 159.662803 
L 801.428125 158.282978 
L 802.146929 163.14579 
L 802.506331 164.291268 
L 802.865733 164.678213 
L 803.225136 164.017947 
L 803.584538 162.390734 
L 806.100353 145.778799 
L 807.178559 140.858107 
L 808.256765 136.738547 
L 808.975569 135.12641 
L 809.694374 134.01075 
L 810.053776 133.568655 
L 810.413178 133.33058 
L 810.77258 132.050606 
L 811.131982 128.219209 
L 811.491384 127.159555 
L 811.850786 126.873687 
L 812.210189 126.97153 
L 812.569591 127.194759 
L 812.928993 127.568954 
L 813.647797 128.828729 
L 814.007199 129.799648 
L 815.444808 135.927717 
L 816.523014 141.98353 
L 816.882416 142.684238 
L 817.241818 143.679844 
L 817.241818 143.679844 
" clip-path="url(#p48674c0f16)" style="fill: none; stroke: #0000ff; stroke-linecap: square"/>
   </g>
   <g id="patch_3">
    <path d="M 62.12 257.04 
L 62.12 10.8 
" style="fill: none; stroke: #000000; stroke-width: 0.8; stroke-linejoin: miter; stroke-linecap: square"/>
   </g>
   <g id="patch_4">
    <path d="M 853.2 257.04 
L 853.2 10.8 
" style="fill: none; stroke: #000000; stroke-width: 0.8; stroke-linejoin: miter; stroke-linecap: square"/>
   </g>
   <g id="patch_5">
    <path d="M 62.12 257.04 
L 853.2 257.04 
" style="fill: none; stroke: #000000; stroke-width: 0.8; stroke-linejoin: miter; stroke-linecap: square"/>
   </g>
   <g id="patch_6">
    <path d="M 62.12 10.8 
L 853.2 10.8 
" style="fill: none; stroke: #000000; stroke-width: 0.8; stroke-linejoin: miter; stroke-linecap: square"/>
   </g>
  </g>
  <g id="axes_2">
   <g id="patch_7">
    <path d="M 62.12 531.16 
L 853.2 531.16 
L 853.2 284.92 
L 62.12 284.92 
z
" style="fill: #ffffff"/>
   </g>
   <g id="matplotlib.axis_3">
    <g id="xtick_10">
     <g id="line2d_38">
      <path d="M 98.078182 531.16 
L 98.078182 284.92 
" clip-path="url(#pd263e0b52d)" style="fill: none; stroke: #b0b0b0; stroke-width: 0.8; stroke-linecap: square"/>
     </g>
     <g id="line2d_39">
      <g>
       <use xlink:href="#ma872e67b4a" x="98.078182" y="531.16" style="stroke: #000000; stroke-width: 0.8"/>
      </g>
     </g>
     <g id="text_20">
      <!-- 0.0 -->
      <g transform="translate(90.126619 545.758438) scale(0.1 -0.1)">
       <use xlink:href="#DejaVuSans-30"/>
       <use xlink:href="#DejaVuSans-2e" x="63.623047"/>
       <use xlink:href="#DejaVuSans-30" x="95.410156"/>
      </g>
     </g>
    </g>
    <g id="xtick_11">
     <g id="line2d_40">
      <path d="M 187.928711 531.16 
L 187.928711 284.92 
" clip-path="url(#pd263e0b52d)" style="fill: none; stroke: #b0b0b0; stroke-width: 0.8; stroke-linecap: square"/>
     </g>
     <g id="line2d_41">
      <g>
       <use xlink:href="#ma872e67b4a" x="187.928711" y="531.16" style="stroke: #000000; stroke-width: 0.8"/>
      </g>
     </g>
     <g id="text_21">
      <!-- 2.5 -->
      <g transform="translate(179.977149 545.758438) scale(0.1 -0.1)">
       <use xlink:href="#DejaVuSans-32"/>
       <use xlink:href="#DejaVuSans-2e" x="63.623047"/>
       <use xlink:href="#DejaVuSans-35" x="95.410156"/>
      </g>
     </g>
    </g>
    <g id="xtick_12">
     <g id="line2d_42">
      <path d="M 277.77924 531.16 
L 277.77924 284.92 
" clip-path="url(#pd263e0b52d)" style="fill: none; stroke: #b0b0b0; stroke-width: 0.8; stroke-linecap: square"/>
     </g>
     <g id="line2d_43">
      <g>
       <use xlink:href="#ma872e67b4a" x="277.77924" y="531.16" style="stroke: #000000; stroke-width: 0.8"/>
      </g>
     </g>
     <g id="text_22">
      <!-- 5.0 -->
      <g transform="translate(269.827678 545.758438) scale(0.1 -0.1)">
       <use xlink:href="#DejaVuSans-35"/>
       <use xlink:href="#DejaVuSans-2e" x="63.623047"/>
       <use xlink:href="#DejaVuSans-30" x="95.410156"/>
      </g>
     </g>
    </g>
    <g id="xtick_13">
     <g id="line2d_44">
      <path d="M 367.62977 531.16 
L 367.62977 284.92 
" clip-path="url(#pd263e0b52d)" style="fill: none; stroke: #b0b0b0; stroke-width: 0.8; stroke-linecap: square"/>
     </g>
     <g id="line2d_45">
      <g>
       <use xlink:href="#ma872e67b4a" x="367.62977" y="531.16" style="stroke: #000000; stroke-width: 0.8"/>
      </g>
     </g>
     <g id="text_23">
      <!-- 7.5 -->
      <g transform="translate(359.678207 545.758438) scale(0.1 -0.1)">
       <use xlink:href="#DejaVuSans-37"/>
       <use xlink:href="#DejaVuSans-2e" x="63.623047"/>
       <use xlink:href="#DejaVuSans-35" x="95.410156"/>
      </g>
     </g>
    </g>
    <g id="xtick_14">
     <g id="line2d_46">
      <path d="M 457.480299 531.16 
L 457.480299 284.92 
" clip-path="url(#pd263e0b52d)" style="fill: none; stroke: #b0b0b0; stroke-width: 0.8; stroke-linecap: square"/>
     </g>
     <g id="line2d_47">
      <g>
       <use xlink:href="#ma872e67b4a" x="457.480299" y="531.16" style="stroke: #000000; stroke-width: 0.8"/>
      </g>
     </g>
     <g id="text_24">
      <!-- 10.0 -->
      <g transform="translate(446.347486 545.758438) scale(0.1 -0.1)">
       <use xlink:href="#DejaVuSans-31"/>
       <use xlink:href="#DejaVuSans-30" x="63.623047"/>
       <use xlink:href="#DejaVuSans-2e" x="127.246094"/>
       <use xlink:href="#DejaVuSans-30" x="159.033203"/>
      </g>
     </g>
    </g>
    <g id="xtick_15">
     <g id="line2d_48">
      <path d="M 547.330828 531.16 
L 547.330828 284.92 
" clip-path="url(#pd263e0b52d)" style="fill: none; stroke: #b0b0b0; stroke-width: 0.8; stroke-linecap: square"/>
     </g>
     <g id="line2d_49">
      <g>
       <use xlink:href="#ma872e67b4a" x="547.330828" y="531.16" style="stroke: #000000; stroke-width: 0.8"/>
      </g>
     </g>
     <g id="text_25">
      <!-- 12.5 -->
      <g transform="translate(536.198016 545.758438) scale(0.1 -0.1)">
       <use xlink:href="#DejaVuSans-31"/>
       <use xlink:href="#DejaVuSans-32" x="63.623047"/>
       <use xlink:href="#DejaVuSans-2e" x="127.246094"/>
       <use xlink:href="#DejaVuSans-35" x="159.033203"/>
      </g>
     </g>
    </g>
    <g id="xtick_16">
     <g id="line2d_50">
      <path d="M 637.181358 531.16 
L 637.181358 284.92 
" clip-path="url(#pd263e0b52d)" style="fill: none; stroke: #b0b0b0; stroke-width: 0.8; stroke-linecap: square"/>
     </g>
     <g id="line2d_51">
      <g>
       <use xlink:href="#ma872e67b4a" x="637.181358" y="531.16" style="stroke: #000000; stroke-width: 0.8"/>
      </g>
     </g>
     <g id="text_26">
      <!-- 15.0 -->
      <g transform="translate(626.048545 545.758438) scale(0.1 -0.1)">
       <use xlink:href="#DejaVuSans-31"/>
       <use xlink:href="#DejaVuSans-35" x="63.623047"/>
       <use xlink:href="#DejaVuSans-2e" x="127.246094"/>
       <use xlink:href="#DejaVuSans-30" x="159.033203"/>
      </g>
     </g>
    </g>
    <g id="xtick_17">
     <g id="line2d_52">
      <path d="M 727.031887 531.16 
L 727.031887 284.92 
" clip-path="url(#pd263e0b52d)" style="fill: none; stroke: #b0b0b0; stroke-width: 0.8; stroke-linecap: square"/>
     </g>
     <g id="line2d_53">
      <g>
       <use xlink:href="#ma872e67b4a" x="727.031887" y="531.16" style="stroke: #000000; stroke-width: 0.8"/>
      </g>
     </g>
     <g id="text_27">
      <!-- 17.5 -->
      <g transform="translate(715.899074 545.758438) scale(0.1 -0.1)">
       <use xlink:href="#DejaVuSans-31"/>
       <use xlink:href="#DejaVuSans-37" x="63.623047"/>
       <use xlink:href="#DejaVuSans-2e" x="127.246094"/>
       <use xlink:href="#DejaVuSans-35" x="159.033203"/>
      </g>
     </g>
    </g>
    <g id="xtick_18">
     <g id="line2d_54">
      <path d="M 816.882416 531.16 
L 816.882416 284.92 
" clip-path="url(#pd263e0b52d)" style="fill: none; stroke: #b0b0b0; stroke-width: 0.8; stroke-linecap: square"/>
     </g>
     <g id="line2d_55">
      <g>
       <use xlink:href="#ma872e67b4a" x="816.882416" y="531.16" style="stroke: #000000; stroke-width: 0.8"/>
      </g>
     </g>
     <g id="text_28">
      <!-- 20.0 -->
      <g transform="translate(805.749604 545.758438) scale(0.1 -0.1)">
       <use xlink:href="#DejaVuSans-32"/>
       <use xlink:href="#DejaVuSans-30" x="63.623047"/>
       <use xlink:href="#DejaVuSans-2e" x="127.246094"/>
       <use xlink:href="#DejaVuSans-30" x="159.033203"/>
      </g>
     </g>
    </g>
    <g id="text_29">
     <!-- Time (s) -->
     <g transform="translate(433.265313 560.95625) scale(0.12 -0.12)">
      <defs>
       <path id="DejaVuSans-54" d="M -19 4666 
L 3928 4666 
L 3928 4134 
L 2272 4134 
L 2272 0 
L 1638 0 
L 1638 4134 
L -19 4134 
L -19 4666 
z
" transform="scale(0.015625)"/>
       <path id="DejaVuSans-6d" d="M 3328 2828 
Q 3544 3216 3844 3400 
Q 4144 3584 4550 3584 
Q 5097 3584 5394 3201 
Q 5691 2819 5691 2113 
L 5691 0 
L 5113 0 
L 5113 2094 
Q 5113 2597 4934 2840 
Q 4756 3084 4391 3084 
Q 3944 3084 3684 2787 
Q 3425 2491 3425 1978 
L 3425 0 
L 2847 0 
L 2847 2094 
Q 2847 2600 2669 2842 
Q 2491 3084 2119 3084 
Q 1678 3084 1418 2786 
Q 1159 2488 1159 1978 
L 1159 0 
L 581 0 
L 581 3500 
L 1159 3500 
L 1159 2956 
Q 1356 3278 1631 3431 
Q 1906 3584 2284 3584 
Q 2666 3584 2933 3390 
Q 3200 3197 3328 2828 
z
" transform="scale(0.015625)"/>
       <path id="DejaVuSans-65" d="M 3597 1894 
L 3597 1613 
L 953 1613 
Q 991 1019 1311 708 
Q 1631 397 2203 397 
Q 2534 397 2845 478 
Q 3156 559 3463 722 
L 3463 178 
Q 3153 47 2828 -22 
Q 2503 -91 2169 -91 
Q 1331 -91 842 396 
Q 353 884 353 1716 
Q 353 2575 817 3079 
Q 1281 3584 2069 3584 
Q 2775 3584 3186 3129 
Q 3597 2675 3597 1894 
z
M 3022 2063 
Q 3016 2534 2758 2815 
Q 2500 3097 2075 3097 
Q 1594 3097 1305 2825 
Q 1016 2553 972 2059 
L 3022 2063 
z
" transform="scale(0.015625)"/>
       <path id="DejaVuSans-73" d="M 2834 3397 
L 2834 2853 
Q 2591 2978 2328 3040 
Q 2066 3103 1784 3103 
Q 1356 3103 1142 2972 
Q 928 2841 928 2578 
Q 928 2378 1081 2264 
Q 1234 2150 1697 2047 
L 1894 2003 
Q 2506 1872 2764 1633 
Q 3022 1394 3022 966 
Q 3022 478 2636 193 
Q 2250 -91 1575 -91 
Q 1294 -91 989 -36 
Q 684 19 347 128 
L 347 722 
Q 666 556 975 473 
Q 1284 391 1588 391 
Q 1994 391 2212 530 
Q 2431 669 2431 922 
Q 2431 1156 2273 1281 
Q 2116 1406 1581 1522 
L 1381 1569 
Q 847 1681 609 1914 
Q 372 2147 372 2553 
Q 372 3047 722 3315 
Q 1072 3584 1716 3584 
Q 2034 3584 2315 3537 
Q 2597 3491 2834 3397 
z
" transform="scale(0.015625)"/>
      </defs>
      <use xlink:href="#DejaVuSans-54"/>
      <use xlink:href="#DejaVuSans-69" x="57.958984"/>
      <use xlink:href="#DejaVuSans-6d" x="85.742188"/>
      <use xlink:href="#DejaVuSans-65" x="183.154297"/>
      <use xlink:href="#DejaVuSans-20" x="244.677734"/>
      <use xlink:href="#DejaVuSans-28" x="276.464844"/>
      <use xlink:href="#DejaVuSans-73" x="315.478516"/>
      <use xlink:href="#DejaVuSans-29" x="367.578125"/>
     </g>
    </g>
   </g>
   <g id="matplotlib.axis_4">
    <g id="ytick_10">
     <g id="line2d_56">
      <path d="M 62.12 529.284606 
L 853.2 529.284606 
" clip-path="url(#pd263e0b52d)" style="fill: none; stroke: #b0b0b0; stroke-width: 0.8; stroke-linecap: square"/>
     </g>
     <g id="line2d_57">
      <g>
       <use xlink:href="#m976ad8cef0" x="62.12" y="529.284606" style="stroke: #000000; stroke-width: 0.8"/>
      </g>
     </g>
     <g id="text_30">
      <!-- −100 -->
      <g transform="translate(27.652812 533.083824) scale(0.1 -0.1)">
       <use xlink:href="#DejaVuSans-2212"/>
       <use xlink:href="#DejaVuSans-31" x="83.789062"/>
       <use xlink:href="#DejaVuSans-30" x="147.412109"/>
       <use xlink:href="#DejaVuSans-30" x="211.035156"/>
      </g>
     </g>
    </g>
    <g id="ytick_11">
     <g id="line2d_58">
      <path d="M 62.12 491.347852 
L 853.2 491.347852 
" clip-path="url(#pd263e0b52d)" style="fill: none; stroke: #b0b0b0; stroke-width: 0.8; stroke-linecap: square"/>
     </g>
     <g id="line2d_59">
      <g>
       <use xlink:href="#m976ad8cef0" x="62.12" y="491.347852" style="stroke: #000000; stroke-width: 0.8"/>
      </g>
     </g>
     <g id="text_31">
      <!-- −80 -->
      <g transform="translate(34.015312 495.14707) scale(0.1 -0.1)">
       <use xlink:href="#DejaVuSans-2212"/>
       <use xlink:href="#DejaVuSans-38" x="83.789062"/>
       <use xlink:href="#DejaVuSans-30" x="147.412109"/>
      </g>
     </g>
    </g>
    <g id="ytick_12">
     <g id="line2d_60">
      <path d="M 62.12 453.411098 
L 853.2 453.411098 
" clip-path="url(#pd263e0b52d)" style="fill: none; stroke: #b0b0b0; stroke-width: 0.8; stroke-linecap: square"/>
     </g>
     <g id="line2d_61">
      <g>
       <use xlink:href="#m976ad8cef0" x="62.12" y="453.411098" style="stroke: #000000; stroke-width: 0.8"/>
      </g>
     </g>
     <g id="text_32">
      <!-- −60 -->
      <g transform="translate(34.015312 457.210316) scale(0.1 -0.1)">
       <use xlink:href="#DejaVuSans-2212"/>
       <use xlink:href="#DejaVuSans-36" x="83.789062"/>
       <use xlink:href="#DejaVuSans-30" x="147.412109"/>
      </g>
     </g>
    </g>
    <g id="ytick_13">
     <g id="line2d_62">
      <path d="M 62.12 415.474344 
L 853.2 415.474344 
" clip-path="url(#pd263e0b52d)" style="fill: none; stroke: #b0b0b0; stroke-width: 0.8; stroke-linecap: square"/>
     </g>
     <g id="line2d_63">
      <g>
       <use xlink:href="#m976ad8cef0" x="62.12" y="415.474344" style="stroke: #000000; stroke-width: 0.8"/>
      </g>
     </g>
     <g id="text_33">
      <!-- −40 -->
      <g transform="translate(34.015312 419.273562) scale(0.1 -0.1)">
       <use xlink:href="#DejaVuSans-2212"/>
       <use xlink:href="#DejaVuSans-34" x="83.789062"/>
       <use xlink:href="#DejaVuSans-30" x="147.412109"/>
      </g>
     </g>
    </g>
    <g id="ytick_14">
     <g id="line2d_64">
      <path d="M 62.12 377.53759 
L 853.2 377.53759 
" clip-path="url(#pd263e0b52d)" style="fill: none; stroke: #b0b0b0; stroke-width: 0.8; stroke-linecap: square"/>
     </g>
     <g id="line2d_65">
      <g>
       <use xlink:href="#m976ad8cef0" x="62.12" y="377.53759" style="stroke: #000000; stroke-width: 0.8"/>
      </g>
     </g>
     <g id="text_34">
      <!-- −20 -->
      <g transform="translate(34.015312 381.336808) scale(0.1 -0.1)">
       <use xlink:href="#DejaVuSans-2212"/>
       <use xlink:href="#DejaVuSans-32" x="83.789062"/>
       <use xlink:href="#DejaVuSans-30" x="147.412109"/>
      </g>
     </g>
    </g>
    <g id="ytick_15">
     <g id="line2d_66">
      <path d="M 62.12 339.600836 
L 853.2 339.600836 
" clip-path="url(#pd263e0b52d)" style="fill: none; stroke: #b0b0b0; stroke-width: 0.8; stroke-linecap: square"/>
     </g>
     <g id="line2d_67">
      <g>
       <use xlink:href="#m976ad8cef0" x="62.12" y="339.600836" style="stroke: #000000; stroke-width: 0.8"/>
      </g>
     </g>
     <g id="text_35">
      <!-- 0 -->
      <g transform="translate(48.7575 343.400054) scale(0.1 -0.1)">
       <use xlink:href="#DejaVuSans-30"/>
      </g>
     </g>
    </g>
    <g id="ytick_16">
     <g id="line2d_68">
      <path d="M 62.12 301.664082 
L 853.2 301.664082 
" clip-path="url(#pd263e0b52d)" style="fill: none; stroke: #b0b0b0; stroke-width: 0.8; stroke-linecap: square"/>
     </g>
     <g id="line2d_69">
      <g>
       <use xlink:href="#m976ad8cef0" x="62.12" y="301.664082" style="stroke: #000000; stroke-width: 0.8"/>
      </g>
     </g>
     <g id="text_36">
      <!-- 20 -->
      <g transform="translate(42.395 305.4633) scale(0.1 -0.1)">
       <use xlink:href="#DejaVuSans-32"/>
       <use xlink:href="#DejaVuSans-30" x="63.623047"/>
      </g>
     </g>
    </g>
    <g id="text_37">
     <!-- Input (Left) -->
     <g transform="translate(21.157187 441.454375) rotate(-90) scale(0.12 -0.12)">
      <defs>
       <path id="DejaVuSans-4c" d="M 628 4666 
L 1259 4666 
L 1259 531 
L 3531 531 
L 3531 0 
L 628 0 
L 628 4666 
z
" transform="scale(0.015625)"/>
       <path id="DejaVuSans-66" d="M 2375 4863 
L 2375 4384 
L 1825 4384 
Q 1516 4384 1395 4259 
Q 1275 4134 1275 3809 
L 1275 3500 
L 2222 3500 
L 2222 3053 
L 1275 3053 
L 1275 0 
L 697 0 
L 697 3053 
L 147 3053 
L 147 3500 
L 697 3500 
L 697 3744 
Q 697 4328 969 4595 
Q 1241 4863 1831 4863 
L 2375 4863 
z
" transform="scale(0.015625)"/>
      </defs>
      <use xlink:href="#DejaVuSans-49"/>
      <use xlink:href="#DejaVuSans-6e" x="29.492188"/>
      <use xlink:href="#DejaVuSans-70" x="92.871094"/>
      <use xlink:href="#DejaVuSans-75" x="156.347656"/>
      <use xlink:href="#DejaVuSans-74" x="219.726562"/>
      <use xlink:href="#DejaVuSans-20" x="258.935547"/>
      <use xlink:href="#DejaVuSans-28" x="290.722656"/>
      <use xlink:href="#DejaVuSans-4c" x="329.736328"/>
      <use xlink:href="#DejaVuSans-65" x="383.699219"/>
      <use xlink:href="#DejaVuSans-66" x="445.222656"/>
      <use xlink:href="#DejaVuSans-74" x="478.677734"/>
      <use xlink:href="#DejaVuSans-29" x="517.886719"/>
     </g>
    </g>
   </g>
   <g id="line2d_70">
    <path d="M 98.078182 339.600836 
L 187.928711 339.600836 
L 188.288113 296.112727 
L 188.647515 327.942382 
L 189.006917 331.192996 
L 189.725722 334.93468 
L 190.085124 334.13044 
L 190.444526 324.04089 
L 190.803928 325.135627 
L 191.882134 334.978892 
L 193.319743 349.305337 
L 194.397949 357.549232 
L 195.116753 361.887433 
L 195.476156 362.525324 
L 195.835558 361.101961 
L 196.554362 355.719232 
L 197.632568 363.285369 
L 197.99197 364.622452 
L 198.351372 365.32191 
L 198.710775 365.013383 
L 199.070177 363.953973 
L 199.788981 360.647843 
L 200.507785 356.442258 
L 201.226589 351.073241 
L 203.383002 331.921372 
L 204.101806 327.626438 
L 204.820611 324.712622 
L 205.180013 323.832783 
L 205.539415 323.322722 
L 205.898817 322.348895 
L 206.258219 315.840001 
L 206.617621 313.578724 
L 206.977023 313.005595 
L 207.336425 312.943941 
L 207.695828 313.246112 
L 208.05523 313.91373 
L 208.414632 314.946952 
L 209.133436 318.158572 
L 209.85224 322.923275 
L 211.649251 338.150089 
L 212.727457 342.66019 
L 213.446261 336.032578 
L 214.165066 336.071504 
L 215.962076 335.830608 
L 216.321478 495.87681 
L 216.68088 353.054723 
L 217.040283 354.626406 
L 217.399685 353.366082 
L 217.759087 351.489796 
L 219.9155 345.978859 
L 220.634304 344.462715 
L 224.228325 342.043739 
L 224.947129 341.294298 
L 225.306531 339.868972 
L 226.384738 333.578002 
L 227.462944 329.03857 
L 227.822346 328.23909 
L 228.181748 327.775455 
L 228.54115 327.670554 
L 228.900552 327.870718 
L 229.259955 328.534896 
L 229.978759 330.788177 
L 231.416367 336.371322 
L 231.775769 332.190706 
L 232.135172 321.742401 
L 232.494574 322.620222 
L 233.57278 330.754149 
L 236.088595 353.207594 
L 237.166801 360.290146 
L 237.526203 361.554196 
L 237.885605 360.465299 
L 238.245007 360.266475 
L 238.60441 363.386858 
L 238.963812 361.34092 
L 239.323214 356.319002 
L 239.682616 356.351449 
L 240.042018 359.750548 
L 240.40142 361.978812 
L 240.760822 363.401268 
L 241.120224 364.24519 
L 241.479627 364.046703 
L 241.839029 362.84436 
L 242.557833 359.183819 
L 243.276637 354.699463 
L 243.995441 348.965867 
L 245.43305 335.740258 
L 246.151854 330.798151 
L 246.870658 327.040078 
L 247.589463 324.632343 
L 247.948865 323.945906 
L 248.667669 323.280762 
L 249.027071 317.099972 
L 249.386473 314.900521 
L 249.745875 314.502971 
L 250.105277 314.56623 
L 250.464679 314.929914 
L 250.824082 315.619823 
L 251.183484 316.651326 
L 251.902288 319.760367 
L 252.621092 324.295223 
L 253.339896 330.648133 
L 254.058701 336.89444 
L 255.496309 342.977936 
L 255.855711 341.441965 
L 256.215113 336.703902 
L 256.933918 336.702567 
L 260.168537 336.10858 
L 260.527939 496.240226 
L 260.887341 352.161721 
L 261.606145 355.188214 
L 261.965547 355.988567 
L 262.324949 356.092504 
L 263.762558 350.272046 
L 264.840764 345.339044 
L 265.200166 344.200052 
L 265.559568 343.557603 
L 267.356579 342.577021 
L 269.15359 341.203569 
L 269.872394 340.705167 
L 270.591198 337.058577 
L 271.669404 332.285249 
L 272.388209 330.117392 
L 272.747611 329.245851 
L 273.107013 328.985375 
L 273.466415 328.930461 
L 273.825817 329.168542 
L 274.185219 329.670161 
L 274.904023 331.324674 
L 276.701034 336.834351 
L 277.060436 331.100789 
L 277.419838 322.804378 
L 277.77924 323.627827 
L 278.857447 329.73898 
L 279.216849 332.200124 
L 280.654457 344.453062 
L 282.092066 354.590597 
L 282.81087 358.355525 
L 283.170272 358.295046 
L 283.529674 358.759537 
L 283.889076 361.699975 
L 284.248478 359.317278 
L 284.607881 355.530299 
L 284.967283 354.531464 
L 285.686087 360.571579 
L 286.404891 364.079125 
L 286.764293 364.928122 
L 287.123695 364.934415 
L 287.483098 364.250747 
L 288.201902 361.865491 
L 288.920706 358.516 
L 290.358314 348.920246 
L 292.155325 335.260374 
L 292.874129 331.533036 
L 293.592934 328.695922 
L 293.952336 327.562564 
L 294.311738 327.038773 
L 294.67114 326.812848 
L 295.030542 321.362245 
L 295.389944 318.453444 
L 295.749346 317.478216 
L 296.108748 316.961628 
L 296.46815 316.72612 
L 296.827553 316.710517 
L 297.186955 316.935081 
L 297.546357 317.405023 
L 297.905759 318.124995 
L 298.265161 319.150442 
L 299.343367 324.352663 
L 300.062172 328.962903 
L 301.140378 337.262997 
L 301.859182 340.081878 
L 302.937389 343.487591 
L 303.296791 336.847537 
L 304.374997 336.785939 
L 306.53141 336.473352 
L 306.890812 496.568326 
L 307.250214 351.977001 
L 307.969018 354.929239 
L 308.32842 355.75687 
L 308.687822 355.622429 
L 309.766029 351.502907 
L 311.563039 343.95498 
L 311.922442 343.495258 
L 312.641246 343.421242 
L 313.719452 342.982878 
L 314.797658 342.636246 
L 315.157061 342.36656 
L 316.594669 342.13414 
L 318.751082 333.164477 
L 319.110484 332.133391 
L 319.469886 331.560918 
L 319.829288 331.205112 
L 320.18869 331.059684 
L 320.548092 331.112486 
L 320.907494 331.316503 
L 321.626299 332.730671 
L 323.423309 337.032849 
L 323.782711 332.473557 
L 324.142113 322.800802 
L 324.501516 323.151086 
L 326.298526 332.599151 
L 327.01733 338.713452 
L 328.814341 351.482308 
L 329.892547 357.162196 
L 330.251949 357.791428 
L 330.611352 360.188742 
L 330.970754 361.057278 
L 331.330156 357.152692 
L 331.689558 354.542265 
L 332.04896 355.030494 
L 332.767764 360.641544 
L 333.486569 364.314299 
L 333.845971 365.377052 
L 334.205373 365.585618 
L 334.924177 364.039358 
L 335.642981 361.595407 
L 336.002383 360.180106 
L 337.799394 349.971572 
L 338.8776 341.651959 
L 340.315209 333.327402 
L 341.034013 330.832789 
L 341.393415 329.914153 
L 342.112219 328.828465 
L 342.471621 323.365147 
L 342.831024 320.456153 
L 343.190426 319.359998 
L 343.90923 318.082176 
L 344.268632 317.895069 
L 344.628034 317.866363 
L 344.987436 318.038723 
L 345.346838 318.421263 
L 345.706241 319.01758 
L 346.784447 322.871955 
L 347.503251 326.328171 
L 349.300262 338.299149 
L 350.73787 342.853831 
L 351.097272 341.312439 
L 351.456674 337.085413 
L 352.534881 337.071706 
L 353.613087 336.952978 
L 353.972489 497.092632 
L 354.331891 351.88118 
L 355.050696 354.84685 
L 355.410098 354.601937 
L 356.847706 350.170597 
L 358.285315 344.608461 
L 358.644717 343.743023 
L 359.004119 343.223473 
L 359.363521 343.124278 
L 359.722923 343.435594 
L 360.441727 343.696687 
L 361.160532 343.566633 
L 362.238738 343.826839 
L 362.59814 343.641304 
L 364.035748 343.996891 
L 365.473357 338.56334 
L 365.832759 336.724358 
L 366.551563 334.725815 
L 367.62977 332.929624 
L 367.989172 332.976715 
L 368.348574 333.213726 
L 369.067378 334.074332 
L 370.864389 337.162243 
L 371.223791 333.495672 
L 371.583193 323.407456 
L 371.942595 323.20727 
L 372.661399 325.934597 
L 373.380204 328.864738 
L 373.739606 330.62795 
L 376.614823 350.192593 
L 376.974225 352.33537 
L 377.333627 355.315395 
L 377.693029 356.464308 
L 378.052431 355.798565 
L 378.771235 352.116978 
L 380.568246 363.543721 
L 380.927648 364.75523 
L 381.28705 365.458907 
L 381.646452 365.677156 
L 382.005854 365.449812 
L 382.365256 364.668168 
L 383.802865 360.407072 
L 384.521669 357.670592 
L 385.240473 355.283704 
L 385.599876 353.507774 
L 386.678082 346.869064 
L 388.11569 338.428591 
L 389.193897 334.124684 
L 389.912701 332.720647 
L 390.272103 330.376559 
L 390.631505 324.537395 
L 390.990907 322.410849 
L 391.709712 320.413769 
L 392.069114 319.66029 
L 392.428516 319.17051 
L 392.787918 318.898998 
L 393.14732 318.776661 
L 393.506722 318.815331 
L 393.866124 319.11673 
L 394.944331 321.4758 
L 395.303733 322.525958 
L 396.741341 329.461017 
L 397.100743 331.836679 
L 397.460145 335.415171 
L 398.17895 338.548676 
L 398.897754 340.710211 
L 399.616558 342.828494 
L 399.97596 341.315385 
L 400.335362 497.444241 
L 400.694764 352.115734 
L 401.054167 352.966999 
L 401.772971 349.598109 
L 402.132373 348.556767 
L 402.851177 347.100701 
L 403.929383 344.525494 
L 404.288786 344.009403 
L 404.648188 343.844433 
L 405.00759 343.854573 
L 405.366992 344.04045 
L 406.8046 345.244863 
L 407.164003 345.389998 
L 408.242209 346.342442 
L 408.601611 346.424177 
L 409.679817 347.409203 
L 410.398622 347.278067 
L 410.758024 346.766468 
L 411.117426 345.760115 
L 412.195632 340.101246 
L 413.273839 336.289462 
L 413.992643 335.320188 
L 414.711447 334.882111 
L 415.070849 335.010902 
L 416.86786 336.591781 
L 417.227262 336.651421 
L 417.946066 323.217599 
L 418.305468 323.52472 
L 419.024272 325.227728 
L 420.102479 329.884627 
L 420.821283 333.68264 
L 421.540087 339.028232 
L 422.977696 348.646763 
L 423.6965 353.46238 
L 424.415304 354.4623 
L 424.774706 353.069892 
L 425.134108 352.381917 
L 426.212315 359.623099 
L 426.931119 362.754191 
L 427.290521 363.884545 
L 427.649923 364.625401 
L 428.009325 364.995336 
L 428.368727 364.945476 
L 428.72813 364.390042 
L 430.52514 359.215287 
L 431.603347 357.401047 
L 432.681553 352.649716 
L 433.400357 348.692598 
L 433.759759 345.866214 
L 435.197368 338.943081 
L 435.916172 336.685963 
L 436.994378 333.456994 
L 437.35378 327.380223 
L 437.713182 324.104244 
L 438.431987 321.546106 
L 439.150791 320.150976 
L 439.510193 319.651843 
L 439.869595 319.460502 
L 440.588399 319.576118 
L 440.947802 319.837573 
L 441.307204 320.434894 
L 442.744812 324.658651 
L 443.463616 328.509157 
L 444.182421 332.794475 
L 444.541823 335.84389 
L 444.901225 337.894653 
L 445.979431 341.083996 
L 446.338833 512.147267 
L 446.698235 352.498522 
L 447.057638 351.870791 
L 447.776442 348.567496 
L 449.573452 344.757441 
L 449.932854 344.190962 
L 450.292257 344.002576 
L 451.011061 344.27396 
L 452.089267 345.314968 
L 452.808071 346.075334 
L 453.167474 346.290252 
L 454.24568 347.571708 
L 454.605082 347.663392 
L 455.323886 348.327275 
L 455.683288 348.571986 
L 456.04269 348.512532 
L 456.402093 348.332779 
L 456.761495 347.651278 
L 457.120897 346.461298 
L 458.558505 339.221328 
L 459.636712 336.026284 
L 459.996114 335.642527 
L 460.714918 335.326411 
L 461.07432 335.37428 
L 462.871331 337.068199 
L 463.230733 337.133051 
L 463.590135 328.638361 
L 463.949537 323.556155 
L 464.308939 324.122836 
L 465.387146 327.107377 
L 467.184156 337.338547 
L 468.981167 350.09079 
L 469.699971 351.724096 
L 470.418775 350.833594 
L 471.856384 360.645457 
L 472.575188 363.373497 
L 472.93459 364.183775 
L 473.293992 364.675554 
L 473.653394 364.694495 
L 474.012796 364.338346 
L 474.731601 362.862653 
L 475.450405 361.057947 
L 475.809807 360.636353 
L 476.528611 360.100289 
L 477.96622 356.49712 
L 479.044426 350.923553 
L 479.76323 346.700184 
L 480.122632 344.43749 
L 481.919643 337.219039 
L 482.638447 335.083024 
L 482.997849 332.557381 
L 483.357251 326.203559 
L 483.716653 323.888942 
L 484.435458 321.661241 
L 485.154262 320.314508 
L 485.873066 319.633722 
L 486.232468 319.758865 
L 486.951273 320.384494 
L 487.310675 320.904565 
L 487.670077 321.804847 
L 489.107685 327.224508 
L 490.904696 338.783954 
L 491.264098 519.967273 
L 491.6235 353.167406 
L 491.982902 351.870763 
L 492.701706 348.083951 
L 493.061109 346.977822 
L 494.498717 344.845178 
L 494.858119 344.596504 
L 495.217521 344.621746 
L 495.936325 344.966541 
L 496.295728 345.400569 
L 496.65513 345.559372 
L 498.092738 347.187534 
L 498.45214 347.444933 
L 499.530347 348.667509 
L 500.249151 348.889487 
L 500.967955 349.102564 
L 501.327357 348.999017 
L 502.764966 341.930303 
L 503.48377 338.347388 
L 504.202574 336.529522 
L 504.921378 335.277968 
L 505.280781 335.133453 
L 505.640183 335.290229 
L 506.358987 335.942684 
L 507.796595 337.545109 
L 508.155997 337.05793 
L 508.5154 325.856835 
L 508.874802 324.151838 
L 509.593606 325.894264 
L 511.031214 332.485133 
L 511.390617 334.571952 
L 512.109421 340.201959 
L 513.187627 347.691034 
L 513.547029 351.067989 
L 513.906431 352.569433 
L 514.265833 353.354282 
L 514.625236 353.091984 
L 514.984638 352.052662 
L 515.34404 352.795562 
L 516.062844 358.325743 
L 516.781648 362.396886 
L 517.500453 364.879316 
L 517.859855 365.662389 
L 518.219257 365.998633 
L 518.578659 365.808049 
L 518.938061 365.301534 
L 519.656865 363.73297 
L 520.375669 361.956694 
L 521.453876 360.42674 
L 522.891484 354.991061 
L 525.047897 341.965954 
L 525.766701 339.084936 
L 527.20431 334.150953 
L 527.923114 324.855321 
L 528.282516 323.209219 
L 529.00132 321.320592 
L 529.720124 320.140534 
L 530.079527 319.966559 
L 530.438929 319.95853 
L 530.798331 320.094698 
L 531.157733 320.397928 
L 531.517135 320.963286 
L 532.954744 325.638199 
L 534.03295 331.799164 
L 535.111156 339.339119 
L 535.82996 341.402456 
L 536.189363 515.756115 
L 536.548765 353.855935 
L 537.986373 347.502388 
L 539.423982 345.074917 
L 539.783384 344.790949 
L 540.142786 344.74632 
L 541.220992 345.721264 
L 542.299199 346.869709 
L 543.018003 347.834775 
L 544.096209 348.834089 
L 544.815013 349.492227 
L 545.89322 349.431851 
L 546.252622 348.982514 
L 546.612024 347.874391 
L 546.971426 345.172898 
L 548.049632 339.890033 
L 548.768437 336.937252 
L 549.487241 335.655352 
L 549.846643 335.33118 
L 550.206045 335.165778 
L 550.565447 335.185741 
L 551.284252 336.036484 
L 552.72186 337.843371 
L 553.081262 336.712532 
L 553.440664 325.620165 
L 553.800066 324.746634 
L 555.237675 329.938015 
L 557.034685 341.854051 
L 557.75349 347.456427 
L 558.472294 352.128176 
L 558.831696 355.037923 
L 559.191098 356.450275 
L 559.5505 356.843289 
L 559.909902 354.948472 
L 560.269304 353.786881 
L 560.628707 355.931798 
L 561.347511 361.890046 
L 562.066315 365.202048 
L 562.425717 366.187985 
L 562.785119 366.667956 
L 563.144521 366.750149 
L 563.503923 366.462397 
L 563.863326 365.865285 
L 565.300934 362.155694 
L 565.660336 361.524397 
L 566.738543 358.316186 
L 567.457347 355.390025 
L 568.535553 348.348395 
L 569.973162 340.230693 
L 571.41077 334.77937 
L 571.770172 333.846785 
L 572.129574 331.976482 
L 572.488976 325.941081 
L 572.848379 323.534208 
L 573.207781 322.321323 
L 573.926585 320.873676 
L 574.285987 320.394025 
L 574.645389 320.158479 
L 575.364193 320.450093 
L 575.723595 320.822301 
L 576.082998 321.376501 
L 576.801802 323.714615 
L 577.520606 326.481218 
L 577.880008 328.160691 
L 579.677019 339.844121 
L 580.395823 342.298485 
L 580.755225 515.104084 
L 581.114627 354.448857 
L 581.833431 350.945088 
L 582.552236 348.153327 
L 583.27104 346.784473 
L 583.989844 345.489779 
L 584.349246 345.240117 
L 584.708648 345.240341 
L 586.505659 346.827824 
L 588.30267 348.716579 
L 589.380876 349.546939 
L 589.740278 349.707976 
L 590.459082 349.317425 
L 590.818484 348.477174 
L 591.537289 345.143388 
L 592.256093 340.784117 
L 592.974897 338.025066 
L 593.693701 335.992626 
L 594.053103 335.405695 
L 594.412506 335.228846 
L 594.771908 335.271477 
L 595.490712 335.866865 
L 597.287723 338.61763 
L 597.647125 336.242122 
L 598.006527 325.773498 
L 598.365929 325.447929 
L 599.084733 328.070614 
L 600.522342 335.877934 
L 602.678754 352.621116 
L 603.038156 354.123935 
L 603.397558 355.12043 
L 604.116363 352.79388 
L 604.475765 354.110575 
L 605.194569 360.898256 
L 605.913373 364.88503 
L 606.272775 366.158012 
L 606.632178 366.923 
L 606.99158 367.215184 
L 607.350982 367.122185 
L 607.710384 366.736436 
L 608.069786 366.086619 
L 608.78859 364.349046 
L 609.866797 362.596758 
L 611.304405 357.934696 
L 611.663807 356.242074 
L 612.382611 351.400678 
L 614.179622 340.808154 
L 615.61723 335.010645 
L 615.976633 333.934872 
L 616.336035 331.357954 
L 616.695437 325.647262 
L 617.054839 323.548766 
L 617.414241 322.345597 
L 618.133045 320.935357 
L 618.85185 320.228625 
L 619.211252 320.386065 
L 619.570654 320.6735 
L 619.930056 321.120509 
L 620.64886 322.606503 
L 622.086469 329.071245 
L 622.445871 330.977504 
L 623.524077 339.079424 
L 623.883479 340.672664 
L 624.242881 341.759352 
L 624.602283 518.122844 
L 624.961686 354.965071 
L 625.68049 350.964008 
L 626.399294 347.788951 
L 627.836902 345.783613 
L 628.196305 345.69532 
L 628.915109 346.052521 
L 629.274511 346.265399 
L 630.352717 347.513784 
L 630.712119 347.824765 
L 632.149728 349.553239 
L 632.50913 349.651711 
L 633.227934 350.129778 
L 633.946738 350.258721 
L 634.306141 349.803616 
L 634.665543 348.594161 
L 635.743749 342.969072 
L 636.462553 338.969686 
L 637.181358 336.802574 
L 637.900162 335.431296 
L 638.259564 335.104255 
L 638.618966 335.223959 
L 638.978368 335.543275 
L 639.697172 336.573108 
L 640.775379 338.55123 
L 641.134781 338.928324 
L 641.494183 336.034765 
L 641.853585 326.337475 
L 642.212987 326.298552 
L 643.291193 330.601349 
L 645.088204 343.039906 
L 645.807008 348.806433 
L 646.525813 353.652945 
L 646.885215 356.42278 
L 647.244617 357.353253 
L 647.604019 357.406776 
L 647.963421 354.899492 
L 648.322823 354.471761 
L 649.401029 363.446777 
L 650.119834 366.629368 
L 650.479236 367.548628 
L 650.838638 368.031802 
L 651.19804 367.955557 
L 651.557442 367.518536 
L 652.635649 365.36287 
L 654.432659 360.720208 
L 655.151463 356.953929 
L 655.870268 352.851463 
L 657.667278 341.548415 
L 659.104887 335.396265 
L 659.464289 334.329447 
L 659.823691 332.719113 
L 660.183093 326.722949 
L 660.542495 324.046793 
L 661.261299 321.996733 
L 661.980104 320.827214 
L 662.339506 320.611907 
L 662.698908 320.702515 
L 663.05831 320.92438 
L 663.417712 321.344215 
L 663.777114 321.964454 
L 664.136516 322.923922 
L 665.574125 329.270766 
L 665.933527 331.357057 
L 667.011733 339.432092 
L 667.371135 341.11115 
L 668.449342 344.703793 
L 668.808744 510.198082 
L 669.168146 355.398303 
L 669.527548 352.48788 
L 670.965157 347.574426 
L 672.043363 345.80241 
L 672.402765 345.695379 
L 673.121569 346.260141 
L 673.480971 346.577524 
L 674.559178 348.011344 
L 674.91858 348.332321 
L 676.356188 350.203438 
L 677.434395 350.723517 
L 678.153199 350.776061 
L 678.512601 350.502783 
L 679.231405 346.909151 
L 681.028416 337.766396 
L 681.74722 336.115955 
L 682.466024 335.293077 
L 682.825426 335.325212 
L 683.184828 335.688282 
L 683.903633 336.818003 
L 685.341241 339.239227 
L 685.700643 335.977043 
L 686.060045 326.455204 
L 686.419448 326.940205 
L 687.497654 331.672503 
L 687.857056 333.592071 
L 691.091675 357.756238 
L 691.451077 358.520955 
L 691.810479 358.024608 
L 692.169881 356.130748 
L 692.529284 356.059071 
L 693.248088 362.703597 
L 693.966892 366.558239 
L 694.326294 367.589738 
L 694.685696 368.105803 
L 695.045098 368.233764 
L 695.4045 368.030634 
L 695.763903 367.514013 
L 696.842109 364.926381 
L 697.560913 363.496915 
L 698.998522 358.382024 
L 699.357924 356.625498 
L 701.873739 340.505765 
L 702.951945 336.333251 
L 704.030151 332.277843 
L 704.389553 326.388702 
L 704.748956 323.822669 
L 705.46776 321.85247 
L 705.827162 321.32896 
L 706.186564 321.019399 
L 706.545966 320.899984 
L 706.905368 320.97714 
L 707.26477 321.266142 
L 708.342977 324.053213 
L 709.061781 326.818709 
L 710.499389 335.952521 
L 711.218194 341.122952 
L 711.936998 343.551652 
L 712.2964 344.636542 
L 712.655802 512.29754 
L 713.015204 355.568635 
L 713.374606 352.110173 
L 714.452813 348.221661 
L 715.171617 347.041568 
L 715.531019 346.443708 
L 715.890421 346.115758 
L 716.249823 346.141537 
L 719.12504 349.287375 
L 720.203247 350.615987 
L 720.562649 350.920317 
L 720.922051 350.893076 
L 721.640855 351.059308 
L 722.000257 350.965856 
L 722.359659 350.620691 
L 722.719061 349.003547 
L 723.437866 344.671815 
L 724.516072 339.258727 
L 724.875474 337.629451 
L 725.594278 336.097096 
L 725.95368 335.707445 
L 726.313083 335.556543 
L 726.672485 335.567978 
L 727.031887 335.954862 
L 727.750691 337.282899 
L 729.188299 340.056345 
L 729.547702 336.535134 
L 729.907104 327.095258 
L 730.266506 327.286526 
L 731.704114 334.796255 
L 732.422919 339.909064 
L 733.141723 345.96268 
L 734.579331 355.838874 
L 734.938733 357.179379 
L 735.298135 355.353294 
L 735.657538 354.178705 
L 736.01694 355.598581 
L 736.735744 363.046763 
L 737.454548 366.93515 
L 737.81395 368.019564 
L 738.173352 368.596986 
L 738.532755 368.690738 
L 738.892157 368.408618 
L 739.610961 367.329548 
L 740.329765 366.126284 
L 741.048569 364.720262 
L 741.767374 363.099872 
L 742.126776 361.946688 
L 743.923786 351.615462 
L 745.001993 344.242179 
L 746.439601 337.187977 
L 747.517807 333.159828 
L 747.87721 327.355485 
L 748.236612 324.493566 
L 748.596014 323.21619 
L 749.314818 321.730643 
L 749.67422 321.276082 
L 750.033622 321.014303 
L 750.752427 321.49797 
L 751.111829 321.999135 
L 751.830633 323.644064 
L 752.549437 326.829685 
L 753.268241 330.550929 
L 753.987046 334.93737 
L 754.346448 338.73262 
L 754.70585 340.925575 
L 755.424654 343.451096 
L 755.784056 344.560271 
L 756.143458 514.413166 
L 756.50286 355.542374 
L 756.862263 351.59535 
L 757.581067 348.800854 
L 758.299871 347.670529 
L 759.018675 346.680681 
L 759.378077 346.568412 
L 759.737479 346.788194 
L 760.096882 347.198097 
L 760.456284 347.358413 
L 761.53449 348.591198 
L 762.253294 349.549037 
L 762.972098 350.432139 
L 764.050305 351.617513 
L 765.487913 351.587122 
L 765.847315 351.138262 
L 766.206718 349.675737 
L 766.925522 344.979432 
L 768.003728 339.543328 
L 768.36313 337.937796 
L 768.722532 336.894735 
L 769.081934 336.243629 
L 769.441337 335.84525 
L 769.800739 335.692793 
L 770.160141 335.761884 
L 770.519543 336.056229 
L 771.238347 337.38461 
L 772.675956 340.21608 
L 773.035358 337.269363 
L 773.39476 327.722196 
L 773.754162 327.886256 
L 774.113564 329.428059 
L 775.551173 338.019103 
L 776.269977 343.905054 
L 776.988781 349.420207 
L 778.42639 358.456799 
L 778.785792 357.460754 
L 779.145194 355.465989 
L 779.504596 355.330326 
L 780.2234 362.924398 
L 780.942204 367.285358 
L 781.301606 368.497519 
L 781.661009 369.106287 
L 782.020411 369.265689 
L 782.379813 368.938254 
L 783.817421 366.692783 
L 784.176823 366.041045 
L 785.25503 363.327699 
L 785.973834 360.560863 
L 788.849051 342.103205 
L 790.286659 335.711168 
L 790.646062 334.426425 
L 791.005464 332.37862 
L 791.364866 326.720945 
L 791.724268 324.489124 
L 792.443072 322.489869 
L 793.161876 321.579283 
L 793.521278 321.419726 
L 793.880681 321.461435 
L 794.240083 321.922904 
L 794.958887 323.461392 
L 795.677691 325.786615 
L 796.037093 327.340923 
L 798.193506 341.94192 
L 799.271712 345.457431 
L 799.631114 513.226778 
L 799.990517 356.542303 
L 800.349919 353.085357 
L 801.787527 348.288847 
L 802.506331 346.960071 
L 802.865733 346.572453 
L 803.225136 346.560239 
L 804.662744 348.211373 
L 807.537961 351.761779 
L 807.897363 351.910912 
L 808.975569 351.631478 
L 809.334972 350.985845 
L 809.694374 349.572918 
L 810.413178 344.682295 
L 811.491384 339.341492 
L 812.210189 336.776419 
L 812.569591 336.105742 
L 812.928993 335.749621 
L 813.288395 335.650571 
L 813.647797 335.805684 
L 814.007199 336.159988 
L 814.726003 337.57667 
L 815.80421 339.918665 
L 816.163612 340.574831 
L 816.523014 339.289103 
L 816.882416 328.891159 
L 817.241818 328.698645 
L 817.241818 328.698645 
" clip-path="url(#pd263e0b52d)" style="fill: none; stroke: #0000ff; stroke-linecap: square"/>
   </g>
   <g id="patch_8">
    <path d="M 62.12 531.16 
L 62.12 284.92 
" style="fill: none; stroke: #000000; stroke-width: 0.8; stroke-linejoin: miter; stroke-linecap: square"/>
   </g>
   <g id="patch_9">
    <path d="M 853.2 531.16 
L 853.2 284.92 
" style="fill: none; stroke: #000000; stroke-width: 0.8; stroke-linejoin: miter; stroke-linecap: square"/>
   </g>
   <g id="patch_10">
    <path d="M 62.12 531.16 
L 853.2 531.16 
" style="fill: none; stroke: #000000; stroke-width: 0.8; stroke-linejoin: miter; stroke-linecap: square"/>
   </g>
   <g id="patch_11">
    <path d="M 62.12 284.92 
L 853.2 284.92 
" style="fill: none; stroke: #000000; stroke-width: 0.8; stroke-linejoin: miter; stroke-linecap: square"/>
   </g>
  </g>
 </g>
 <defs>
  <clipPath id="p48674c0f16">
   <rect x="62.12" y="10.8" width="791.08" height="246.24"/>
  </clipPath>
  <clipPath id="pd263e0b52d">
   <rect x="62.12" y="284.92" width="791.08" height="246.24"/>
  </clipPath>
 </defs>
</svg>
