<?xml version="1.0" encoding="utf-8" standalone="no"?>
<!DOCTYPE svg PUBLIC "-//W3C//DTD SVG 1.1//EN"
  "http://www.w3.org/Graphics/SVG/1.1/DTD/svg11.dtd">
<svg xmlns:xlink="http://www.w3.org/1999/xlink" width="460.8pt" height="345.6pt" viewBox="0 0 460.8 345.6" xmlns="http://www.w3.org/2000/svg" version="1.1">
 <metadata>
  <rdf:RDF xmlns:dc="http://purl.org/dc/elements/1.1/" xmlns:cc="http://creativecommons.org/ns#" xmlns:rdf="http://www.w3.org/1999/02/22-rdf-syntax-ns#">
   <cc:Work>
    <dc:type rdf:resource="http://purl.org/dc/dcmitype/StillImage"/>
    <dc:date>2025-11-25T18:32:59.146801</dc:date>
    <dc:format>image/svg+xml</dc:format>
    <dc:creator>
     <cc:Agent>
      <dc:title>Matplotlib v3.9.4, https://matplotlib.org/</dc:title>
     </cc:Agent>
    </dc:creator>
   </cc:Work>
  </rdf:RDF>
 </metadata>
 <defs>
  <style type="text/css">*{stroke-linejoin: round; stroke-linecap: butt}</style>
 </defs>
 <g id="figure_1">
  <g id="patch_1">
   <path d="M 0 345.6 
L 460.8 345.6 
L 460.8 0 
L 0 0 
z
" style="fill: #ffffff"/>
  </g>
  <g id="axes_1">
   <g id="patch_2">
    <path d="M 57.6 307.584 
L 414.72 307.584 
L 414.72 41.472 
L 57.6 41.472 
z
" style="fill: #ffffff"/>
   </g>
   <g id="PathCollection_1">
    <defs>
     <path id="m94815d6c66" d="M 0 3 
C 0.795609 3 1.55874 2.683901 2.12132 2.12132 
C 2.683901 1.55874 3 0.795609 3 0 
C 3 -0.795609 2.683901 -1.55874 2.12132 -2.12132 
C 1.55874 -2.683901 0.795609 -3 0 -3 
C -0.795609 -3 -1.55874 -2.683901 -2.12132 -2.12132 
C -2.683901 -1.55874 -3 -0.795609 -3 0 
C -3 0.795609 -2.683901 1.55874 -2.12132 2.12132 
C -1.55874 2.683901 -0.795609 3 0 3 
z
" style="stroke: #000000"/>
    </defs>
    <g clip-path="url(#pfe452793e7)">
     <use xlink:href="#m94815d6c66" x="235.626266" y="189.954598" style="stroke: #000000"/>
     <use xlink:href="#m94815d6c66" x="236.144131" y="189.954598" style="stroke: #000000"/>
     <use xlink:href="#m94815d6c66" x="205.749034" y="189.954598" style="stroke: #000000"/>
     <use xlink:href="#m94815d6c66" x="209.38175" y="189.954598" style="stroke: #000000"/>
     <use xlink:href="#m94815d6c66" x="204.543881" y="189.954598" style="stroke: #000000"/>
     <use xlink:href="#m94815d6c66" x="205.920503" y="189.954598" style="stroke: #000000"/>
     <use xlink:href="#m94815d6c66" x="204.01785" y="189.954598" style="stroke: #000000"/>
     <use xlink:href="#m94815d6c66" x="201.268782" y="189.954598" style="stroke: #000000"/>
     <use xlink:href="#m94815d6c66" x="201.877208" y="189.954598" style="stroke: #000000"/>
     <use xlink:href="#m94815d6c66" x="199.95921" y="189.954598" style="stroke: #000000"/>
     <use xlink:href="#m94815d6c66" x="199.644086" y="189.954598" style="stroke: #000000"/>
     <use xlink:href="#m94815d6c66" x="196.233754" y="189.954598" style="stroke: #000000"/>
     <use xlink:href="#m94815d6c66" x="196.755752" y="189.954598" style="stroke: #000000"/>
     <use xlink:href="#m94815d6c66" x="197.496664" y="189.954598" style="stroke: #000000"/>
     <use xlink:href="#m94815d6c66" x="202.810759" y="189.954598" style="stroke: #000000"/>
     <use xlink:href="#m94815d6c66" x="291.16" y="189.954598" style="stroke: #000000"/>
     <use xlink:href="#m94815d6c66" x="73.835283" y="189.954598" style="stroke: #000000"/>
     <use xlink:href="#m94815d6c66" x="228.314625" y="189.954598" style="stroke: #000000"/>
    </g>
   </g>
   <g id="matplotlib.axis_1">
    <g id="xtick_1">
     <g id="line2d_1">
      <path d="M 93.184865 307.584 
L 93.184865 41.472 
" clip-path="url(#pfe452793e7)" style="fill: none; stroke: #b0b0b0; stroke-width: 0.8; stroke-linecap: square"/>
     </g>
     <g id="line2d_2">
      <defs>
       <path id="mf2a2d1a872" d="M 0 0 
L 0 3.5 
" style="stroke: #000000; stroke-width: 0.8"/>
      </defs>
      <g>
       <use xlink:href="#mf2a2d1a872" x="93.184865" y="307.584" style="stroke: #000000; stroke-width: 0.8"/>
      </g>
     </g>
     <g id="text_1">
      <!-- −2.0 -->
      <g transform="translate(81.043459 322.182437) scale(0.1 -0.1)">
       <defs>
        <path id="DejaVuSans-2212" d="M 678 2272 
L 4684 2272 
L 4684 1741 
L 678 1741 
L 678 2272 
z
" transform="scale(0.015625)"/>
        <path id="DejaVuSans-32" d="M 1228 531 
L 3431 531 
L 3431 0 
L 469 0 
L 469 531 
Q 828 903 1448 1529 
Q 2069 2156 2228 2338 
Q 2531 2678 2651 2914 
Q 2772 3150 2772 3378 
Q 2772 3750 2511 3984 
Q 2250 4219 1831 4219 
Q 1534 4219 1204 4116 
Q 875 4013 500 3803 
L 500 4441 
Q 881 4594 1212 4672 
Q 1544 4750 1819 4750 
Q 2544 4750 2975 4387 
Q 3406 4025 3406 3419 
Q 3406 3131 3298 2873 
Q 3191 2616 2906 2266 
Q 2828 2175 2409 1742 
Q 1991 1309 1228 531 
z
" transform="scale(0.015625)"/>
        <path id="DejaVuSans-2e" d="M 684 794 
L 1344 794 
L 1344 0 
L 684 0 
L 684 794 
z
" transform="scale(0.015625)"/>
        <path id="DejaVuSans-30" d="M 2034 4250 
Q 1547 4250 1301 3770 
Q 1056 3291 1056 2328 
Q 1056 1369 1301 889 
Q 1547 409 2034 409 
Q 2525 409 2770 889 
Q 3016 1369 3016 2328 
Q 3016 3291 2770 3770 
Q 2525 4250 2034 4250 
z
M 2034 4750 
Q 2819 4750 3233 4129 
Q 3647 3509 3647 2328 
Q 3647 1150 3233 529 
Q 2819 -91 2034 -91 
Q 1250 -91 836 529 
Q 422 1150 422 2328 
Q 422 3509 836 4129 
Q 1250 4750 2034 4750 
z
" transform="scale(0.015625)"/>
       </defs>
       <use xlink:href="#DejaVuSans-2212"/>
       <use xlink:href="#DejaVuSans-32" x="83.789062"/>
       <use xlink:href="#DejaVuSans-2e" x="147.412109"/>
       <use xlink:href="#DejaVuSans-30" x="179.199219"/>
      </g>
     </g>
    </g>
    <g id="xtick_2">
     <g id="line2d_3">
      <path d="M 170.638468 307.584 
L 170.638468 41.472 
" clip-path="url(#pfe452793e7)" style="fill: none; stroke: #b0b0b0; stroke-width: 0.8; stroke-linecap: square"/>
     </g>
     <g id="line2d_4">
      <g>
       <use xlink:href="#mf2a2d1a872" x="170.638468" y="307.584" style="stroke: #000000; stroke-width: 0.8"/>
      </g>
     </g>
     <g id="text_2">
      <!-- −1.5 -->
      <g transform="translate(158.497061 322.182437) scale(0.1 -0.1)">
       <defs>
        <path id="DejaVuSans-31" d="M 794 531 
L 1825 531 
L 1825 4091 
L 703 3866 
L 703 4441 
L 1819 4666 
L 2450 4666 
L 2450 531 
L 3481 531 
L 3481 0 
L 794 0 
L 794 531 
z
" transform="scale(0.015625)"/>
        <path id="DejaVuSans-35" d="M 691 4666 
L 3169 4666 
L 3169 4134 
L 1269 4134 
L 1269 2991 
Q 1406 3038 1543 3061 
Q 1681 3084 1819 3084 
Q 2600 3084 3056 2656 
Q 3513 2228 3513 1497 
Q 3513 744 3044 326 
Q 2575 -91 1722 -91 
Q 1428 -91 1123 -41 
Q 819 9 494 109 
L 494 744 
Q 775 591 1075 516 
Q 1375 441 1709 441 
Q 2250 441 2565 725 
Q 2881 1009 2881 1497 
Q 2881 1984 2565 2268 
Q 2250 2553 1709 2553 
Q 1456 2553 1204 2497 
Q 953 2441 691 2322 
L 691 4666 
z
" transform="scale(0.015625)"/>
       </defs>
       <use xlink:href="#DejaVuSans-2212"/>
       <use xlink:href="#DejaVuSans-31" x="83.789062"/>
       <use xlink:href="#DejaVuSans-2e" x="147.412109"/>
       <use xlink:href="#DejaVuSans-35" x="179.199219"/>
      </g>
     </g>
    </g>
    <g id="xtick_3">
     <g id="line2d_5">
      <path d="M 248.09207 307.584 
L 248.09207 41.472 
" clip-path="url(#pfe452793e7)" style="fill: none; stroke: #b0b0b0; stroke-width: 0.8; stroke-linecap: square"/>
     </g>
     <g id="line2d_6">
      <g>
       <use xlink:href="#mf2a2d1a872" x="248.09207" y="307.584" style="stroke: #000000; stroke-width: 0.8"/>
      </g>
     </g>
     <g id="text_3">
      <!-- −1.0 -->
      <g transform="translate(235.950664 322.182437) scale(0.1 -0.1)">
       <use xlink:href="#DejaVuSans-2212"/>
       <use xlink:href="#DejaVuSans-31" x="83.789062"/>
       <use xlink:href="#DejaVuSans-2e" x="147.412109"/>
       <use xlink:href="#DejaVuSans-30" x="179.199219"/>
      </g>
     </g>
    </g>
    <g id="xtick_4">
     <g id="line2d_7">
      <path d="M 325.545673 307.584 
L 325.545673 41.472 
" clip-path="url(#pfe452793e7)" style="fill: none; stroke: #b0b0b0; stroke-width: 0.8; stroke-linecap: square"/>
     </g>
     <g id="line2d_8">
      <g>
       <use xlink:href="#mf2a2d1a872" x="325.545673" y="307.584" style="stroke: #000000; stroke-width: 0.8"/>
      </g>
     </g>
     <g id="text_4">
      <!-- −0.5 -->
      <g transform="translate(313.404266 322.182437) scale(0.1 -0.1)">
       <use xlink:href="#DejaVuSans-2212"/>
       <use xlink:href="#DejaVuSans-30" x="83.789062"/>
       <use xlink:href="#DejaVuSans-2e" x="147.412109"/>
       <use xlink:href="#DejaVuSans-35" x="179.199219"/>
      </g>
     </g>
    </g>
    <g id="xtick_5">
     <g id="line2d_9">
      <path d="M 402.999275 307.584 
L 402.999275 41.472 
" clip-path="url(#pfe452793e7)" style="fill: none; stroke: #b0b0b0; stroke-width: 0.8; stroke-linecap: square"/>
     </g>
     <g id="line2d_10">
      <g>
       <use xlink:href="#mf2a2d1a872" x="402.999275" y="307.584" style="stroke: #000000; stroke-width: 0.8"/>
      </g>
     </g>
     <g id="text_5">
      <!-- 0.0 -->
      <g transform="translate(395.047713 322.182437) scale(0.1 -0.1)">
       <use xlink:href="#DejaVuSans-30"/>
       <use xlink:href="#DejaVuSans-2e" x="63.623047"/>
       <use xlink:href="#DejaVuSans-30" x="95.410156"/>
      </g>
     </g>
    </g>
    <g id="text_6">
     <!-- Angle (rad) -->
     <g transform="translate(208.146719 335.860562) scale(0.1 -0.1)">
      <defs>
       <path id="DejaVuSans-41" d="M 2188 4044 
L 1331 1722 
L 3047 1722 
L 2188 4044 
z
M 1831 4666 
L 2547 4666 
L 4325 0 
L 3669 0 
L 3244 1197 
L 1141 1197 
L 716 0 
L 50 0 
L 1831 4666 
z
" transform="scale(0.015625)"/>
       <path id="DejaVuSans-6e" d="M 3513 2113 
L 3513 0 
L 2938 0 
L 2938 2094 
Q 2938 2591 2744 2837 
Q 2550 3084 2163 3084 
Q 1697 3084 1428 2787 
Q 1159 2491 1159 1978 
L 1159 0 
L 581 0 
L 581 3500 
L 1159 3500 
L 1159 2956 
Q 1366 3272 1645 3428 
Q 1925 3584 2291 3584 
Q 2894 3584 3203 3211 
Q 3513 2838 3513 2113 
z
" transform="scale(0.015625)"/>
       <path id="DejaVuSans-67" d="M 2906 1791 
Q 2906 2416 2648 2759 
Q 2391 3103 1925 3103 
Q 1463 3103 1205 2759 
Q 947 2416 947 1791 
Q 947 1169 1205 825 
Q 1463 481 1925 481 
Q 2391 481 2648 825 
Q 2906 1169 2906 1791 
z
M 3481 434 
Q 3481 -459 3084 -895 
Q 2688 -1331 1869 -1331 
Q 1566 -1331 1297 -1286 
Q 1028 -1241 775 -1147 
L 775 -588 
Q 1028 -725 1275 -790 
Q 1522 -856 1778 -856 
Q 2344 -856 2625 -561 
Q 2906 -266 2906 331 
L 2906 616 
Q 2728 306 2450 153 
Q 2172 0 1784 0 
Q 1141 0 747 490 
Q 353 981 353 1791 
Q 353 2603 747 3093 
Q 1141 3584 1784 3584 
Q 2172 3584 2450 3431 
Q 2728 3278 2906 2969 
L 2906 3500 
L 3481 3500 
L 3481 434 
z
" transform="scale(0.015625)"/>
       <path id="DejaVuSans-6c" d="M 603 4863 
L 1178 4863 
L 1178 0 
L 603 0 
L 603 4863 
z
" transform="scale(0.015625)"/>
       <path id="DejaVuSans-65" d="M 3597 1894 
L 3597 1613 
L 953 1613 
Q 991 1019 1311 708 
Q 1631 397 2203 397 
Q 2534 397 2845 478 
Q 3156 559 3463 722 
L 3463 178 
Q 3153 47 2828 -22 
Q 2503 -91 2169 -91 
Q 1331 -91 842 396 
Q 353 884 353 1716 
Q 353 2575 817 3079 
Q 1281 3584 2069 3584 
Q 2775 3584 3186 3129 
Q 3597 2675 3597 1894 
z
M 3022 2063 
Q 3016 2534 2758 2815 
Q 2500 3097 2075 3097 
Q 1594 3097 1305 2825 
Q 1016 2553 972 2059 
L 3022 2063 
z
" transform="scale(0.015625)"/>
       <path id="DejaVuSans-20" transform="scale(0.015625)"/>
       <path id="DejaVuSans-28" d="M 1984 4856 
Q 1566 4138 1362 3434 
Q 1159 2731 1159 2009 
Q 1159 1288 1364 580 
Q 1569 -128 1984 -844 
L 1484 -844 
Q 1016 -109 783 600 
Q 550 1309 550 2009 
Q 550 2706 781 3412 
Q 1013 4119 1484 4856 
L 1984 4856 
z
" transform="scale(0.015625)"/>
       <path id="DejaVuSans-72" d="M 2631 2963 
Q 2534 3019 2420 3045 
Q 2306 3072 2169 3072 
Q 1681 3072 1420 2755 
Q 1159 2438 1159 1844 
L 1159 0 
L 581 0 
L 581 3500 
L 1159 3500 
L 1159 2956 
Q 1341 3275 1631 3429 
Q 1922 3584 2338 3584 
Q 2397 3584 2469 3576 
Q 2541 3569 2628 3553 
L 2631 2963 
z
" transform="scale(0.015625)"/>
       <path id="DejaVuSans-61" d="M 2194 1759 
Q 1497 1759 1228 1600 
Q 959 1441 959 1056 
Q 959 750 1161 570 
Q 1363 391 1709 391 
Q 2188 391 2477 730 
Q 2766 1069 2766 1631 
L 2766 1759 
L 2194 1759 
z
M 3341 1997 
L 3341 0 
L 2766 0 
L 2766 531 
Q 2569 213 2275 61 
Q 1981 -91 1556 -91 
Q 1019 -91 701 211 
Q 384 513 384 1019 
Q 384 1609 779 1909 
Q 1175 2209 1959 2209 
L 2766 2209 
L 2766 2266 
Q 2766 2663 2505 2880 
Q 2244 3097 1772 3097 
Q 1472 3097 1187 3025 
Q 903 2953 641 2809 
L 641 3341 
Q 956 3463 1253 3523 
Q 1550 3584 1831 3584 
Q 2591 3584 2966 3190 
Q 3341 2797 3341 1997 
z
" transform="scale(0.015625)"/>
       <path id="DejaVuSans-64" d="M 2906 2969 
L 2906 4863 
L 3481 4863 
L 3481 0 
L 2906 0 
L 2906 525 
Q 2725 213 2448 61 
Q 2172 -91 1784 -91 
Q 1150 -91 751 415 
Q 353 922 353 1747 
Q 353 2572 751 3078 
Q 1150 3584 1784 3584 
Q 2172 3584 2448 3432 
Q 2725 3281 2906 2969 
z
M 947 1747 
Q 947 1113 1208 752 
Q 1469 391 1925 391 
Q 2381 391 2643 752 
Q 2906 1113 2906 1747 
Q 2906 2381 2643 2742 
Q 2381 3103 1925 3103 
Q 1469 3103 1208 2742 
Q 947 2381 947 1747 
z
" transform="scale(0.015625)"/>
       <path id="DejaVuSans-29" d="M 513 4856 
L 1013 4856 
Q 1481 4119 1714 3412 
Q 1947 2706 1947 2009 
Q 1947 1309 1714 600 
Q 1481 -109 1013 -844 
L 513 -844 
Q 928 -128 1133 580 
Q 1338 1288 1338 2009 
Q 1338 2731 1133 3434 
Q 928 4138 513 4856 
z
" transform="scale(0.015625)"/>
      </defs>
      <use xlink:href="#DejaVuSans-41"/>
      <use xlink:href="#DejaVuSans-6e" x="68.408203"/>
      <use xlink:href="#DejaVuSans-67" x="131.787109"/>
      <use xlink:href="#DejaVuSans-6c" x="195.263672"/>
      <use xlink:href="#DejaVuSans-65" x="223.046875"/>
      <use xlink:href="#DejaVuSans-20" x="284.570312"/>
      <use xlink:href="#DejaVuSans-28" x="316.357422"/>
      <use xlink:href="#DejaVuSans-72" x="355.371094"/>
      <use xlink:href="#DejaVuSans-61" x="396.484375"/>
      <use xlink:href="#DejaVuSans-64" x="457.763672"/>
      <use xlink:href="#DejaVuSans-29" x="521.240234"/>
     </g>
    </g>
   </g>
   <g id="matplotlib.axis_2">
    <g id="ytick_1">
     <g id="line2d_11">
      <path d="M 57.6 277.988656 
L 414.72 277.988656 
" clip-path="url(#pfe452793e7)" style="fill: none; stroke: #b0b0b0; stroke-width: 0.8; stroke-linecap: square"/>
     </g>
     <g id="line2d_12">
      <defs>
       <path id="m80a3e4a396" d="M 0 0 
L -3.5 0 
" style="stroke: #000000; stroke-width: 0.8"/>
      </defs>
      <g>
       <use xlink:href="#m80a3e4a396" x="57.6" y="277.988656" style="stroke: #000000; stroke-width: 0.8"/>
      </g>
     </g>
     <g id="text_7">
      <!-- −10 -->
      <g transform="translate(29.495313 281.787875) scale(0.1 -0.1)">
       <use xlink:href="#DejaVuSans-2212"/>
       <use xlink:href="#DejaVuSans-31" x="83.789062"/>
       <use xlink:href="#DejaVuSans-30" x="147.412109"/>
      </g>
     </g>
    </g>
    <g id="ytick_2">
     <g id="line2d_13">
      <path d="M 57.6 233.971627 
L 414.72 233.971627 
" clip-path="url(#pfe452793e7)" style="fill: none; stroke: #b0b0b0; stroke-width: 0.8; stroke-linecap: square"/>
     </g>
     <g id="line2d_14">
      <g>
       <use xlink:href="#m80a3e4a396" x="57.6" y="233.971627" style="stroke: #000000; stroke-width: 0.8"/>
      </g>
     </g>
     <g id="text_8">
      <!-- −5 -->
      <g transform="translate(35.857813 237.770846) scale(0.1 -0.1)">
       <use xlink:href="#DejaVuSans-2212"/>
       <use xlink:href="#DejaVuSans-35" x="83.789062"/>
      </g>
     </g>
    </g>
    <g id="ytick_3">
     <g id="line2d_15">
      <path d="M 57.6 189.954598 
L 414.72 189.954598 
" clip-path="url(#pfe452793e7)" style="fill: none; stroke: #b0b0b0; stroke-width: 0.8; stroke-linecap: square"/>
     </g>
     <g id="line2d_16">
      <g>
       <use xlink:href="#m80a3e4a396" x="57.6" y="189.954598" style="stroke: #000000; stroke-width: 0.8"/>
      </g>
     </g>
     <g id="text_9">
      <!-- 0 -->
      <g transform="translate(44.2375 193.753817) scale(0.1 -0.1)">
       <use xlink:href="#DejaVuSans-30"/>
      </g>
     </g>
    </g>
    <g id="ytick_4">
     <g id="line2d_17">
      <path d="M 57.6 145.937569 
L 414.72 145.937569 
" clip-path="url(#pfe452793e7)" style="fill: none; stroke: #b0b0b0; stroke-width: 0.8; stroke-linecap: square"/>
     </g>
     <g id="line2d_18">
      <g>
       <use xlink:href="#m80a3e4a396" x="57.6" y="145.937569" style="stroke: #000000; stroke-width: 0.8"/>
      </g>
     </g>
     <g id="text_10">
      <!-- 5 -->
      <g transform="translate(44.2375 149.736788) scale(0.1 -0.1)">
       <use xlink:href="#DejaVuSans-35"/>
      </g>
     </g>
    </g>
    <g id="ytick_5">
     <g id="line2d_19">
      <path d="M 57.6 101.92054 
L 414.72 101.92054 
" clip-path="url(#pfe452793e7)" style="fill: none; stroke: #b0b0b0; stroke-width: 0.8; stroke-linecap: square"/>
     </g>
     <g id="line2d_20">
      <g>
       <use xlink:href="#m80a3e4a396" x="57.6" y="101.92054" style="stroke: #000000; stroke-width: 0.8"/>
      </g>
     </g>
     <g id="text_11">
      <!-- 10 -->
      <g transform="translate(37.875 105.719759) scale(0.1 -0.1)">
       <use xlink:href="#DejaVuSans-31"/>
       <use xlink:href="#DejaVuSans-30" x="63.623047"/>
      </g>
     </g>
    </g>
    <g id="ytick_6">
     <g id="line2d_21">
      <path d="M 57.6 57.903511 
L 414.72 57.903511 
" clip-path="url(#pfe452793e7)" style="fill: none; stroke: #b0b0b0; stroke-width: 0.8; stroke-linecap: square"/>
     </g>
     <g id="line2d_22">
      <g>
       <use xlink:href="#m80a3e4a396" x="57.6" y="57.903511" style="stroke: #000000; stroke-width: 0.8"/>
      </g>
     </g>
     <g id="text_12">
      <!-- 15 -->
      <g transform="translate(37.875 61.70273) scale(0.1 -0.1)">
       <use xlink:href="#DejaVuSans-31"/>
       <use xlink:href="#DejaVuSans-35" x="63.623047"/>
      </g>
     </g>
    </g>
    <g id="text_13">
     <!-- Angular Velocity (rad/s) -->
     <g transform="translate(23.415625 233.24675) rotate(-90) scale(0.1 -0.1)">
      <defs>
       <path id="DejaVuSans-75" d="M 544 1381 
L 544 3500 
L 1119 3500 
L 1119 1403 
Q 1119 906 1312 657 
Q 1506 409 1894 409 
Q 2359 409 2629 706 
Q 2900 1003 2900 1516 
L 2900 3500 
L 3475 3500 
L 3475 0 
L 2900 0 
L 2900 538 
Q 2691 219 2414 64 
Q 2138 -91 1772 -91 
Q 1169 -91 856 284 
Q 544 659 544 1381 
z
M 1991 3584 
L 1991 3584 
z
" transform="scale(0.015625)"/>
       <path id="DejaVuSans-56" d="M 1831 0 
L 50 4666 
L 709 4666 
L 2188 738 
L 3669 4666 
L 4325 4666 
L 2547 0 
L 1831 0 
z
" transform="scale(0.015625)"/>
       <path id="DejaVuSans-6f" d="M 1959 3097 
Q 1497 3097 1228 2736 
Q 959 2375 959 1747 
Q 959 1119 1226 758 
Q 1494 397 1959 397 
Q 2419 397 2687 759 
Q 2956 1122 2956 1747 
Q 2956 2369 2687 2733 
Q 2419 3097 1959 3097 
z
M 1959 3584 
Q 2709 3584 3137 3096 
Q 3566 2609 3566 1747 
Q 3566 888 3137 398 
Q 2709 -91 1959 -91 
Q 1206 -91 779 398 
Q 353 888 353 1747 
Q 353 2609 779 3096 
Q 1206 3584 1959 3584 
z
" transform="scale(0.015625)"/>
       <path id="DejaVuSans-63" d="M 3122 3366 
L 3122 2828 
Q 2878 2963 2633 3030 
Q 2388 3097 2138 3097 
Q 1578 3097 1268 2742 
Q 959 2388 959 1747 
Q 959 1106 1268 751 
Q 1578 397 2138 397 
Q 2388 397 2633 464 
Q 2878 531 3122 666 
L 3122 134 
Q 2881 22 2623 -34 
Q 2366 -91 2075 -91 
Q 1284 -91 818 406 
Q 353 903 353 1747 
Q 353 2603 823 3093 
Q 1294 3584 2113 3584 
Q 2378 3584 2631 3529 
Q 2884 3475 3122 3366 
z
" transform="scale(0.015625)"/>
       <path id="DejaVuSans-69" d="M 603 3500 
L 1178 3500 
L 1178 0 
L 603 0 
L 603 3500 
z
M 603 4863 
L 1178 4863 
L 1178 4134 
L 603 4134 
L 603 4863 
z
" transform="scale(0.015625)"/>
       <path id="DejaVuSans-74" d="M 1172 4494 
L 1172 3500 
L 2356 3500 
L 2356 3053 
L 1172 3053 
L 1172 1153 
Q 1172 725 1289 603 
Q 1406 481 1766 481 
L 2356 481 
L 2356 0 
L 1766 0 
Q 1100 0 847 248 
Q 594 497 594 1153 
L 594 3053 
L 172 3053 
L 172 3500 
L 594 3500 
L 594 4494 
L 1172 4494 
z
" transform="scale(0.015625)"/>
       <path id="DejaVuSans-79" d="M 2059 -325 
Q 1816 -950 1584 -1140 
Q 1353 -1331 966 -1331 
L 506 -1331 
L 506 -850 
L 844 -850 
Q 1081 -850 1212 -737 
Q 1344 -625 1503 -206 
L 1606 56 
L 191 3500 
L 800 3500 
L 1894 763 
L 2988 3500 
L 3597 3500 
L 2059 -325 
z
" transform="scale(0.015625)"/>
       <path id="DejaVuSans-2f" d="M 1625 4666 
L 2156 4666 
L 531 -594 
L 0 -594 
L 1625 4666 
z
" transform="scale(0.015625)"/>
       <path id="DejaVuSans-73" d="M 2834 3397 
L 2834 2853 
Q 2591 2978 2328 3040 
Q 2066 3103 1784 3103 
Q 1356 3103 1142 2972 
Q 928 2841 928 2578 
Q 928 2378 1081 2264 
Q 1234 2150 1697 2047 
L 1894 2003 
Q 2506 1872 2764 1633 
Q 3022 1394 3022 966 
Q 3022 478 2636 193 
Q 2250 -91 1575 -91 
Q 1294 -91 989 -36 
Q 684 19 347 128 
L 347 722 
Q 666 556 975 473 
Q 1284 391 1588 391 
Q 1994 391 2212 530 
Q 2431 669 2431 922 
Q 2431 1156 2273 1281 
Q 2116 1406 1581 1522 
L 1381 1569 
Q 847 1681 609 1914 
Q 372 2147 372 2553 
Q 372 3047 722 3315 
Q 1072 3584 1716 3584 
Q 2034 3584 2315 3537 
Q 2597 3491 2834 3397 
z
" transform="scale(0.015625)"/>
      </defs>
      <use xlink:href="#DejaVuSans-41"/>
      <use xlink:href="#DejaVuSans-6e" x="68.408203"/>
      <use xlink:href="#DejaVuSans-67" x="131.787109"/>
      <use xlink:href="#DejaVuSans-75" x="195.263672"/>
      <use xlink:href="#DejaVuSans-6c" x="258.642578"/>
      <use xlink:href="#DejaVuSans-61" x="286.425781"/>
      <use xlink:href="#DejaVuSans-72" x="347.705078"/>
      <use xlink:href="#DejaVuSans-20" x="388.818359"/>
      <use xlink:href="#DejaVuSans-56" x="420.605469"/>
      <use xlink:href="#DejaVuSans-65" x="481.263672"/>
      <use xlink:href="#DejaVuSans-6c" x="542.787109"/>
      <use xlink:href="#DejaVuSans-6f" x="570.570312"/>
      <use xlink:href="#DejaVuSans-63" x="631.751953"/>
      <use xlink:href="#DejaVuSans-69" x="686.732422"/>
      <use xlink:href="#DejaVuSans-74" x="714.515625"/>
      <use xlink:href="#DejaVuSans-79" x="753.724609"/>
      <use xlink:href="#DejaVuSans-20" x="812.904297"/>
      <use xlink:href="#DejaVuSans-28" x="844.691406"/>
      <use xlink:href="#DejaVuSans-72" x="883.705078"/>
      <use xlink:href="#DejaVuSans-61" x="924.818359"/>
      <use xlink:href="#DejaVuSans-64" x="986.097656"/>
      <use xlink:href="#DejaVuSans-2f" x="1049.574219"/>
      <use xlink:href="#DejaVuSans-73" x="1083.265625"/>
      <use xlink:href="#DejaVuSans-29" x="1135.365234"/>
     </g>
    </g>
   </g>
   <g id="line2d_23">
    <path d="M 344.411666 187.596316 
L 345.003816 183.647333 
L 346.415425 180.885841 
L 348.05652 180.614696 
L 349.708775 180.467013 
L 351.392246 180.504273 
L 352.906341 182.384198 
L 354.759259 186.280026 
L 355.387014 186.252251 
L 358.551065 181.014669 
L 360.331855 178.729398 
L 362.514751 176.508832 
L 365.071447 174.458497 
L 367.966867 172.658253 
L 371.150059 171.197061 
L 374.550779 170.220823 
L 378.068544 169.801942 
L 381.62225 169.769273 
L 385.157108 169.985627 
L 388.638268 170.362552 
L 391.667292 189.598426 
L 391.43525 191.783104 
L 391.168893 190.408153 
L 390.892809 191.031105 
L 390.40181 191.616402 
L 389.713505 192.156882 
L 389.202402 194.624891 
L 387.994497 198.923043 
L 386.010793 203.447274 
L 383.209599 208.219619 
L 379.540427 213.27478 
L 374.960011 218.711994 
L 369.335335 225.088174 
L 362.550494 231.811537 
L 354.348151 241.225397 
L 344.569162 249.043001 
L 333.813927 251.660063 
L 323.168349 249.153488 
L 313.070196 245.586214 
L 303.692796 240.973894 
L 295.175427 236.259218 
L 287.300596 233.21187 
L 279.996021 230.045525 
L 273.122528 228.002392 
L 266.697068 224.925713 
L 260.788688 222.281792 
L 255.376821 219.194719 
L 250.507113 216.130827 
L 246.215896 212.628109 
L 242.563532 208.885779 
L 239.610606 204.695109 
L 237.435804 200.130091 
L 236.082855 195.304612 
L 235.594362 190.357228 
L 235.987383 185.39731 
L 237.251444 180.499483 
L 239.348016 175.822937 
L 242.256252 171.359045 
L 245.9207 167.1651 
L 250.298805 163.226675 
L 255.356023 159.472756 
L 261.019656 156.538054 
L 273.893251 150.176061 
L 281.186901 147.009747 
L 289.030058 143.983307 
L 297.392136 141.0331 
L 306.26564 138.185264 
L 315.614417 135.629979 
L 325.375145 133.522745 
L 335.431652 132.323517 
L 345.592337 132.28625 
L 355.662844 133.283689 
L 365.47361 135.197377 
L 374.867044 138.004014 
L 383.689878 141.579859 
L 391.05227 172.231531 
L 391.885855 190.054009 
L 391.665848 191.590121 
L 391.440509 191.043201 
L 391.210629 191.407503 
L 390.976702 191.238623 
L 390.71044 191.624196 
L 390.428862 191.46924 
L 390.152857 191.601498 
L 389.866536 191.53312 
L 389.581988 191.849923 
L 388.692881 198.08386 
L 386.816016 203.369067 
L 383.569586 216.597913 
L 376.203257 241.200868 
L 366.232949 246.672203 
L 351.07201 222.160925 
L 346.142558 214.136408 
L 342.713824 205.295457 
L 339.58419 194.529597 
L 339.003975 192.249687 
L 338.750645 190.588051 
L 338.806226 188.708907 
L 339.2126 186.624379 
L 339.996959 184.436758 
L 341.166345 182.272006 
L 342.710768 180.162047 
L 344.625421 178.095058 
L 346.902216 176.030758 
L 349.544133 173.939666 
L 352.55291 171.862053 
L 355.922074 169.835713 
L 359.6428 167.876122 
L 363.700731 166.033167 
L 368.066233 164.357676 
L 372.712281 162.845162 
L 377.612244 161.463815 
L 382.743684 160.193754 
L 388.090082 159.025527 
L 392.773385 186.266818 
L 393.662745 188.102168 
L 394.124416 189.094288 
L 394.300769 190.054682 
L 394.179277 190.530386 
L 393.708352 191.14264 
L 393.420801 192.394391 
L 393.045023 191.748771 
L 392.761623 191.510674 
L 391.769551 192.18058 
L 389.931604 192.91372 
L 389.367966 194.520142 
L 388.03719 200.274517 
L 385.712045 205.94108 
L 382.371402 211.701647 
L 378.021816 217.541353 
L 372.56815 224.336272 
L 365.888481 231.467934 
L 357.894216 238.991226 
L 348.84119 243.155012 
L 339.213358 245.969856 
L 329.173694 247.743471 
L 318.983479 247.622692 
L 309.002736 245.562119 
L 299.526002 242.067029 
L 290.666545 238.952682 
L 274.759863 231.556758 
L 267.735543 228.016282 
L 255.741989 220.420187 
L 250.730458 216.662915 
L 246.375897 212.795931 
L 242.731706 208.650862 
L 239.840416 204.309445 
L 237.73689 199.635741 
L 236.483536 194.677858 
L 236.117419 189.582866 
L 236.660423 184.477908 
L 238.090332 179.45361 
L 240.383468 174.662246 
L 243.493903 170.171979 
L 247.374489 165.920382 
L 251.987012 161.822552 
L 257.304486 157.926776 
L 276.689421 148.369353 
L 284.313674 145.070472 
L 292.512699 141.925093 
L 301.248257 138.965949 
L 310.47744 136.204939 
L 320.155687 133.887486 
L 330.189454 132.151599 
L 340.450253 131.379298 
L 350.724869 131.934166 
L 360.789248 133.711284 
L 370.442997 136.445423 
L 379.549881 140.00876 
L 387.958113 144.274752 
L 391.732124 187.115771 
L 391.732068 191.417373 
L 391.460528 191.21327 
L 391.006113 191.268676 
L 389.770244 191.523214 
L 389.476617 191.896419 
L 388.684827 196.691784 
L 387.816525 191.726626 
L 385.798066 207.363133 
L 380.484845 228.337905 
L 372.505896 242.059249 
L 364.037966 231.43037 
L 353.767001 209.809272 
L 350.992894 202.138449 
L 348.424645 191.628168 
L 348.170939 191.208908 
L 347.99494 190.644969 
L 347.957611 189.651731 
L 348.126356 188.32418 
L 348.557298 186.705601 
L 349.288792 184.941997 
L 350.334912 183.152171 
L 351.69486 181.377098 
L 353.368444 179.602428 
L 355.356387 177.82828 
L 357.654576 176.075333 
L 360.25461 174.354707 
L 363.154338 172.716315 
L 366.331295 171.158172 
L 369.773889 169.693899 
L 373.470027 168.338222 
L 377.393016 167.066934 
L 381.532233 165.863673 
L 385.877863 164.755455 
L 390.222348 172.956144 
L 391.808603 185.199217 
L 392.385136 187.453931 
L 393.213982 189.108611 
L 393.384368 189.779402 
L 395.163772 175.535154 
L 396.497389 190.171331 
L 396.400101 190.714534 
L 396.163907 192.97822 
L 395.626938 192.497072 
L 395.246906 191.886665 
L 394.417293 192.658407 
L 393.298644 193.485103 
L 391.90052 194.250351 
L 390.262603 194.876986 
L 389.34375 196.894189 
L 387.24165 206.336948 
L 383.499605 216.224332 
L 377.9269 226.85344 
L 370.486983 237.275605 
L 361.302176 246.899659 
L 350.519945 254.81177 
L 338.825253 257.578213 
L 326.769566 259.166161 
L 314.52506 259.612371 
L 302.40012 257.824522 
L 290.773161 254.232318 
L 279.774634 251.081845 
L 269.218135 248.690701 
L 249.873928 241.388497 
L 241.222471 236.834275 
L 233.401518 232.077273 
L 226.462283 226.806539 
L 220.475359 221.261941 
L 215.477107 215.648443 
L 211.481538 209.845077 
L 208.51579 203.956673 
L 206.598119 198.065089 
L 205.703635 192.290067 
L 205.811929 186.719062 
L 206.877552 181.40846 
L 208.845895 176.407187 
L 211.664548 171.810244 
L 215.253487 167.691783 
L 219.529845 163.944277 
L 224.445482 160.43836 
L 229.934346 157.655142 
L 235.843134 154.889158 
L 258.012129 140.530534 
L 267.247994 134.786404 
L 277.51935 128.590465 
L 288.914865 122.036771 
L 301.484461 115.285854 
L 315.235735 108.700698 
L 330.096087 102.718047 
L 345.90663 97.836313 
L 362.429315 94.657021 
L 379.304322 93.841826 
L 393.248347 162.743606 
L 394.914572 189.374851 
L 395.139001 188.413181 
L 395.294674 189.412561 
L 395.397216 189.312826 
L 395.409773 190.233452 
L 394.943307 192.11882 
L 394.57538 191.937406 
L 394.222303 192.022068 
L 393.866285 191.902136 
L 393.177246 191.875434 
L 393.079983 187.121841 
L 393.553246 189.32831 
L 391.231641 209.739713 
L 387.171257 225.954319 
L 379.197742 244.372357 
L 369.001531 243.892405 
L 360.909167 228.877099 
L 355.12208 217.814882 
L 351.053087 208.717205 
L 348.567291 200.151811 
L 347.329403 194.736477 
L 346.715306 192.825481 
L 346.181401 193.485772 
L 345.447184 194.831614 
L 344.522366 195.557285 
L 343.574969 195.112151 
L 342.806537 193.592485 
L 342.384658 191.255729 
L 342.410565 188.549232 
L 342.92555 185.77786 
L 343.92403 183.010174 
L 345.409907 180.220839 
L 347.386055 177.398398 
L 349.871134 174.452053 
L 352.892208 171.27405 
L 356.50415 167.763834 
L 360.762964 163.976217 
L 365.695278 160.084192 
L 371.31472 156.131394 
L 377.636079 152.112434 
L 384.669059 148.060893 
L 391.467672 167.649123 
L 393.803249 181.975082 
L 394.907276 184.69313 
L 397.047041 186.920774 
L 397.888 188.075338 
L 398.354429 189.040602 
L 398.487273 189.989625 
L 398.418102 190.54134 
L 397.861021 193.130789 
L 397.450181 191.609107 
L 397.176119 191.558183 
L 396.501829 192.053949 
L 394.679175 192.967772 
L 392.862519 193.749812 
L 390.643378 194.48433 
L 389.82172 194.700368 
L 388.606878 200.788814 
L 385.911814 209.811537 
L 381.554731 219.624384 
L 375.446031 229.481893 
L 367.649375 238.889083 
L 358.253755 247.469419 
L 347.629416 252.174896 
L 336.4404 254.863731 
L 324.79209 257.2528 
L 312.82327 258.335321 
L 300.853836 257.350192 
L 289.241309 254.440052 
L 267.653755 248.243849 
L 257.810709 243.773811 
L 248.687595 239.818386 
L 240.368167 234.724806 
L 232.947051 229.621996 
L 226.476678 223.977996 
L 221.014528 218.253922 
L 216.562569 212.431452 
L 213.16088 206.42202 
L 210.821886 200.35253 
L 209.545546 194.30702 
L 209.324152 188.424098 
L 210.119758 182.769914 
L 211.890419 177.389937 
L 214.576553 172.357961 
L 218.113028 167.701375 
L 222.441348 163.325059 
L 227.513001 159.302665 
L 233.242749 155.786325 
L 239.493606 153.396721 
L 246.234254 149.880079 
L 261.949526 140.716839 
L 271.09339 135.494916 
L 281.194441 129.866175 
L 292.315345 123.879938 
L 304.502366 117.763195 
L 317.75604 111.802256 
L 332.008675 106.466339 
L 347.099505 102.286306 
L 362.759896 99.994528 
L 378.641376 99.727769 
L 392.859847 153.735086 
L 394.911606 189.790611 
L 395.066731 188.648098 
L 395.259671 190.316784 
L 394.802969 192.176652 
L 394.416603 192.056769 
L 394.049178 192.084795 
L 393.321729 191.998778 
L 391.926144 191.855387 
L 391.923148 187.0789 
L 390.762134 200.173838 
L 389.603759 198.329027 
L 385.91066 223.031855 
L 379.055548 234.648032 
L 370.654273 233.357747 
L 364.571591 217.25509 
L 360.845676 206.037534 
L 358.681075 199.106122 
L 357.506058 194.75969 
L 356.830353 193.467768 
L 356.130005 194.689963 
L 355.088666 197.131207 
L 353.593813 199.741663 
L 351.686147 201.770949 
L 349.543728 202.361296 
L 347.458526 201.168181 
L 345.719086 198.524197 
L 344.529318 195.046949 
L 343.975235 191.406596 
L 344.04063 188.009504 
L 344.678693 184.923329 
L 345.845486 181.959896 
L 347.523749 179.047642 
L 349.718075 176.060071 
L 352.460568 172.86334 
L 355.789148 169.358066 
L 359.762755 165.619769 
L 364.395423 161.894233 
L 369.671744 158.250605 
L 375.576124 154.745371 
L 382.080648 151.438308 
L 389.141541 148.450069 
L 392.965674 179.34656 
L 394.215611 184.885927 
L 395.644047 186.617074 
L 396.92894 188.270314 
L 397.34917 189.160451 
L 397.4499 190.070628 
L 396.99002 193.689006 
L 396.192232 191.403795 
L 395.903359 191.700382 
L 392.169711 193.556581 
L 390.798434 194.083084 
L 390.020816 194.732571 
L 388.924099 199.918232 
L 386.335813 208.943366 
L 382.269455 216.898751 
L 376.748733 226.0717 
L 369.571803 235.053039 
L 361.000941 241.353632 
L 341.541644 249.176876 
L 330.7819 252.718361 
L 319.51499 254.861812 
L 308.041407 255.12889 
L 296.713639 253.344689 
L 275.138659 249.197196 
L 265.038215 245.736156 
L 255.473463 242.816187 
L 246.52703 238.854387 
L 238.268458 234.933936 
L 230.771976 230.290287 
L 224.102886 225.519424 
L 218.319716 220.261817 
L 213.492033 214.69975 
L 209.664429 208.883014 
L 206.878772 202.889946 
L 205.154973 196.863556 
L 204.482362 190.958777 
L 204.828666 185.306032 
L 206.133231 180.020627 
L 208.326796 175.214157 
L 211.32278 170.960673 
L 215.01404 167.238437 
L 219.306622 164.09567 
L 224.094504 161.686259 
L 229.249179 159.84096 
L 240.425508 156.676719 
L 246.464275 154.773236 
L 252.791008 152.918622 
L 259.616026 149.486262 
L 284.413372 136.150662 
L 294.345485 131.062116 
L 305.184519 125.857683 
L 316.928709 120.778136 
L 329.541098 116.081696 
L 342.914164 112.091771 
L 356.898381 109.1521 
L 371.265587 107.795509 
L 385.694783 108.413505 
L 393.53054 181.821102 
L 394.054411 189.824931 
L 394.119639 188.984007 
L 394.337251 188.963647 
L 394.556007 190.117296 
L 394.385881 191.120094 
L 394.117905 191.557176 
L 391.710962 209.170435 
L 388.730946 215.126396 
L 382.755596 231.485916 
L 373.892829 247.127405 
L 365.018085 231.119545 
L 359.317591 214.792856 
L 355.990817 203.952463 
L 354.286116 196.08384 
L 353.696382 191.500211 
L 353.515675 191.05599 
L 353.162783 193.041327 
L 352.406781 195.390141 
L 351.31083 196.881682 
L 350.042659 197.383426 
L 348.800512 196.620615 
L 347.795044 194.778838 
L 347.178435 192.291474 
L 347.021228 189.592904 
L 347.337743 186.943303 
L 348.108823 184.386143 
L 349.33666 181.76896 
L 351.022072 179.159204 
L 353.173833 176.443083 
L 355.819841 173.576708 
L 358.979674 170.568649 
L 362.683138 167.478533 
L 366.928521 164.41862 
L 371.707364 161.397412 
L 377.007143 158.477872 
L 382.804327 155.719561 
L 389.063437 153.246441 
L 392.407765 180.680474 
L 393.50041 185.51955 
L 394.744318 187.072246 
L 395.849692 188.534016 
L 396.195745 189.335834 
L 396.2778 190.013111 
L 395.732135 193.83768 
L 394.863649 191.534956 
L 394.556146 191.793499 
L 393.455848 192.234038 
L 392.044467 192.934691 
L 390.280129 193.596099 
L 389.607243 194.008244 
L 388.230235 202.061155 
L 385.344573 210.329564 
L 381.087905 217.764768 
L 375.510495 226.102573 
L 368.269422 235.704869 
L 359.520934 242.707953 
L 349.92963 246.023696 
L 339.783104 249.055894 
L 329.14787 251.42036 
L 318.223808 252.332182 
L 307.289357 251.648057 
L 296.602651 249.774602 
L 286.144037 249.070097 
L 275.938107 246.629563 
L 266.167943 244.51178 
L 256.81258 241.524401 
L 248.044631 238.203726 
L 239.89091 234.323916 
L 232.458017 230.185314 
L 225.803741 225.53267 
L 220.01027 220.450027 
L 215.153842 214.963867 
L 211.271815 209.19068 
L 208.426288 203.264819 
L 206.627718 197.353082 
L 205.853377 191.565891 
L 206.085546 185.99295 
L 207.26568 180.768154 
L 209.322553 176.004379 
L 212.173984 171.787711 
L 215.710937 168.179343 
L 219.827051 165.211242 
L 224.398748 162.999631 
L 229.292549 161.491001 
L 234.395161 160.590097 
L 244.921565 159.587398 
L 250.32989 159.176798 
L 255.85088 157.805693 
L 261.746886 155.161669 
L 268.163535 151.931609 
L 300.720138 134.771866 
L 310.877643 129.904152 
L 321.878603 125.170647 
L 333.691126 120.796034 
L 346.216358 117.060319 
L 359.308521 114.360068 
L 372.739227 113.220431 
L 386.20232 113.937544 
L 393.326765 182.652426 
L 393.800957 189.908559 
L 393.858668 188.966597 
L 394.072618 189.047443 
L 394.283146 189.554244 
L 394.202031 190.393447 
L 394.257071 188.959039 
L 392.209541 207.346251 
L 390.229034 200.456485 
L 386.297594 223.835479 
L 379.084772 239.340883 
L 369.895514 237.614138 
L 362.987165 221.962929 
L 358.407828 211.019813 
L 355.449833 202.995592 
L 352.907162 193.805567 
L 352.259774 193.894866 
L 351.425543 195.598843 
L 350.268127 197.430159 
L 348.86389 198.402102 
L 347.378778 198.313593 
L 346.029923 196.903822 
L 345.028164 194.475914 
L 344.503956 191.550578 
L 344.502611 188.591743 
L 345.021811 185.658136 
L 346.041023 182.942631 
L 347.523126 180.304131 
L 349.475367 177.554915 
L 351.930797 174.61002 
L 354.924405 171.496307 
L 358.475786 168.239447 
L 362.602765 165.012521 
L 367.283978 161.894821 
L 372.50098 158.908565 
L 378.229348 156.061292 
L 384.442175 153.462793 
L 390.726681 166.375743 
L 393.007474 182.826473 
L 393.925363 185.8496 
L 395.867909 188.261091 
L 396.300594 189.102737 
L 396.466264 189.773282 
L 396.397212 190.465321 
L 396.261024 191.638549 
L 395.676136 192.775002 
L 395.317999 191.397037 
L 395.067256 191.433979 
L 393.339223 192.357052 
L 390.039695 193.768521 
L 389.296638 196.126638 
L 387.443044 204.800589 
L 384.059199 213.210905 
L 379.286112 220.705665 
L 373.230481 228.343147 
L 365.681154 237.101841 
L 356.682923 244.515948 
L 346.711059 248.436684 
L 336.08891 252.100401 
L 324.849558 255.25373 
L 313.178226 256.937633 
L 301.392245 256.611707 
L 289.868849 254.11712 
L 278.877501 251.058006 
L 268.335717 248.442825 
L 258.411079 244.444683 
L 249.115239 241.141639 
L 240.492385 236.776991 
L 232.644419 232.401019 
L 225.628209 227.41973 
L 219.515217 222.076543 
L 214.36854 216.493769 
L 210.226951 210.691575 
L 207.110967 204.773709 
L 205.058242 198.829685 
L 204.028967 193.001974 
L 204.008331 187.34544 
L 204.959369 182.032817 
L 206.803245 177.186578 
L 209.449446 172.889681 
L 212.801288 169.19742 
L 216.742317 166.134402 
L 221.174719 163.647839 
L 225.968622 161.986811 
L 230.998444 160.913141 
L 236.176593 160.277838 
L 241.450207 159.774585 
L 246.835039 158.981052 
L 252.333517 158.35914 
L 258.087793 156.126493 
L 264.316542 153.087771 
L 278.594333 145.594595 
L 295.809622 136.533212 
L 305.653148 131.745956 
L 316.331968 127.050815 
L 327.822901 122.630561 
L 340.031484 118.744472 
L 352.853478 115.696346 
L 366.100015 113.98045 
L 379.489417 114.030065 
L 391.889657 152.943054 
L 393.953997 189.970966 
L 394.082041 188.740514 
L 394.234823 190.131335 
L 394.289363 189.413319 
L 392.148678 207.599317 
L 390.159085 200.408501 
L 386.50847 220.767227 
L 380.020988 234.47701 
L 371.552437 234.470207 
L 365.294225 217.961484 
L 361.471608 206.499111 
L 359.26926 199.094834 
L 358.138614 194.384596 
L 357.538359 192.999876 
L 356.912778 194.327757 
L 355.921034 196.896559 
L 354.464371 199.521497 
L 352.615988 201.320499 
L 350.557008 201.861039 
L 348.550081 200.785341 
L 346.862725 198.348236 
L 345.684809 195.09414 
L 345.102019 191.66896 
L 345.113667 188.35853 
L 345.6773 185.395177 
L 346.747066 182.567413 
L 348.31489 179.702362 
L 350.394852 176.741726 
L 353.001759 173.694332 
L 356.163047 170.490484 
L 359.891065 167.264857 
L 364.182317 164.086606 
L 369.01808 161.064542 
L 374.365857 158.290418 
L 380.169812 155.837357 
L 386.369712 153.796431 
L 391.546093 175.074436 
L 393.080685 184.864938 
L 393.789396 186.585095 
L 394.749431 187.793874 
L 395.481811 189.194358 
L 395.609964 189.89252 
L 395.489169 190.634326 
L 395.325156 191.016056 
L 394.772022 193.553498 
L 394.295544 191.895377 
L 393.997103 191.563778 
L 392.975386 192.121748 
L 391.677973 192.674934 
L 390.036135 193.385152 
L 389.38034 195.114121 
L 387.74341 203.12173 
L 384.722215 210.881747 
L 380.351357 218.323454 
L 367.642061 234.707836 
L 359.006158 242.971136 
L 349.210645 247.57485 
L 338.775268 250.85186 
L 327.782867 253.738461 
L 316.385185 255.350609 
L 304.874437 255.093206 
L 293.595979 252.894328 
L 282.777243 250.316898 
L 272.304505 248.453874 
L 262.30803 245.162152 
L 252.835666 242.453242 
L 243.920162 238.756813 
L 235.673442 234.955497 
L 228.151082 230.534336 
L 221.443535 225.734671 
L 215.609974 220.648499 
L 210.697983 215.197707 
L 206.781183 209.516046 
L 203.882869 203.651701 
L 202.030146 197.713064 
L 201.206507 191.843673 
L 201.392922 186.188923 
L 202.545119 180.860553 
L 204.591537 176.040263 
L 207.432109 171.828227 
L 210.959392 168.26585 
L 215.055065 165.359311 
L 219.598851 163.153375 
L 224.463097 161.663791 
L 229.534416 160.766548 
L 234.714826 160.385119 
L 239.933809 160.280139 
L 245.183037 159.983136 
L 255.984434 158.440083 
L 261.740609 156.066864 
L 267.981137 153.01614 
L 299.427145 136.856873 
L 309.186859 132.305511 
L 319.741598 127.877637 
L 331.047853 123.77985 
L 343.02278 120.234405 
L 355.546944 117.595101 
L 368.411453 116.381907 
L 381.337091 116.869661 
L 392.163253 167.505624 
L 393.46162 189.754319 
L 393.625408 188.752443 
L 393.73486 189.627711 
L 393.820922 189.389808 
L 393.762302 191.053207 
L 393.5945 190.709474 
L 391.60905 206.008333 
L 389.048288 211.702403 
L 383.578449 228.70679 
L 375.17608 245.180045 
L 366.456732 230.566095 
L 360.838753 214.363612 
L 357.585684 203.570743 
L 355.935264 195.746055 
L 355.305859 190.522245 
L 355.050655 192.520426 
L 354.349803 195.319541 
L 353.200691 197.546737 
L 351.753897 198.757464 
L 350.192302 198.815676 
L 348.748514 197.480202 
L 347.642671 195.103041 
L 347.008304 192.208526 
L 346.886703 189.291878 
L 347.27777 186.411346 
L 348.158974 183.745519 
L 349.497928 181.13331 
L 351.302898 178.404519 
L 353.604371 175.488477 
L 356.43082 172.46869 
L 359.802207 169.337509 
L 363.721002 166.254988 
L 368.175113 163.237055 
L 373.149283 160.350096 
L 378.613114 157.635524 
L 384.535267 155.200218 
L 390.621003 165.653918 
L 392.902824 183.034973 
L 393.771576 186.175966 
L 395.502236 188.544234 
L 395.834454 189.390505 
L 395.895678 190.075312 
L 395.718105 190.774806 
L 395.530609 191.148261 
L 395.009553 193.979991 
L 394.454733 192.285234 
L 394.107396 191.776326 
L 393.37922 192.13972 
L 392.068534 192.694584 
L 389.826072 193.548434 
L 388.981915 197.720332 
L 386.902084 205.702204 
L 383.416275 213.532347 
L 378.609477 220.788083 
L 372.535872 228.56867 
L 364.897562 237.82239 
L 355.765628 245.074967 
L 345.728561 248.674351 
L 335.102153 251.841881 
L 323.9737 254.223429 
L 312.567176 254.974579 
L 301.208394 253.811804 
L 290.207563 251.180573 
L 279.608647 249.500338 
L 269.327487 246.956205 
L 259.56858 244.140039 
L 250.27993 241.158882 
L 241.608248 237.450055 
L 233.600892 233.43179 
L 226.374382 228.844499 
L 219.965638 223.994402 
L 214.448146 218.71929 
L 209.893307 213.133643 
L 206.345438 207.340051 
L 203.817448 201.438931 
L 202.331449 195.574679 
L 201.872187 189.892476 
L 202.37811 184.504852 
L 203.801308 179.484376 
L 206.060326 175.001406 
L 209.058285 171.124757 
L 212.680986 167.885691 
L 216.812477 165.296035 
L 221.336028 163.461508 
L 226.118732 162.266021 
L 231.059271 161.635074 
L 236.06428 161.491756 
L 241.070477 161.573202 
L 251.126854 161.323416 
L 256.286054 159.841264 
L 261.809498 157.362995 
L 267.819622 154.34679 
L 298.34324 138.132731 
L 307.884958 133.492797 
L 318.250126 128.953869 
L 329.374866 124.711939 
L 341.203033 120.988099 
L 353.613249 118.120786 
L 366.410235 116.641085 
L 379.314152 116.877718 
L 391.492233 149.130942 
L 393.74211 190.141517 
L 393.848705 188.790716 
L 394.043152 190.158184 
L 394.034532 189.214752 
L 394.122846 190.26974 
L 391.883765 208.208504 
L 389.311821 208.803654 
L 384.205089 226.203484 
L 376.292047 241.979201 
L 368.12077 228.260896 
L 362.741882 213.805772 
L 359.466867 204.217733 
L 357.621963 197.334193 
L 356.749467 193.309726 
L 356.249502 192.833334 
L 355.590001 194.799327 
L 354.486732 197.638878 
L 352.9065 200.149313 
L 350.97637 201.596285 
L 348.918653 201.570782 
L 347.015961 199.928441 
L 345.51728 197.100482 
L 344.573805 193.718135 
L 344.226113 190.381122 
L 344.454251 187.21083 
L 345.213772 184.342244 
L 346.464394 181.531373 
L 348.216695 178.632489 
L 350.490714 175.595794 
L 353.30803 172.461767 
L 356.689824 169.195582 
L 360.648313 165.941137 
L 365.17196 162.771918 
L 370.235033 159.79007 
L 375.799442 157.078734 
L 381.808132 154.721903 
L 388.191709 152.827323 
L 393.766922 185.6298 
L 394.395669 186.88872 
L 395.255739 188.066807 
L 395.732458 189.047852 
L 395.899768 189.806911 
L 395.827258 190.425448 
L 395.5055 191.176467 
L 395.002976 194.017339 
L 394.439868 192.318645 
L 394.0928 191.743602 
L 393.382093 192.072091 
L 391.630614 192.76571 
L 389.950911 193.438146 
L 389.247489 195.999217 
L 387.49283 203.789575 
L 384.348448 211.607928 
L 379.862069 219.015186 
L 374.110099 226.130241 
L 366.929464 235.246897 
L 358.202159 243.516086 
L 348.30675 248.217154 
L 337.730551 251.805617 
L 326.542976 254.975399 
L 314.911393 256.758925 
L 303.144787 256.562155 
L 291.616333 254.239852 
L 280.596875 251.20068 
L 270.000114 249.122165 
L 259.89733 245.607161 
L 250.376976 242.651913 
L 241.432763 238.81235 
L 233.204976 234.742355 
L 225.735814 230.146567 
L 219.109324 225.133233 
L 213.403394 219.787121 
L 208.660981 214.207873 
L 204.918372 208.419764 
L 202.209121 202.513448 
L 200.533914 196.596502 
L 199.903811 190.820287 
L 200.255175 185.329706 
L 201.53965 180.204863 
L 203.681069 175.614055 
L 206.580238 171.634428 
L 210.119368 168.302251 
L 214.188748 165.608325 
L 218.673274 163.579346 
L 223.446224 162.264219 
L 228.398668 161.507001 
L 233.437433 161.245624 
L 238.494354 161.258077 
L 243.556619 161.122842 
L 248.686138 160.661387 
L 253.892497 159.807391 
L 259.403608 157.503031 
L 265.381228 154.571646 
L 279.090442 147.355108 
L 295.610405 138.638661 
L 305.083054 134.035497 
L 315.335767 129.519101 
L 326.377636 125.255166 
L 338.11225 121.4857 
L 350.446383 118.486327 
L 363.20305 116.748557 
L 376.11097 116.71314 
L 388.861572 118.471262 
L 393.468722 190.295518 
L 393.517949 188.939339 
L 393.747606 190.074518 
L 393.705776 189.750069 
L 391.985103 203.931938 
L 390.266737 199.262056 
L 387.147257 220.057016 
L 380.720164 234.077508 
L 371.588517 245.817684 
L 363.429862 226.400014 
L 358.524341 210.482003 
L 355.900445 200.260454 
L 354.37776 191.44541 
L 353.995694 193.219318 
L 353.13688 196.371668 
L 351.774201 198.86756 
L 350.09083 200.059355 
L 348.331121 199.738957 
L 346.772713 197.86545 
L 345.64912 194.941406 
L 345.076581 191.687194 
L 345.066325 188.583109 
L 345.582339 185.675657 
L 346.601033 182.869044 
L 348.107855 180.149657 
L 350.092097 177.346754 
L 352.582251 174.43594 
L 355.593762 171.45774 
L 359.139139 168.402434 
L 363.222896 165.326243 
L 367.835527 162.384573 
L 372.946807 159.687831 
L 378.500455 157.272343 
L 384.450825 155.21335 
L 390.458035 166.680254 
L 392.6506 183.327899 
L 393.477512 186.380161 
L 395.078479 188.699931 
L 395.357539 189.521136 
L 395.383292 190.147662 
L 395.190516 190.767919 
L 394.998399 191.180323 
L 394.565122 194.323215 
L 393.561091 191.71911 
L 392.480669 192.241214 
L 391.610631 192.594323 
L 390.035566 193.226565 
L 389.424195 194.348351 
L 388.036551 201.000641 
L 385.467663 208.188076 
L 381.558145 215.949268 
L 376.333808 223.182338 
L 369.829429 230.520511 
L 361.959433 239.075796 
L 352.551043 247.452576 
L 341.790798 254.127804 
L 330.247561 256.590881 
L 318.378143 258.038034 
L 306.33222 258.522153 
L 294.358904 257.187638 
L 282.818507 253.870443 
L 271.928343 250.158867 
L 261.584391 247.326881 
L 251.843562 243.358741 
L 242.761861 239.885254 
L 234.35867 235.4853 
L 226.758274 230.954734 
L 219.993416 225.946978 
L 214.131696 220.651565 
L 209.245021 214.995347 
L 205.34033 209.42911 
L 202.439346 203.751287 
L 200.535842 198.07805 
L 199.623042 192.487209 
L 199.667418 187.146599 
L 200.618989 182.194805 
L 202.398528 177.741856 
L 204.910134 173.855531 
L 208.057752 170.535662 
L 211.737978 167.788733 
L 215.849135 165.616989 
L 220.282687 164.122989 
L 224.920366 163.224382 
L 229.672552 162.79156 
L 239.275297 162.601195 
L 244.131079 162.131567 
L 249.039668 161.793208 
L 254.163148 159.872964 
L 259.700458 157.192664 
L 265.761179 153.9573 
L 287.993849 141.386397 
L 296.987235 136.632931 
L 306.807499 131.828247 
L 317.469347 127.142896 
L 328.93089 122.756656 
L 341.113537 118.998406 
L 353.871116 116.209492 
L 366.989696 114.908138 
L 380.17105 115.463957 
L 391.901871 159.897481 
L 393.548234 190.105075 
L 393.655561 188.934891 
L 393.787076 189.896026 
L 393.854258 189.419429 
L 391.948099 205.723636 
L 390.078665 199.864225 
L 386.611146 219.810662 
L 380.333905 233.041856 
L 371.560306 242.592177 
L 364.10161 222.051076 
L 359.969849 206.031838 
L 358.118265 196.054781 
L 357.55764 190.388481 
L 357.219178 193.642978 
L 356.184882 197.859364 
L 354.47897 201.2587 
L 352.2909 203.350201 
L 349.899592 203.530946 
L 347.6672 201.670966 
L 345.900007 198.418834 
L 344.763732 194.618133 
L 344.290229 190.948216 
L 344.42644 187.678562 
L 345.108808 184.68753 
L 346.305106 181.843367 
L 348.000534 178.972675 
L 350.207629 176.041952 
L 352.934199 173.040618 
L 356.197985 169.918462 
L 360.021085 166.728442 
L 364.398252 163.635165 
L 369.300644 160.804226 
L 374.67023 158.2751 
L 380.448552 156.164532 
L 386.550901 154.571239 
L 391.627584 175.446602 
L 393.092357 185.25923 
L 393.730689 186.981241 
L 394.819835 188.644262 
L 395.114683 189.494377 
L 395.138128 190.183897 
L 394.924331 190.843119 
L 394.717827 191.26958 
L 394.357463 194.226075 
L 393.648896 193.089138 
L 393.2249 191.891169 
L 392.50991 192.062838 
L 391.687976 192.40397 
L 389.658512 193.224588 
L 388.732688 198.151583 
L 386.682972 205.048914 
L 383.365116 212.388294 
L 378.754573 219.797515 
L 372.842114 227.124118 
L 365.604332 235.412881 
L 356.814449 244.108168 
L 346.611545 250.999695 
L 335.543279 254.492988 
L 323.910006 257.409127 
L 311.862396 259.078732 
L 299.697728 258.724915 
L 287.819012 256.043107 
L 276.542029 252.239005 
L 265.855611 249.407174 
L 255.675862 246.044407 
L 246.135338 242.568285 
L 237.189986 238.862759 
L 228.985119 234.468619 
L 221.559191 229.858647 
L 214.992345 224.833212 
L 209.353096 219.284699 
L 204.701684 213.71397 
L 201.034891 207.993791 
L 198.398215 202.172592 
L 196.781642 196.301597 
L 196.191158 190.538466 
L 196.589208 185.082407 
L 197.906391 180.081348 
L 200.056538 175.636815 
L 202.937626 171.812046 
L 206.431678 168.605494 
L 210.439097 165.994849 
L 214.851226 163.983115 
L 219.55216 162.694156 
L 224.425745 161.963747 
L 229.38433 161.695611 
L 239.32544 161.720247 
L 249.437736 160.868728 
L 254.687685 159.27577 
L 260.318451 156.713062 
L 266.453881 153.591866 
L 288.749278 141.529008 
L 297.68718 136.985414 
L 307.425815 132.406751 
L 317.96405 127.962881 
L 329.26072 123.82786 
L 341.225786 120.313632 
L 353.727612 117.752604 
L 366.556206 116.649417 
L 379.419726 117.314938 
L 391.653095 145.062432 
L 394.029662 190.488416 
L 394.072454 190.470701 
L 392.195624 204.942932 
L 390.276743 201.937897 
L 386.677859 218.699663 
L 380.317923 234.372904 
L 371.567729 238.461194 
L 364.842962 219.327203 
L 360.978462 205.71574 
L 359.018374 197.291139 
L 358.241099 192.299517 
L 357.974804 191.384684 
L 357.546012 193.710324 
L 356.567347 197.285311 
L 354.983652 200.501424 
L 352.920375 202.715503 
L 350.616303 203.215937 
L 348.395152 201.857236 
L 346.552002 199.068437 
L 345.272698 195.546931 
L 344.627179 191.945283 
L 344.589146 188.657416 
L 345.11205 185.56646 
L 346.160818 182.633408 
L 347.725246 179.697746 
L 349.811793 176.70029 
L 352.430181 173.656591 
L 355.588816 170.517379 
L 359.314391 167.260136 
L 363.612586 164.039368 
L 368.455364 161.054423 
L 373.79493 158.38841 
L 379.564542 156.136259 
L 385.68544 154.397634 
L 391.174678 173.097462 
L 392.852739 184.720853 
L 393.539117 186.850134 
L 394.388247 188.138361 
L 394.843843 189.089782 
L 394.978408 189.938248 
L 394.841721 190.646727 
L 394.446762 191.397293 
L 394.047128 194.445698 
L 393.318063 193.206447 
L 392.871002 192.041695 
L 389.673846 193.140455 
L 388.79945 197.697942 
L 386.895881 203.706826 
L 383.893265 210.354314 
L 379.646619 217.637521 
L 374.115868 225.023097 
L 358.986317 241.477645 
L 349.162251 249.786106 
L 338.037137 255.631221 
L 326.255046 258.025245 
L 314.118586 259.566937 
L 301.833148 259.647407 
L 289.731468 257.513681 
L 267.372184 249.785677 
L 257.116104 246.699866 
L 238.504735 239.220434 
L 230.228623 234.756786 
L 222.758716 230.178797 
L 216.136369 225.130385 
L 210.418533 219.839394 
L 205.68343 214.074958 
L 201.942105 208.49893 
L 199.198132 202.80265 
L 197.461926 197.170456 
L 196.696548 191.6594 
L 196.877766 186.44115 
L 197.941705 181.642671 
L 199.807404 177.338911 
L 202.380068 173.607275 
L 205.555007 170.466184 
L 209.230666 167.905745 
L 213.30534 165.903699 
L 217.677559 164.521487 
L 222.238333 163.678498 
L 226.908929 163.258954 
L 231.619718 163.189712 
L 236.328748 163.242773 
L 245.804832 162.947073 
L 250.67226 161.54181 
L 255.892705 159.101771 
L 261.596604 156.099842 
L 274.807803 148.648926 
L 290.928726 139.628738 
L 300.228266 134.754541 
L 310.392876 129.922348 
L 321.377674 125.327721 
L 333.139644 121.19769 
L 345.562062 117.82247 
L 358.474677 115.605845 
L 371.625346 115.135296 
L 384.6816 116.626903 
L 392.872014 180.265989 
L 393.431455 190.050725 
L 393.408783 189.586145 
L 393.545015 189.355097 
L 393.562918 189.875969 
L 393.616446 189.216455 
L 393.737793 189.486161 
L 391.905329 204.984849 
L 390.085918 199.73129 
L 387.03702 218.860986 
L 380.930985 231.28034 
L 372.384071 242.538 
L 364.82248 222.5012 
L 360.621821 206.320478 
L 358.727221 196.326452 
L 358.126097 191.384845 
L 357.961644 191.222789 
L 357.462623 194.61257 
L 356.25594 198.877622 
L 354.363019 202.387426 
L 351.962624 204.577723 
L 349.375453 204.524316 
L 346.993038 202.393404 
L 345.118133 198.918937 
L 343.908465 194.954948 
L 343.386141 191.184767 
L 343.480872 187.907853 
L 344.127121 184.858214 
L 345.301446 181.89321 
L 346.997323 178.944145 
L 349.211109 175.982152 
L 351.952821 172.97164 
L 355.232526 169.863784 
L 359.069331 166.675786 
L 363.46216 163.52223 
L 368.384805 160.636947 
L 373.781993 158.151581 
L 379.57159 156.139063 
L 385.664702 154.70134 
L 391.118737 173.178583 
L 392.770924 184.885123 
L 393.427712 187.009857 
L 394.488268 188.709813 
L 394.767404 189.538383 
L 394.758144 190.296988 
L 394.495594 191.000132 
L 394.266258 191.386279 
L 393.923407 193.94752 
L 393.176782 193.377878 
L 392.71575 192.026762 
L 392.35567 192.020908 
L 391.137998 192.432987 
L 389.651947 193.045643 
L 388.780017 197.656513 
L 386.892753 203.545296 
L 383.935414 210.000933 
L 379.76363 217.167739 
L 374.352273 223.985298 
L 359.876355 238.88694 
L 350.530795 246.99255 
L 339.835117 254.153899 
L 328.11275 258.003148 
L 316.022317 259.197714 
L 303.785836 259.583031 
L 291.604378 258.487927 
L 279.819183 255.197487 
L 268.747666 250.707418 
L 258.398909 247.10705 
L 248.679091 243.184276 
L 239.696203 239.079204 
L 231.417345 234.836571 
L 223.960497 230.002806 
L 217.351754 225.070902 
L 211.646495 219.898432 
L 206.868609 214.382087 
L 203.076536 208.855151 
L 200.244261 203.391522 
L 198.391461 197.920136 
L 197.489312 192.564261 
L 197.503692 187.459689 
L 198.381455 182.76771 
L 200.03442 178.583409 
L 202.380233 174.908953 
L 205.323895 171.798935 
L 208.76041 169.24887 
L 212.600282 167.221812 
L 216.748245 165.748926 
L 221.097648 164.868436 
L 225.566905 164.353267 
L 234.660107 163.974624 
L 243.975889 163.178367 
L 248.791508 161.859128 
L 253.957548 159.399616 
L 259.61916 156.25962 
L 280.506029 144.094307 
L 289.010691 139.342642 
L 298.363994 134.424421 
L 308.587592 129.489578 
L 319.657575 124.788046 
L 331.520095 120.573225 
L 344.055708 117.15064 
L 357.089531 114.894794 
L 370.372447 114.345383 
L 383.571785 115.800419 
L 392.846625 176.984072 
L 393.633313 190.073859 
L 393.66046 189.324669 
L 392.003913 203.012291 
L 390.46838 198.537544 
L 388.503571 208.480506 
L 383.655322 225.400503 
L 376.117707 239.578563 
L 367.210217 233.744771 
L 361.513565 213.064705 
L 358.767532 199.484012 
L 357.590964 190.737042 
L 357.255423 193.451948 
L 356.253912 197.76994 
L 354.543203 201.419132 
L 352.295432 203.834575 
L 349.805199 204.142807 
L 347.473306 202.180396 
L 345.630265 198.780293 
L 344.443532 194.825821 
L 343.946601 191.034243 
L 344.074866 187.718579 
L 344.748112 184.738723 
L 345.949971 181.741149 
L 347.669053 178.831623 
L 349.897025 175.97135 
L 352.630037 173.06161 
L 355.885544 170.034557 
L 359.678931 166.946889 
L 364.013047 163.948537 
L 368.84965 161.216471 
L 374.129228 158.874757 
L 379.779664 157.006043 
L 385.706617 155.716947 
L 391.150408 172.55176 
L 392.837373 184.897047 
L 393.476115 187.155251 
L 394.469532 188.812835 
L 394.714134 189.614374 
L 394.687893 190.35541 
L 394.403642 191.057685 
L 394.162978 191.450439 
L 393.849816 192.683859 
L 393.09369 193.65659 
L 392.604427 192.05201 
L 392.25122 191.966531 
L 389.58617 193.005649 
L 388.646919 198.108426 
L 386.682759 203.970518 
L 383.671716 210.162449 
L 379.48348 217.271522 
L 374.045259 224.127252 
L 367.485896 230.031583 
L 359.930252 235.745912 
L 351.306108 242.120232 
L 341.56225 248.360636 
L 330.774474 253.915592 
L 319.218479 256.292862 
L 296.00978 255.455155 
L 284.585881 254.056661 
L 273.580949 250.779537 
L 263.291874 246.21542 
L 253.737905 242.441708 
L 236.88408 233.630626 
L 229.605631 228.929884 
L 223.189054 224.136662 
L 217.621844 219.133047 
L 212.937115 214.152669 
L 209.155611 208.914812 
L 206.267371 203.988688 
L 204.244939 199.045148 
L 203.090786 194.172301 
L 202.779221 189.479581 
L 203.265229 185.124138 
L 204.478664 181.204827 
L 206.342518 177.769766 
L 208.762956 174.836216 
L 211.658423 172.369913 
L 214.946076 170.345772 
L 218.547348 168.83309 
L 222.363093 167.836437 
L 226.322293 167.190488 
L 234.494221 166.352701 
L 238.726962 165.506235 
L 243.071698 164.944748 
L 247.649516 162.93117 
L 252.660048 160.116626 
L 264.413738 152.900297 
L 279.050403 143.771805 
L 287.647345 138.702037 
L 297.139712 133.483685 
L 307.569192 128.317561 
L 318.871959 123.42546 
L 330.9846 119.057661 
L 343.791663 115.535807 
L 357.108846 113.276138 
L 370.670208 112.813614 
L 384.119153 114.51357 
L 392.879438 179.117186 
L 393.508311 190.187229 
L 393.475692 189.908271 
L 391.578125 204.481819 
L 390.040319 197.845073 
L 387.895127 209.893427 
L 383.252381 222.870444 
L 375.976749 238.200087 
L 366.563353 248.407214 
L 357.064228 230.214238 
L 352.935214 198.942991 
L 352.441507 191.498508 
L 352.505703 187.6417 
L 352.684731 191.581804 
L 351.662098 199.686344 
L 349.402731 205.316675 
L 346.457249 207.572487 
L 343.433498 206.310534 
L 340.92736 202.013977 
L 339.304159 196.604935 
L 338.618299 191.485688 
L 338.754028 187.245043 
L 339.56811 183.73954 
L 340.961375 180.530261 
L 342.92146 177.316575 
L 345.437382 174.222237 
L 348.49152 171.135939 
L 352.100511 167.931795 
L 356.281205 164.654781 
L 361.037615 161.431285 
L 366.335289 158.524473 
L 372.101528 156.089972 
L 378.242554 154.262542 
L 384.64114 153.120755 
L 390.728993 168.869728 
L 392.720007 184.151551 
L 393.425616 186.973735 
L 394.492422 188.707465 
L 394.77258 189.526373 
L 394.791732 190.182439 
L 394.578356 190.837948 
L 394.123161 191.541716 
L 393.801574 191.895503 
L 393.0757 193.975797 
L 392.547025 192.173535 
L 392.191955 191.914886 
L 391.009296 192.379774 
L 389.580284 192.919146 
L 388.648989 198.015273 
L 386.709466 203.784041 
L 383.740495 209.840674 
L 379.625928 216.816589 
L 374.268292 223.72952 
L 367.772249 229.703831 
L 360.252757 235.239708 
L 351.971326 238.224619 
L 343.457208 237.853541 
L 335.342048 233.69934 
L 328.29778 225.788372 
L 322.946385 214.705669 
L 319.734725 201.747265 
L 318.779893 189.52018 
L 319.684737 180.810496 
L 321.784443 175.647583 
L 324.586925 172.663902 
L 327.789504 171.006503 
L 331.199646 170.246545 
L 334.684619 170.124594 
L 338.149504 170.447918 
L 341.530529 171.052397 
L 344.789622 171.827841 
L 347.901379 172.72297 
L 350.846427 173.727562 
L 353.605243 174.839047 
L 356.15905 176.05152 
L 358.496813 177.314609 
L 360.606688 178.643355 
L 362.47853 180.01807 
L 364.105097 181.448191 
L 365.465522 182.998462 
L 366.562871 184.455826 
L 368.046465 186.970533 
L 368.475997 188.108368 
L 368.799923 189.874355 
L 368.757032 190.266052 
L 368.795953 189.484457 
L 369.204309 188.268727 
L 370.062897 186.955133 
L 371.385346 185.609268 
L 372.220688 184.971039 
L 373.15643 184.446505 
L 374.172779 184.045294 
L 375.240378 183.834061 
L 376.32311 183.847815 
L 377.37913 184.098734 
L 378.363666 184.622711 
L 379.203123 185.581889 
L 379.980048 185.582695 
L 380.611545 187.341582 
L 380.875119 189.382314 
L 380.813847 191.100012 
L 380.42551 193.185203 
L 379.590032 196.05942 
L 378.219205 199.113323 
L 376.110222 204.10844 
L 373.211275 208.215457 
L 369.754532 210.733619 
L 365.858354 213.415272 
L 361.422264 216.786702 
L 356.397781 219.821224 
L 350.938028 221.825825 
L 345.209455 223.001599 
L 339.316436 223.773254 
L 333.30904 224.335031 
L 327.227351 224.615558 
L 321.176664 223.360887 
L 315.478683 221.968223 
L 309.81283 222.312922 
L 304.378931 218.579639 
L 299.794994 213.509033 
L 296.128141 208.214077 
L 293.418097 202.631496 
L 291.738103 196.813907 
L 291.096616 190.852806 
L 291.506976 185.03765 
L 292.886588 179.503807 
L 295.222974 174.218511 
L 298.512622 168.964484 
L 302.708876 163.617091 
L 307.865939 154.782575 
L 320.59714 85.25291 
L 342.284617 53.568 
L 367.001251 54.51763 
L 387.603455 91.868895 
L 393.093502 196.043338 
L 391.649939 198.639185 
L 390.338134 196.581447 
L 389.293427 197.443459 
L 388.526483 175.514198 
L 392.670169 171.458464 
L 394.801746 183.055243 
L 395.869076 184.344865 
L 396.813137 184.98287 
L 397.580203 186.325966 
L 398.038781 188.404242 
L 398.113378 190.522961 
L 397.871815 192.008907 
L 397.434264 192.439179 
L 396.837352 195.846689 
L 395.563368 197.945713 
L 394.115513 198.280333 
L 392.481464 207.460655 
L 390.025408 200.293493 
L 384.283109 249.135515 
L 371.340128 272.030491 
L 356.581933 273.946492 
L 342.177171 270.776475 
L 327.856614 272.433892 
L 312.958711 276.954648 
L 297.142807 282.523956 
L 280.345549 287.836891 
L 262.71166 291.99757 
L 244.479821 294.708656 
L 225.945291 295.488 
L 207.453272 294.409768 
L 189.325018 289.044054 
L 174.637499 262.640974 
L 161.96788 259.260153 
L 151.032792 246.704323 
L 141.694717 240.14088 
L 133.154432 237.342453 
L 124.961343 235.789751 
L 117.022221 234.440908 
L 109.329898 232.992139 
L 101.937987 231.087528 
L 94.953537 228.421575 
L 88.486941 225.243775 
L 82.563727 222.169083 
L 77.313229 213.477752 
L 74.68655 198.730028 
L 73.839291 191.732723 
L 73.832727 188.820719 
L 74.18505 187.243579 
L 74.742006 186.543128 
L 75.384694 186.089014 
L 76.82853 185.682567 
L 78.366538 185.46707 
L 79.388641 182.42347 
L 81.026498 179.033228 
L 83.258214 175.708016 
L 86.069516 172.480742 
L 89.452194 169.252405 
L 93.394101 166.101887 
L 97.886355 162.991082 
L 102.928349 159.898834 
L 108.511374 156.768241 
L 114.642528 153.645017 
L 121.323981 150.525646 
L 128.555198 147.470016 
L 136.306626 144.592481 
L 144.543534 141.939435 
L 153.197864 139.760555 
L 162.197381 137.95314 
L 171.495804 136.36653 
L 181.050771 135.10686 
L 190.778229 134.385326 
L 200.578676 133.96938 
L 210.390434 134.613227 
L 219.99686 136.136601 
L 229.270414 138.346086 
L 238.085958 141.322794 
L 246.291372 145.215152 
L 253.713364 150.225042 
L 260.100875 156.591982 
L 265.253319 164.18134 
L 268.947675 172.872013 
L 271.032373 182.613005 
L 271.32625 193.199751 
L 269.717755 204.070309 
L 266.186973 214.812004 
L 260.888374 223.979015 
L 254.254298 230.564588 
L 246.559214 236.187544 
L 237.99259 240.662551 
L 228.401336 258.581089 
L 228.242221 132.65117 
L 239.140503 127.963916 
L 250.297881 127.151797 
L 250.297881 127.151797 
" clip-path="url(#pfe452793e7)" style="fill: none; stroke: #0000ff; stroke-linecap: square"/>
   </g>
   <g id="patch_3">
    <path d="M 57.6 307.584 
L 57.6 41.472 
" style="fill: none; stroke: #000000; stroke-width: 0.8; stroke-linejoin: miter; stroke-linecap: square"/>
   </g>
   <g id="patch_4">
    <path d="M 414.72 307.584 
L 414.72 41.472 
" style="fill: none; stroke: #000000; stroke-width: 0.8; stroke-linejoin: miter; stroke-linecap: square"/>
   </g>
   <g id="patch_5">
    <path d="M 57.6 307.584 
L 414.72 307.584 
" style="fill: none; stroke: #000000; stroke-width: 0.8; stroke-linejoin: miter; stroke-linecap: square"/>
   </g>
   <g id="patch_6">
    <path d="M 57.6 41.472 
L 414.72 41.472 
" style="fill: none; stroke: #000000; stroke-width: 0.8; stroke-linejoin: miter; stroke-linecap: square"/>
   </g>
   <g id="text_14">
    <!-- Phase Portrait of Simulated Gait -->
    <g transform="translate(140.116875 35.472) scale(0.12 -0.12)">
     <defs>
      <path id="DejaVuSans-50" d="M 1259 4147 
L 1259 2394 
L 2053 2394 
Q 2494 2394 2734 2622 
Q 2975 2850 2975 3272 
Q 2975 3691 2734 3919 
Q 2494 4147 2053 4147 
L 1259 4147 
z
M 628 4666 
L 2053 4666 
Q 2838 4666 3239 4311 
Q 3641 3956 3641 3272 
Q 3641 2581 3239 2228 
Q 2838 1875 2053 1875 
L 1259 1875 
L 1259 0 
L 628 0 
L 628 4666 
z
" transform="scale(0.015625)"/>
      <path id="DejaVuSans-68" d="M 3513 2113 
L 3513 0 
L 2938 0 
L 2938 2094 
Q 2938 2591 2744 2837 
Q 2550 3084 2163 3084 
Q 1697 3084 1428 2787 
Q 1159 2491 1159 1978 
L 1159 0 
L 581 0 
L 581 4863 
L 1159 4863 
L 1159 2956 
Q 1366 3272 1645 3428 
Q 1925 3584 2291 3584 
Q 2894 3584 3203 3211 
Q 3513 2838 3513 2113 
z
" transform="scale(0.015625)"/>
      <path id="DejaVuSans-66" d="M 2375 4863 
L 2375 4384 
L 1825 4384 
Q 1516 4384 1395 4259 
Q 1275 4134 1275 3809 
L 1275 3500 
L 2222 3500 
L 2222 3053 
L 1275 3053 
L 1275 0 
L 697 0 
L 697 3053 
L 147 3053 
L 147 3500 
L 697 3500 
L 697 3744 
Q 697 4328 969 4595 
Q 1241 4863 1831 4863 
L 2375 4863 
z
" transform="scale(0.015625)"/>
      <path id="DejaVuSans-53" d="M 3425 4513 
L 3425 3897 
Q 3066 4069 2747 4153 
Q 2428 4238 2131 4238 
Q 1616 4238 1336 4038 
Q 1056 3838 1056 3469 
Q 1056 3159 1242 3001 
Q 1428 2844 1947 2747 
L 2328 2669 
Q 3034 2534 3370 2195 
Q 3706 1856 3706 1288 
Q 3706 609 3251 259 
Q 2797 -91 1919 -91 
Q 1588 -91 1214 -16 
Q 841 59 441 206 
L 441 856 
Q 825 641 1194 531 
Q 1563 422 1919 422 
Q 2459 422 2753 634 
Q 3047 847 3047 1241 
Q 3047 1584 2836 1778 
Q 2625 1972 2144 2069 
L 1759 2144 
Q 1053 2284 737 2584 
Q 422 2884 422 3419 
Q 422 4038 858 4394 
Q 1294 4750 2059 4750 
Q 2388 4750 2728 4690 
Q 3069 4631 3425 4513 
z
" transform="scale(0.015625)"/>
      <path id="DejaVuSans-6d" d="M 3328 2828 
Q 3544 3216 3844 3400 
Q 4144 3584 4550 3584 
Q 5097 3584 5394 3201 
Q 5691 2819 5691 2113 
L 5691 0 
L 5113 0 
L 5113 2094 
Q 5113 2597 4934 2840 
Q 4756 3084 4391 3084 
Q 3944 3084 3684 2787 
Q 3425 2491 3425 1978 
L 3425 0 
L 2847 0 
L 2847 2094 
Q 2847 2600 2669 2842 
Q 2491 3084 2119 3084 
Q 1678 3084 1418 2786 
Q 1159 2488 1159 1978 
L 1159 0 
L 581 0 
L 581 3500 
L 1159 3500 
L 1159 2956 
Q 1356 3278 1631 3431 
Q 1906 3584 2284 3584 
Q 2666 3584 2933 3390 
Q 3200 3197 3328 2828 
z
" transform="scale(0.015625)"/>
      <path id="DejaVuSans-47" d="M 3809 666 
L 3809 1919 
L 2778 1919 
L 2778 2438 
L 4434 2438 
L 4434 434 
Q 4069 175 3628 42 
Q 3188 -91 2688 -91 
Q 1594 -91 976 548 
Q 359 1188 359 2328 
Q 359 3472 976 4111 
Q 1594 4750 2688 4750 
Q 3144 4750 3555 4637 
Q 3966 4525 4313 4306 
L 4313 3634 
Q 3963 3931 3569 4081 
Q 3175 4231 2741 4231 
Q 1884 4231 1454 3753 
Q 1025 3275 1025 2328 
Q 1025 1384 1454 906 
Q 1884 428 2741 428 
Q 3075 428 3337 486 
Q 3600 544 3809 666 
z
" transform="scale(0.015625)"/>
     </defs>
     <use xlink:href="#DejaVuSans-50"/>
     <use xlink:href="#DejaVuSans-68" x="60.302734"/>
     <use xlink:href="#DejaVuSans-61" x="123.681641"/>
     <use xlink:href="#DejaVuSans-73" x="184.960938"/>
     <use xlink:href="#DejaVuSans-65" x="237.060547"/>
     <use xlink:href="#DejaVuSans-20" x="298.583984"/>
     <use xlink:href="#DejaVuSans-50" x="330.371094"/>
     <use xlink:href="#DejaVuSans-6f" x="387.048828"/>
     <use xlink:href="#DejaVuSans-72" x="448.230469"/>
     <use xlink:href="#DejaVuSans-74" x="489.34375"/>
     <use xlink:href="#DejaVuSans-72" x="528.552734"/>
     <use xlink:href="#DejaVuSans-61" x="569.666016"/>
     <use xlink:href="#DejaVuSans-69" x="630.945312"/>
     <use xlink:href="#DejaVuSans-74" x="658.728516"/>
     <use xlink:href="#DejaVuSans-20" x="697.9375"/>
     <use xlink:href="#DejaVuSans-6f" x="729.724609"/>
     <use xlink:href="#DejaVuSans-66" x="790.90625"/>
     <use xlink:href="#DejaVuSans-20" x="826.111328"/>
     <use xlink:href="#DejaVuSans-53" x="857.898438"/>
     <use xlink:href="#DejaVuSans-69" x="921.375"/>
     <use xlink:href="#DejaVuSans-6d" x="949.158203"/>
     <use xlink:href="#DejaVuSans-75" x="1046.570312"/>
     <use xlink:href="#DejaVuSans-6c" x="1109.949219"/>
     <use xlink:href="#DejaVuSans-61" x="1137.732422"/>
     <use xlink:href="#DejaVuSans-74" x="1199.011719"/>
     <use xlink:href="#DejaVuSans-65" x="1238.220703"/>
     <use xlink:href="#DejaVuSans-64" x="1299.744141"/>
     <use xlink:href="#DejaVuSans-20" x="1363.220703"/>
     <use xlink:href="#DejaVuSans-47" x="1395.007812"/>
     <use xlink:href="#DejaVuSans-61" x="1472.498047"/>
     <use xlink:href="#DejaVuSans-69" x="1533.777344"/>
     <use xlink:href="#DejaVuSans-74" x="1561.560547"/>
    </g>
   </g>
  </g>
 </g>
 <defs>
  <clipPath id="pfe452793e7">
   <rect x="57.6" y="41.472" width="357.12" height="266.112"/>
  </clipPath>
 </defs>
</svg>
