<?xml version="1.0" encoding="utf-8" standalone="no"?>
<!DOCTYPE svg PUBLIC "-//W3C//DTD SVG 1.1//EN"
  "http://www.w3.org/Graphics/SVG/1.1/DTD/svg11.dtd">
<svg xmlns:xlink="http://www.w3.org/1999/xlink" width="864pt" height="576pt" viewBox="0 0 864 576" xmlns="http://www.w3.org/2000/svg" version="1.1">
 <metadata>
  <rdf:RDF xmlns:dc="http://purl.org/dc/elements/1.1/" xmlns:cc="http://creativecommons.org/ns#" xmlns:rdf="http://www.w3.org/1999/02/22-rdf-syntax-ns#">
   <cc:Work>
    <dc:type rdf:resource="http://purl.org/dc/dcmitype/StillImage"/>
    <dc:date>2026-01-28T19:17:38.990677</dc:date>
    <dc:format>image/svg+xml</dc:format>
    <dc:creator>
     <cc:Agent>
      <dc:title>Matplotlib v3.9.4, https://matplotlib.org/</dc:title>
     </cc:Agent>
    </dc:creator>
   </cc:Work>
  </rdf:RDF>
 </metadata>
 <defs>
  <style type="text/css">*{stroke-linejoin: round; stroke-linecap: butt}</style>
 </defs>
 <g id="figure_1">
  <g id="patch_1">
   <path d="M 0 576 
L 864 576 
L 864 0 
L 0 0 
z
" style="fill: #ffffff"/>
  </g>
  <g id="axes_1">
   <g id="patch_2">
    <path d="M 60.05 257.04 
L 853.2 257.04 
L 853.2 10.8 
L 60.05 10.8 
z
" style="fill: #ffffff"/>
   </g>
   <g id="matplotlib.axis_1">
    <g id="xtick_1">
     <g id="line2d_1">
      <path d="M 96.102273 257.04 
L 96.102273 10.8 
" clip-path="url(#p83edc2b914)" style="fill: none; stroke: #b0b0b0; stroke-width: 0.8; stroke-linecap: square"/>
     </g>
     <g id="line2d_2">
      <defs>
       <path id="m2d5c5bb237" d="M 0 0 
L 0 3.5 
" style="stroke: #000000; stroke-width: 0.8"/>
      </defs>
      <g>
       <use xlink:href="#m2d5c5bb237" x="96.102273" y="257.04" style="stroke: #000000; stroke-width: 0.8"/>
      </g>
     </g>
     <g id="text_1">
      <!-- 0.0 -->
      <g transform="translate(88.15071 271.638438) scale(0.1 -0.1)">
       <defs>
        <path id="DejaVuSans-30" d="M 2034 4250 
Q 1547 4250 1301 3770 
Q 1056 3291 1056 2328 
Q 1056 1369 1301 889 
Q 1547 409 2034 409 
Q 2525 409 2770 889 
Q 3016 1369 3016 2328 
Q 3016 3291 2770 3770 
Q 2525 4250 2034 4250 
z
M 2034 4750 
Q 2819 4750 3233 4129 
Q 3647 3509 3647 2328 
Q 3647 1150 3233 529 
Q 2819 -91 2034 -91 
Q 1250 -91 836 529 
Q 422 1150 422 2328 
Q 422 3509 836 4129 
Q 1250 4750 2034 4750 
z
" transform="scale(0.015625)"/>
        <path id="DejaVuSans-2e" d="M 684 794 
L 1344 794 
L 1344 0 
L 684 0 
L 684 794 
z
" transform="scale(0.015625)"/>
       </defs>
       <use xlink:href="#DejaVuSans-30"/>
       <use xlink:href="#DejaVuSans-2e" x="63.623047"/>
       <use xlink:href="#DejaVuSans-30" x="95.410156"/>
      </g>
     </g>
    </g>
    <g id="xtick_2">
     <g id="line2d_3">
      <path d="M 186.187912 257.04 
L 186.187912 10.8 
" clip-path="url(#p83edc2b914)" style="fill: none; stroke: #b0b0b0; stroke-width: 0.8; stroke-linecap: square"/>
     </g>
     <g id="line2d_4">
      <g>
       <use xlink:href="#m2d5c5bb237" x="186.187912" y="257.04" style="stroke: #000000; stroke-width: 0.8"/>
      </g>
     </g>
     <g id="text_2">
      <!-- 2.5 -->
      <g transform="translate(178.236349 271.638438) scale(0.1 -0.1)">
       <defs>
        <path id="DejaVuSans-32" d="M 1228 531 
L 3431 531 
L 3431 0 
L 469 0 
L 469 531 
Q 828 903 1448 1529 
Q 2069 2156 2228 2338 
Q 2531 2678 2651 2914 
Q 2772 3150 2772 3378 
Q 2772 3750 2511 3984 
Q 2250 4219 1831 4219 
Q 1534 4219 1204 4116 
Q 875 4013 500 3803 
L 500 4441 
Q 881 4594 1212 4672 
Q 1544 4750 1819 4750 
Q 2544 4750 2975 4387 
Q 3406 4025 3406 3419 
Q 3406 3131 3298 2873 
Q 3191 2616 2906 2266 
Q 2828 2175 2409 1742 
Q 1991 1309 1228 531 
z
" transform="scale(0.015625)"/>
        <path id="DejaVuSans-35" d="M 691 4666 
L 3169 4666 
L 3169 4134 
L 1269 4134 
L 1269 2991 
Q 1406 3038 1543 3061 
Q 1681 3084 1819 3084 
Q 2600 3084 3056 2656 
Q 3513 2228 3513 1497 
Q 3513 744 3044 326 
Q 2575 -91 1722 -91 
Q 1428 -91 1123 -41 
Q 819 9 494 109 
L 494 744 
Q 775 591 1075 516 
Q 1375 441 1709 441 
Q 2250 441 2565 725 
Q 2881 1009 2881 1497 
Q 2881 1984 2565 2268 
Q 2250 2553 1709 2553 
Q 1456 2553 1204 2497 
Q 953 2441 691 2322 
L 691 4666 
z
" transform="scale(0.015625)"/>
       </defs>
       <use xlink:href="#DejaVuSans-32"/>
       <use xlink:href="#DejaVuSans-2e" x="63.623047"/>
       <use xlink:href="#DejaVuSans-35" x="95.410156"/>
      </g>
     </g>
    </g>
    <g id="xtick_3">
     <g id="line2d_5">
      <path d="M 276.273551 257.04 
L 276.273551 10.8 
" clip-path="url(#p83edc2b914)" style="fill: none; stroke: #b0b0b0; stroke-width: 0.8; stroke-linecap: square"/>
     </g>
     <g id="line2d_6">
      <g>
       <use xlink:href="#m2d5c5bb237" x="276.273551" y="257.04" style="stroke: #000000; stroke-width: 0.8"/>
      </g>
     </g>
     <g id="text_3">
      <!-- 5.0 -->
      <g transform="translate(268.321988 271.638438) scale(0.1 -0.1)">
       <use xlink:href="#DejaVuSans-35"/>
       <use xlink:href="#DejaVuSans-2e" x="63.623047"/>
       <use xlink:href="#DejaVuSans-30" x="95.410156"/>
      </g>
     </g>
    </g>
    <g id="xtick_4">
     <g id="line2d_7">
      <path d="M 366.35919 257.04 
L 366.35919 10.8 
" clip-path="url(#p83edc2b914)" style="fill: none; stroke: #b0b0b0; stroke-width: 0.8; stroke-linecap: square"/>
     </g>
     <g id="line2d_8">
      <g>
       <use xlink:href="#m2d5c5bb237" x="366.35919" y="257.04" style="stroke: #000000; stroke-width: 0.8"/>
      </g>
     </g>
     <g id="text_4">
      <!-- 7.5 -->
      <g transform="translate(358.407627 271.638438) scale(0.1 -0.1)">
       <defs>
        <path id="DejaVuSans-37" d="M 525 4666 
L 3525 4666 
L 3525 4397 
L 1831 0 
L 1172 0 
L 2766 4134 
L 525 4134 
L 525 4666 
z
" transform="scale(0.015625)"/>
       </defs>
       <use xlink:href="#DejaVuSans-37"/>
       <use xlink:href="#DejaVuSans-2e" x="63.623047"/>
       <use xlink:href="#DejaVuSans-35" x="95.410156"/>
      </g>
     </g>
    </g>
    <g id="xtick_5">
     <g id="line2d_9">
      <path d="M 456.444829 257.04 
L 456.444829 10.8 
" clip-path="url(#p83edc2b914)" style="fill: none; stroke: #b0b0b0; stroke-width: 0.8; stroke-linecap: square"/>
     </g>
     <g id="line2d_10">
      <g>
       <use xlink:href="#m2d5c5bb237" x="456.444829" y="257.04" style="stroke: #000000; stroke-width: 0.8"/>
      </g>
     </g>
     <g id="text_5">
      <!-- 10.0 -->
      <g transform="translate(445.312016 271.638438) scale(0.1 -0.1)">
       <defs>
        <path id="DejaVuSans-31" d="M 794 531 
L 1825 531 
L 1825 4091 
L 703 3866 
L 703 4441 
L 1819 4666 
L 2450 4666 
L 2450 531 
L 3481 531 
L 3481 0 
L 794 0 
L 794 531 
z
" transform="scale(0.015625)"/>
       </defs>
       <use xlink:href="#DejaVuSans-31"/>
       <use xlink:href="#DejaVuSans-30" x="63.623047"/>
       <use xlink:href="#DejaVuSans-2e" x="127.246094"/>
       <use xlink:href="#DejaVuSans-30" x="159.033203"/>
      </g>
     </g>
    </g>
    <g id="xtick_6">
     <g id="line2d_11">
      <path d="M 546.530468 257.04 
L 546.530468 10.8 
" clip-path="url(#p83edc2b914)" style="fill: none; stroke: #b0b0b0; stroke-width: 0.8; stroke-linecap: square"/>
     </g>
     <g id="line2d_12">
      <g>
       <use xlink:href="#m2d5c5bb237" x="546.530468" y="257.04" style="stroke: #000000; stroke-width: 0.8"/>
      </g>
     </g>
     <g id="text_6">
      <!-- 12.5 -->
      <g transform="translate(535.397655 271.638438) scale(0.1 -0.1)">
       <use xlink:href="#DejaVuSans-31"/>
       <use xlink:href="#DejaVuSans-32" x="63.623047"/>
       <use xlink:href="#DejaVuSans-2e" x="127.246094"/>
       <use xlink:href="#DejaVuSans-35" x="159.033203"/>
      </g>
     </g>
    </g>
    <g id="xtick_7">
     <g id="line2d_13">
      <path d="M 636.616107 257.04 
L 636.616107 10.8 
" clip-path="url(#p83edc2b914)" style="fill: none; stroke: #b0b0b0; stroke-width: 0.8; stroke-linecap: square"/>
     </g>
     <g id="line2d_14">
      <g>
       <use xlink:href="#m2d5c5bb237" x="636.616107" y="257.04" style="stroke: #000000; stroke-width: 0.8"/>
      </g>
     </g>
     <g id="text_7">
      <!-- 15.0 -->
      <g transform="translate(625.483294 271.638438) scale(0.1 -0.1)">
       <use xlink:href="#DejaVuSans-31"/>
       <use xlink:href="#DejaVuSans-35" x="63.623047"/>
       <use xlink:href="#DejaVuSans-2e" x="127.246094"/>
       <use xlink:href="#DejaVuSans-30" x="159.033203"/>
      </g>
     </g>
    </g>
    <g id="xtick_8">
     <g id="line2d_15">
      <path d="M 726.701746 257.04 
L 726.701746 10.8 
" clip-path="url(#p83edc2b914)" style="fill: none; stroke: #b0b0b0; stroke-width: 0.8; stroke-linecap: square"/>
     </g>
     <g id="line2d_16">
      <g>
       <use xlink:href="#m2d5c5bb237" x="726.701746" y="257.04" style="stroke: #000000; stroke-width: 0.8"/>
      </g>
     </g>
     <g id="text_8">
      <!-- 17.5 -->
      <g transform="translate(715.568933 271.638438) scale(0.1 -0.1)">
       <use xlink:href="#DejaVuSans-31"/>
       <use xlink:href="#DejaVuSans-37" x="63.623047"/>
       <use xlink:href="#DejaVuSans-2e" x="127.246094"/>
       <use xlink:href="#DejaVuSans-35" x="159.033203"/>
      </g>
     </g>
    </g>
    <g id="xtick_9">
     <g id="line2d_17">
      <path d="M 816.787385 257.04 
L 816.787385 10.8 
" clip-path="url(#p83edc2b914)" style="fill: none; stroke: #b0b0b0; stroke-width: 0.8; stroke-linecap: square"/>
     </g>
     <g id="line2d_18">
      <g>
       <use xlink:href="#m2d5c5bb237" x="816.787385" y="257.04" style="stroke: #000000; stroke-width: 0.8"/>
      </g>
     </g>
     <g id="text_9">
      <!-- 20.0 -->
      <g transform="translate(805.654572 271.638438) scale(0.1 -0.1)">
       <use xlink:href="#DejaVuSans-32"/>
       <use xlink:href="#DejaVuSans-30" x="63.623047"/>
       <use xlink:href="#DejaVuSans-2e" x="127.246094"/>
       <use xlink:href="#DejaVuSans-30" x="159.033203"/>
      </g>
     </g>
    </g>
   </g>
   <g id="matplotlib.axis_2">
    <g id="ytick_1">
     <g id="line2d_19">
      <path d="M 60.05 245.847273 
L 853.2 245.847273 
" clip-path="url(#p83edc2b914)" style="fill: none; stroke: #b0b0b0; stroke-width: 0.8; stroke-linecap: square"/>
     </g>
     <g id="line2d_20">
      <defs>
       <path id="m3fc07a49fc" d="M 0 0 
L -3.5 0 
" style="stroke: #000000; stroke-width: 0.8"/>
      </defs>
      <g>
       <use xlink:href="#m3fc07a49fc" x="60.05" y="245.847273" style="stroke: #000000; stroke-width: 0.8"/>
      </g>
     </g>
     <g id="text_10">
      <!-- 0.0 -->
      <g transform="translate(37.146875 249.646491) scale(0.1 -0.1)">
       <use xlink:href="#DejaVuSans-30"/>
       <use xlink:href="#DejaVuSans-2e" x="63.623047"/>
       <use xlink:href="#DejaVuSans-30" x="95.410156"/>
      </g>
     </g>
    </g>
    <g id="ytick_2">
     <g id="line2d_21">
      <path d="M 60.05 201.076364 
L 853.2 201.076364 
" clip-path="url(#p83edc2b914)" style="fill: none; stroke: #b0b0b0; stroke-width: 0.8; stroke-linecap: square"/>
     </g>
     <g id="line2d_22">
      <g>
       <use xlink:href="#m3fc07a49fc" x="60.05" y="201.076364" style="stroke: #000000; stroke-width: 0.8"/>
      </g>
     </g>
     <g id="text_11">
      <!-- 0.2 -->
      <g transform="translate(37.146875 204.875582) scale(0.1 -0.1)">
       <use xlink:href="#DejaVuSans-30"/>
       <use xlink:href="#DejaVuSans-2e" x="63.623047"/>
       <use xlink:href="#DejaVuSans-32" x="95.410156"/>
      </g>
     </g>
    </g>
    <g id="ytick_3">
     <g id="line2d_23">
      <path d="M 60.05 156.305455 
L 853.2 156.305455 
" clip-path="url(#p83edc2b914)" style="fill: none; stroke: #b0b0b0; stroke-width: 0.8; stroke-linecap: square"/>
     </g>
     <g id="line2d_24">
      <g>
       <use xlink:href="#m3fc07a49fc" x="60.05" y="156.305455" style="stroke: #000000; stroke-width: 0.8"/>
      </g>
     </g>
     <g id="text_12">
      <!-- 0.4 -->
      <g transform="translate(37.146875 160.104673) scale(0.1 -0.1)">
       <defs>
        <path id="DejaVuSans-34" d="M 2419 4116 
L 825 1625 
L 2419 1625 
L 2419 4116 
z
M 2253 4666 
L 3047 4666 
L 3047 1625 
L 3713 1625 
L 3713 1100 
L 3047 1100 
L 3047 0 
L 2419 0 
L 2419 1100 
L 313 1100 
L 313 1709 
L 2253 4666 
z
" transform="scale(0.015625)"/>
       </defs>
       <use xlink:href="#DejaVuSans-30"/>
       <use xlink:href="#DejaVuSans-2e" x="63.623047"/>
       <use xlink:href="#DejaVuSans-34" x="95.410156"/>
      </g>
     </g>
    </g>
    <g id="ytick_4">
     <g id="line2d_25">
      <path d="M 60.05 111.534545 
L 853.2 111.534545 
" clip-path="url(#p83edc2b914)" style="fill: none; stroke: #b0b0b0; stroke-width: 0.8; stroke-linecap: square"/>
     </g>
     <g id="line2d_26">
      <g>
       <use xlink:href="#m3fc07a49fc" x="60.05" y="111.534545" style="stroke: #000000; stroke-width: 0.8"/>
      </g>
     </g>
     <g id="text_13">
      <!-- 0.6 -->
      <g transform="translate(37.146875 115.333764) scale(0.1 -0.1)">
       <defs>
        <path id="DejaVuSans-36" d="M 2113 2584 
Q 1688 2584 1439 2293 
Q 1191 2003 1191 1497 
Q 1191 994 1439 701 
Q 1688 409 2113 409 
Q 2538 409 2786 701 
Q 3034 994 3034 1497 
Q 3034 2003 2786 2293 
Q 2538 2584 2113 2584 
z
M 3366 4563 
L 3366 3988 
Q 3128 4100 2886 4159 
Q 2644 4219 2406 4219 
Q 1781 4219 1451 3797 
Q 1122 3375 1075 2522 
Q 1259 2794 1537 2939 
Q 1816 3084 2150 3084 
Q 2853 3084 3261 2657 
Q 3669 2231 3669 1497 
Q 3669 778 3244 343 
Q 2819 -91 2113 -91 
Q 1303 -91 875 529 
Q 447 1150 447 2328 
Q 447 3434 972 4092 
Q 1497 4750 2381 4750 
Q 2619 4750 2861 4703 
Q 3103 4656 3366 4563 
z
" transform="scale(0.015625)"/>
       </defs>
       <use xlink:href="#DejaVuSans-30"/>
       <use xlink:href="#DejaVuSans-2e" x="63.623047"/>
       <use xlink:href="#DejaVuSans-36" x="95.410156"/>
      </g>
     </g>
    </g>
    <g id="ytick_5">
     <g id="line2d_27">
      <path d="M 60.05 66.763636 
L 853.2 66.763636 
" clip-path="url(#p83edc2b914)" style="fill: none; stroke: #b0b0b0; stroke-width: 0.8; stroke-linecap: square"/>
     </g>
     <g id="line2d_28">
      <g>
       <use xlink:href="#m3fc07a49fc" x="60.05" y="66.763636" style="stroke: #000000; stroke-width: 0.8"/>
      </g>
     </g>
     <g id="text_14">
      <!-- 0.8 -->
      <g transform="translate(37.146875 70.562855) scale(0.1 -0.1)">
       <defs>
        <path id="DejaVuSans-38" d="M 2034 2216 
Q 1584 2216 1326 1975 
Q 1069 1734 1069 1313 
Q 1069 891 1326 650 
Q 1584 409 2034 409 
Q 2484 409 2743 651 
Q 3003 894 3003 1313 
Q 3003 1734 2745 1975 
Q 2488 2216 2034 2216 
z
M 1403 2484 
Q 997 2584 770 2862 
Q 544 3141 544 3541 
Q 544 4100 942 4425 
Q 1341 4750 2034 4750 
Q 2731 4750 3128 4425 
Q 3525 4100 3525 3541 
Q 3525 3141 3298 2862 
Q 3072 2584 2669 2484 
Q 3125 2378 3379 2068 
Q 3634 1759 3634 1313 
Q 3634 634 3220 271 
Q 2806 -91 2034 -91 
Q 1263 -91 848 271 
Q 434 634 434 1313 
Q 434 1759 690 2068 
Q 947 2378 1403 2484 
z
M 1172 3481 
Q 1172 3119 1398 2916 
Q 1625 2713 2034 2713 
Q 2441 2713 2670 2916 
Q 2900 3119 2900 3481 
Q 2900 3844 2670 4047 
Q 2441 4250 2034 4250 
Q 1625 4250 1398 4047 
Q 1172 3844 1172 3481 
z
" transform="scale(0.015625)"/>
       </defs>
       <use xlink:href="#DejaVuSans-30"/>
       <use xlink:href="#DejaVuSans-2e" x="63.623047"/>
       <use xlink:href="#DejaVuSans-38" x="95.410156"/>
      </g>
     </g>
    </g>
    <g id="ytick_6">
     <g id="line2d_29">
      <path d="M 60.05 21.992727 
L 853.2 21.992727 
" clip-path="url(#p83edc2b914)" style="fill: none; stroke: #b0b0b0; stroke-width: 0.8; stroke-linecap: square"/>
     </g>
     <g id="line2d_30">
      <g>
       <use xlink:href="#m3fc07a49fc" x="60.05" y="21.992727" style="stroke: #000000; stroke-width: 0.8"/>
      </g>
     </g>
     <g id="text_15">
      <!-- 1.0 -->
      <g transform="translate(37.146875 25.791946) scale(0.1 -0.1)">
       <use xlink:href="#DejaVuSans-31"/>
       <use xlink:href="#DejaVuSans-2e" x="63.623047"/>
       <use xlink:href="#DejaVuSans-30" x="95.410156"/>
      </g>
     </g>
    </g>
    <g id="text_16">
     <!-- Gait Cycle Estimator (%) -->
     <g transform="translate(30.65125 207.714375) rotate(-90) scale(0.12 -0.12)">
      <defs>
       <path id="DejaVuSans-47" d="M 3809 666 
L 3809 1919 
L 2778 1919 
L 2778 2438 
L 4434 2438 
L 4434 434 
Q 4069 175 3628 42 
Q 3188 -91 2688 -91 
Q 1594 -91 976 548 
Q 359 1188 359 2328 
Q 359 3472 976 4111 
Q 1594 4750 2688 4750 
Q 3144 4750 3555 4637 
Q 3966 4525 4313 4306 
L 4313 3634 
Q 3963 3931 3569 4081 
Q 3175 4231 2741 4231 
Q 1884 4231 1454 3753 
Q 1025 3275 1025 2328 
Q 1025 1384 1454 906 
Q 1884 428 2741 428 
Q 3075 428 3337 486 
Q 3600 544 3809 666 
z
" transform="scale(0.015625)"/>
       <path id="DejaVuSans-61" d="M 2194 1759 
Q 1497 1759 1228 1600 
Q 959 1441 959 1056 
Q 959 750 1161 570 
Q 1363 391 1709 391 
Q 2188 391 2477 730 
Q 2766 1069 2766 1631 
L 2766 1759 
L 2194 1759 
z
M 3341 1997 
L 3341 0 
L 2766 0 
L 2766 531 
Q 2569 213 2275 61 
Q 1981 -91 1556 -91 
Q 1019 -91 701 211 
Q 384 513 384 1019 
Q 384 1609 779 1909 
Q 1175 2209 1959 2209 
L 2766 2209 
L 2766 2266 
Q 2766 2663 2505 2880 
Q 2244 3097 1772 3097 
Q 1472 3097 1187 3025 
Q 903 2953 641 2809 
L 641 3341 
Q 956 3463 1253 3523 
Q 1550 3584 1831 3584 
Q 2591 3584 2966 3190 
Q 3341 2797 3341 1997 
z
" transform="scale(0.015625)"/>
       <path id="DejaVuSans-69" d="M 603 3500 
L 1178 3500 
L 1178 0 
L 603 0 
L 603 3500 
z
M 603 4863 
L 1178 4863 
L 1178 4134 
L 603 4134 
L 603 4863 
z
" transform="scale(0.015625)"/>
       <path id="DejaVuSans-74" d="M 1172 4494 
L 1172 3500 
L 2356 3500 
L 2356 3053 
L 1172 3053 
L 1172 1153 
Q 1172 725 1289 603 
Q 1406 481 1766 481 
L 2356 481 
L 2356 0 
L 1766 0 
Q 1100 0 847 248 
Q 594 497 594 1153 
L 594 3053 
L 172 3053 
L 172 3500 
L 594 3500 
L 594 4494 
L 1172 4494 
z
" transform="scale(0.015625)"/>
       <path id="DejaVuSans-20" transform="scale(0.015625)"/>
       <path id="DejaVuSans-43" d="M 4122 4306 
L 4122 3641 
Q 3803 3938 3442 4084 
Q 3081 4231 2675 4231 
Q 1875 4231 1450 3742 
Q 1025 3253 1025 2328 
Q 1025 1406 1450 917 
Q 1875 428 2675 428 
Q 3081 428 3442 575 
Q 3803 722 4122 1019 
L 4122 359 
Q 3791 134 3420 21 
Q 3050 -91 2638 -91 
Q 1578 -91 968 557 
Q 359 1206 359 2328 
Q 359 3453 968 4101 
Q 1578 4750 2638 4750 
Q 3056 4750 3426 4639 
Q 3797 4528 4122 4306 
z
" transform="scale(0.015625)"/>
       <path id="DejaVuSans-79" d="M 2059 -325 
Q 1816 -950 1584 -1140 
Q 1353 -1331 966 -1331 
L 506 -1331 
L 506 -850 
L 844 -850 
Q 1081 -850 1212 -737 
Q 1344 -625 1503 -206 
L 1606 56 
L 191 3500 
L 800 3500 
L 1894 763 
L 2988 3500 
L 3597 3500 
L 2059 -325 
z
" transform="scale(0.015625)"/>
       <path id="DejaVuSans-63" d="M 3122 3366 
L 3122 2828 
Q 2878 2963 2633 3030 
Q 2388 3097 2138 3097 
Q 1578 3097 1268 2742 
Q 959 2388 959 1747 
Q 959 1106 1268 751 
Q 1578 397 2138 397 
Q 2388 397 2633 464 
Q 2878 531 3122 666 
L 3122 134 
Q 2881 22 2623 -34 
Q 2366 -91 2075 -91 
Q 1284 -91 818 406 
Q 353 903 353 1747 
Q 353 2603 823 3093 
Q 1294 3584 2113 3584 
Q 2378 3584 2631 3529 
Q 2884 3475 3122 3366 
z
" transform="scale(0.015625)"/>
       <path id="DejaVuSans-6c" d="M 603 4863 
L 1178 4863 
L 1178 0 
L 603 0 
L 603 4863 
z
" transform="scale(0.015625)"/>
       <path id="DejaVuSans-65" d="M 3597 1894 
L 3597 1613 
L 953 1613 
Q 991 1019 1311 708 
Q 1631 397 2203 397 
Q 2534 397 2845 478 
Q 3156 559 3463 722 
L 3463 178 
Q 3153 47 2828 -22 
Q 2503 -91 2169 -91 
Q 1331 -91 842 396 
Q 353 884 353 1716 
Q 353 2575 817 3079 
Q 1281 3584 2069 3584 
Q 2775 3584 3186 3129 
Q 3597 2675 3597 1894 
z
M 3022 2063 
Q 3016 2534 2758 2815 
Q 2500 3097 2075 3097 
Q 1594 3097 1305 2825 
Q 1016 2553 972 2059 
L 3022 2063 
z
" transform="scale(0.015625)"/>
       <path id="DejaVuSans-45" d="M 628 4666 
L 3578 4666 
L 3578 4134 
L 1259 4134 
L 1259 2753 
L 3481 2753 
L 3481 2222 
L 1259 2222 
L 1259 531 
L 3634 531 
L 3634 0 
L 628 0 
L 628 4666 
z
" transform="scale(0.015625)"/>
       <path id="DejaVuSans-73" d="M 2834 3397 
L 2834 2853 
Q 2591 2978 2328 3040 
Q 2066 3103 1784 3103 
Q 1356 3103 1142 2972 
Q 928 2841 928 2578 
Q 928 2378 1081 2264 
Q 1234 2150 1697 2047 
L 1894 2003 
Q 2506 1872 2764 1633 
Q 3022 1394 3022 966 
Q 3022 478 2636 193 
Q 2250 -91 1575 -91 
Q 1294 -91 989 -36 
Q 684 19 347 128 
L 347 722 
Q 666 556 975 473 
Q 1284 391 1588 391 
Q 1994 391 2212 530 
Q 2431 669 2431 922 
Q 2431 1156 2273 1281 
Q 2116 1406 1581 1522 
L 1381 1569 
Q 847 1681 609 1914 
Q 372 2147 372 2553 
Q 372 3047 722 3315 
Q 1072 3584 1716 3584 
Q 2034 3584 2315 3537 
Q 2597 3491 2834 3397 
z
" transform="scale(0.015625)"/>
       <path id="DejaVuSans-6d" d="M 3328 2828 
Q 3544 3216 3844 3400 
Q 4144 3584 4550 3584 
Q 5097 3584 5394 3201 
Q 5691 2819 5691 2113 
L 5691 0 
L 5113 0 
L 5113 2094 
Q 5113 2597 4934 2840 
Q 4756 3084 4391 3084 
Q 3944 3084 3684 2787 
Q 3425 2491 3425 1978 
L 3425 0 
L 2847 0 
L 2847 2094 
Q 2847 2600 2669 2842 
Q 2491 3084 2119 3084 
Q 1678 3084 1418 2786 
Q 1159 2488 1159 1978 
L 1159 0 
L 581 0 
L 581 3500 
L 1159 3500 
L 1159 2956 
Q 1356 3278 1631 3431 
Q 1906 3584 2284 3584 
Q 2666 3584 2933 3390 
Q 3200 3197 3328 2828 
z
" transform="scale(0.015625)"/>
       <path id="DejaVuSans-6f" d="M 1959 3097 
Q 1497 3097 1228 2736 
Q 959 2375 959 1747 
Q 959 1119 1226 758 
Q 1494 397 1959 397 
Q 2419 397 2687 759 
Q 2956 1122 2956 1747 
Q 2956 2369 2687 2733 
Q 2419 3097 1959 3097 
z
M 1959 3584 
Q 2709 3584 3137 3096 
Q 3566 2609 3566 1747 
Q 3566 888 3137 398 
Q 2709 -91 1959 -91 
Q 1206 -91 779 398 
Q 353 888 353 1747 
Q 353 2609 779 3096 
Q 1206 3584 1959 3584 
z
" transform="scale(0.015625)"/>
       <path id="DejaVuSans-72" d="M 2631 2963 
Q 2534 3019 2420 3045 
Q 2306 3072 2169 3072 
Q 1681 3072 1420 2755 
Q 1159 2438 1159 1844 
L 1159 0 
L 581 0 
L 581 3500 
L 1159 3500 
L 1159 2956 
Q 1341 3275 1631 3429 
Q 1922 3584 2338 3584 
Q 2397 3584 2469 3576 
Q 2541 3569 2628 3553 
L 2631 2963 
z
" transform="scale(0.015625)"/>
       <path id="DejaVuSans-28" d="M 1984 4856 
Q 1566 4138 1362 3434 
Q 1159 2731 1159 2009 
Q 1159 1288 1364 580 
Q 1569 -128 1984 -844 
L 1484 -844 
Q 1016 -109 783 600 
Q 550 1309 550 2009 
Q 550 2706 781 3412 
Q 1013 4119 1484 4856 
L 1984 4856 
z
" transform="scale(0.015625)"/>
       <path id="DejaVuSans-25" d="M 4653 2053 
Q 4381 2053 4226 1822 
Q 4072 1591 4072 1178 
Q 4072 772 4226 539 
Q 4381 306 4653 306 
Q 4919 306 5073 539 
Q 5228 772 5228 1178 
Q 5228 1588 5073 1820 
Q 4919 2053 4653 2053 
z
M 4653 2450 
Q 5147 2450 5437 2106 
Q 5728 1763 5728 1178 
Q 5728 594 5436 251 
Q 5144 -91 4653 -91 
Q 4153 -91 3862 251 
Q 3572 594 3572 1178 
Q 3572 1766 3864 2108 
Q 4156 2450 4653 2450 
z
M 1428 4353 
Q 1159 4353 1004 4120 
Q 850 3888 850 3481 
Q 850 3069 1003 2837 
Q 1156 2606 1428 2606 
Q 1700 2606 1854 2837 
Q 2009 3069 2009 3481 
Q 2009 3884 1853 4118 
Q 1697 4353 1428 4353 
z
M 4250 4750 
L 4750 4750 
L 1831 -91 
L 1331 -91 
L 4250 4750 
z
M 1428 4750 
Q 1922 4750 2215 4408 
Q 2509 4066 2509 3481 
Q 2509 2891 2217 2550 
Q 1925 2209 1428 2209 
Q 931 2209 642 2551 
Q 353 2894 353 3481 
Q 353 4063 643 4406 
Q 934 4750 1428 4750 
z
" transform="scale(0.015625)"/>
       <path id="DejaVuSans-29" d="M 513 4856 
L 1013 4856 
Q 1481 4119 1714 3412 
Q 1947 2706 1947 2009 
Q 1947 1309 1714 600 
Q 1481 -109 1013 -844 
L 513 -844 
Q 928 -128 1133 580 
Q 1338 1288 1338 2009 
Q 1338 2731 1133 3434 
Q 928 4138 513 4856 
z
" transform="scale(0.015625)"/>
      </defs>
      <use xlink:href="#DejaVuSans-47"/>
      <use xlink:href="#DejaVuSans-61" x="77.490234"/>
      <use xlink:href="#DejaVuSans-69" x="138.769531"/>
      <use xlink:href="#DejaVuSans-74" x="166.552734"/>
      <use xlink:href="#DejaVuSans-20" x="205.761719"/>
      <use xlink:href="#DejaVuSans-43" x="237.548828"/>
      <use xlink:href="#DejaVuSans-79" x="307.373047"/>
      <use xlink:href="#DejaVuSans-63" x="366.552734"/>
      <use xlink:href="#DejaVuSans-6c" x="421.533203"/>
      <use xlink:href="#DejaVuSans-65" x="449.316406"/>
      <use xlink:href="#DejaVuSans-20" x="510.839844"/>
      <use xlink:href="#DejaVuSans-45" x="542.626953"/>
      <use xlink:href="#DejaVuSans-73" x="605.810547"/>
      <use xlink:href="#DejaVuSans-74" x="657.910156"/>
      <use xlink:href="#DejaVuSans-69" x="697.119141"/>
      <use xlink:href="#DejaVuSans-6d" x="724.902344"/>
      <use xlink:href="#DejaVuSans-61" x="822.314453"/>
      <use xlink:href="#DejaVuSans-74" x="883.59375"/>
      <use xlink:href="#DejaVuSans-6f" x="922.802734"/>
      <use xlink:href="#DejaVuSans-72" x="983.984375"/>
      <use xlink:href="#DejaVuSans-20" x="1025.097656"/>
      <use xlink:href="#DejaVuSans-28" x="1056.884766"/>
      <use xlink:href="#DejaVuSans-25" x="1095.898438"/>
      <use xlink:href="#DejaVuSans-29" x="1190.917969"/>
     </g>
    </g>
   </g>
   <g id="line2d_31">
    <path d="M 96.102273 245.847273 
L 131.415843 245.847273 
L 166.729414 21.992727 
L 172.494895 21.992727 
L 172.855237 245.847273 
L 211.051548 23.043688 
L 211.411891 21.992727 
L 213.934289 21.992727 
L 214.294631 245.847273 
L 253.57197 22.675211 
L 253.932312 21.992727 
L 254.292655 21.992727 
L 254.652997 245.847273 
L 295.011364 25.92 
L 295.371706 245.847273 
L 335.730072 24.62631 
L 336.090415 245.847273 
L 376.088439 25.304185 
L 376.448781 245.847273 
L 416.446805 25.304185 
L 416.807148 245.847273 
L 456.444829 26.642525 
L 456.805171 245.847273 
L 496.803195 23.329172 
L 497.163538 245.847273 
L 537.161561 23.329172 
L 537.521904 245.847273 
L 577.519928 23.329172 
L 577.88027 245.847273 
L 617.878294 23.991429 
L 618.238636 245.847273 
L 657.876318 25.99013 
L 658.23666 245.847273 
L 697.874341 25.33384 
L 698.234684 245.847273 
L 737.872365 24.67362 
L 738.232708 245.847273 
L 777.870389 24.009435 
L 778.230731 245.847273 
L 817.147727 28.04285 
L 817.147727 28.04285 
" clip-path="url(#p83edc2b914)" style="fill: none; stroke: #0000ff; stroke-linecap: square"/>
   </g>
   <g id="line2d_32">
    <path d="M 96.102273 245.847273 
L 131.415843 245.847273 
L 166.729414 21.992727 
L 172.494895 21.992727 
L 172.855237 245.847273 
L 211.051548 23.043688 
L 211.411891 21.992727 
L 213.934289 21.992727 
L 214.294631 245.847273 
L 253.57197 22.675211 
L 253.932312 21.992727 
L 254.292655 21.992727 
L 254.652997 245.847273 
L 295.011364 25.92 
L 295.371706 245.847273 
L 335.730072 24.62631 
L 336.090415 245.847273 
L 376.088439 25.304185 
L 376.448781 245.847273 
L 416.446805 25.304185 
L 416.807148 245.847273 
L 456.444829 26.642525 
L 456.805171 245.847273 
L 496.803195 23.329172 
L 497.163538 245.847273 
L 537.161561 23.329172 
L 537.521904 245.847273 
L 577.519928 23.329172 
L 577.88027 245.847273 
L 617.878294 23.991429 
L 618.238636 245.847273 
L 657.876318 25.99013 
L 658.23666 245.847273 
L 697.874341 25.33384 
L 698.234684 245.847273 
L 737.872365 24.67362 
L 738.232708 245.847273 
L 777.870389 24.009435 
L 778.230731 245.847273 
L 817.147727 28.04285 
L 817.147727 28.04285 
" clip-path="url(#p83edc2b914)" style="fill: none; stroke: #ff0000; stroke-linecap: square"/>
   </g>
   <g id="patch_3">
    <path d="M 60.05 257.04 
L 60.05 10.8 
" style="fill: none; stroke: #000000; stroke-width: 0.8; stroke-linejoin: miter; stroke-linecap: square"/>
   </g>
   <g id="patch_4">
    <path d="M 853.2 257.04 
L 853.2 10.8 
" style="fill: none; stroke: #000000; stroke-width: 0.8; stroke-linejoin: miter; stroke-linecap: square"/>
   </g>
   <g id="patch_5">
    <path d="M 60.05 257.04 
L 853.2 257.04 
" style="fill: none; stroke: #000000; stroke-width: 0.8; stroke-linejoin: miter; stroke-linecap: square"/>
   </g>
   <g id="patch_6">
    <path d="M 60.05 10.8 
L 853.2 10.8 
" style="fill: none; stroke: #000000; stroke-width: 0.8; stroke-linejoin: miter; stroke-linecap: square"/>
   </g>
  </g>
  <g id="axes_2">
   <g id="patch_7">
    <path d="M 60.05 531.16 
L 853.2 531.16 
L 853.2 284.92 
L 60.05 284.92 
z
" style="fill: #ffffff"/>
   </g>
   <g id="matplotlib.axis_3">
    <g id="xtick_10">
     <g id="line2d_33">
      <path d="M 96.102273 531.16 
L 96.102273 284.92 
" clip-path="url(#p5f2b2ca2ef)" style="fill: none; stroke: #b0b0b0; stroke-width: 0.8; stroke-linecap: square"/>
     </g>
     <g id="line2d_34">
      <g>
       <use xlink:href="#m2d5c5bb237" x="96.102273" y="531.16" style="stroke: #000000; stroke-width: 0.8"/>
      </g>
     </g>
     <g id="text_17">
      <!-- 0.0 -->
      <g transform="translate(88.15071 545.758438) scale(0.1 -0.1)">
       <use xlink:href="#DejaVuSans-30"/>
       <use xlink:href="#DejaVuSans-2e" x="63.623047"/>
       <use xlink:href="#DejaVuSans-30" x="95.410156"/>
      </g>
     </g>
    </g>
    <g id="xtick_11">
     <g id="line2d_35">
      <path d="M 186.187912 531.16 
L 186.187912 284.92 
" clip-path="url(#p5f2b2ca2ef)" style="fill: none; stroke: #b0b0b0; stroke-width: 0.8; stroke-linecap: square"/>
     </g>
     <g id="line2d_36">
      <g>
       <use xlink:href="#m2d5c5bb237" x="186.187912" y="531.16" style="stroke: #000000; stroke-width: 0.8"/>
      </g>
     </g>
     <g id="text_18">
      <!-- 2.5 -->
      <g transform="translate(178.236349 545.758438) scale(0.1 -0.1)">
       <use xlink:href="#DejaVuSans-32"/>
       <use xlink:href="#DejaVuSans-2e" x="63.623047"/>
       <use xlink:href="#DejaVuSans-35" x="95.410156"/>
      </g>
     </g>
    </g>
    <g id="xtick_12">
     <g id="line2d_37">
      <path d="M 276.273551 531.16 
L 276.273551 284.92 
" clip-path="url(#p5f2b2ca2ef)" style="fill: none; stroke: #b0b0b0; stroke-width: 0.8; stroke-linecap: square"/>
     </g>
     <g id="line2d_38">
      <g>
       <use xlink:href="#m2d5c5bb237" x="276.273551" y="531.16" style="stroke: #000000; stroke-width: 0.8"/>
      </g>
     </g>
     <g id="text_19">
      <!-- 5.0 -->
      <g transform="translate(268.321988 545.758438) scale(0.1 -0.1)">
       <use xlink:href="#DejaVuSans-35"/>
       <use xlink:href="#DejaVuSans-2e" x="63.623047"/>
       <use xlink:href="#DejaVuSans-30" x="95.410156"/>
      </g>
     </g>
    </g>
    <g id="xtick_13">
     <g id="line2d_39">
      <path d="M 366.35919 531.16 
L 366.35919 284.92 
" clip-path="url(#p5f2b2ca2ef)" style="fill: none; stroke: #b0b0b0; stroke-width: 0.8; stroke-linecap: square"/>
     </g>
     <g id="line2d_40">
      <g>
       <use xlink:href="#m2d5c5bb237" x="366.35919" y="531.16" style="stroke: #000000; stroke-width: 0.8"/>
      </g>
     </g>
     <g id="text_20">
      <!-- 7.5 -->
      <g transform="translate(358.407627 545.758438) scale(0.1 -0.1)">
       <use xlink:href="#DejaVuSans-37"/>
       <use xlink:href="#DejaVuSans-2e" x="63.623047"/>
       <use xlink:href="#DejaVuSans-35" x="95.410156"/>
      </g>
     </g>
    </g>
    <g id="xtick_14">
     <g id="line2d_41">
      <path d="M 456.444829 531.16 
L 456.444829 284.92 
" clip-path="url(#p5f2b2ca2ef)" style="fill: none; stroke: #b0b0b0; stroke-width: 0.8; stroke-linecap: square"/>
     </g>
     <g id="line2d_42">
      <g>
       <use xlink:href="#m2d5c5bb237" x="456.444829" y="531.16" style="stroke: #000000; stroke-width: 0.8"/>
      </g>
     </g>
     <g id="text_21">
      <!-- 10.0 -->
      <g transform="translate(445.312016 545.758438) scale(0.1 -0.1)">
       <use xlink:href="#DejaVuSans-31"/>
       <use xlink:href="#DejaVuSans-30" x="63.623047"/>
       <use xlink:href="#DejaVuSans-2e" x="127.246094"/>
       <use xlink:href="#DejaVuSans-30" x="159.033203"/>
      </g>
     </g>
    </g>
    <g id="xtick_15">
     <g id="line2d_43">
      <path d="M 546.530468 531.16 
L 546.530468 284.92 
" clip-path="url(#p5f2b2ca2ef)" style="fill: none; stroke: #b0b0b0; stroke-width: 0.8; stroke-linecap: square"/>
     </g>
     <g id="line2d_44">
      <g>
       <use xlink:href="#m2d5c5bb237" x="546.530468" y="531.16" style="stroke: #000000; stroke-width: 0.8"/>
      </g>
     </g>
     <g id="text_22">
      <!-- 12.5 -->
      <g transform="translate(535.397655 545.758438) scale(0.1 -0.1)">
       <use xlink:href="#DejaVuSans-31"/>
       <use xlink:href="#DejaVuSans-32" x="63.623047"/>
       <use xlink:href="#DejaVuSans-2e" x="127.246094"/>
       <use xlink:href="#DejaVuSans-35" x="159.033203"/>
      </g>
     </g>
    </g>
    <g id="xtick_16">
     <g id="line2d_45">
      <path d="M 636.616107 531.16 
L 636.616107 284.92 
" clip-path="url(#p5f2b2ca2ef)" style="fill: none; stroke: #b0b0b0; stroke-width: 0.8; stroke-linecap: square"/>
     </g>
     <g id="line2d_46">
      <g>
       <use xlink:href="#m2d5c5bb237" x="636.616107" y="531.16" style="stroke: #000000; stroke-width: 0.8"/>
      </g>
     </g>
     <g id="text_23">
      <!-- 15.0 -->
      <g transform="translate(625.483294 545.758438) scale(0.1 -0.1)">
       <use xlink:href="#DejaVuSans-31"/>
       <use xlink:href="#DejaVuSans-35" x="63.623047"/>
       <use xlink:href="#DejaVuSans-2e" x="127.246094"/>
       <use xlink:href="#DejaVuSans-30" x="159.033203"/>
      </g>
     </g>
    </g>
    <g id="xtick_17">
     <g id="line2d_47">
      <path d="M 726.701746 531.16 
L 726.701746 284.92 
" clip-path="url(#p5f2b2ca2ef)" style="fill: none; stroke: #b0b0b0; stroke-width: 0.8; stroke-linecap: square"/>
     </g>
     <g id="line2d_48">
      <g>
       <use xlink:href="#m2d5c5bb237" x="726.701746" y="531.16" style="stroke: #000000; stroke-width: 0.8"/>
      </g>
     </g>
     <g id="text_24">
      <!-- 17.5 -->
      <g transform="translate(715.568933 545.758438) scale(0.1 -0.1)">
       <use xlink:href="#DejaVuSans-31"/>
       <use xlink:href="#DejaVuSans-37" x="63.623047"/>
       <use xlink:href="#DejaVuSans-2e" x="127.246094"/>
       <use xlink:href="#DejaVuSans-35" x="159.033203"/>
      </g>
     </g>
    </g>
    <g id="xtick_18">
     <g id="line2d_49">
      <path d="M 816.787385 531.16 
L 816.787385 284.92 
" clip-path="url(#p5f2b2ca2ef)" style="fill: none; stroke: #b0b0b0; stroke-width: 0.8; stroke-linecap: square"/>
     </g>
     <g id="line2d_50">
      <g>
       <use xlink:href="#m2d5c5bb237" x="816.787385" y="531.16" style="stroke: #000000; stroke-width: 0.8"/>
      </g>
     </g>
     <g id="text_25">
      <!-- 20.0 -->
      <g transform="translate(805.654572 545.758438) scale(0.1 -0.1)">
       <use xlink:href="#DejaVuSans-32"/>
       <use xlink:href="#DejaVuSans-30" x="63.623047"/>
       <use xlink:href="#DejaVuSans-2e" x="127.246094"/>
       <use xlink:href="#DejaVuSans-30" x="159.033203"/>
      </g>
     </g>
    </g>
    <g id="text_26">
     <!-- Time (s) -->
     <g transform="translate(432.230313 560.95625) scale(0.12 -0.12)">
      <defs>
       <path id="DejaVuSans-54" d="M -19 4666 
L 3928 4666 
L 3928 4134 
L 2272 4134 
L 2272 0 
L 1638 0 
L 1638 4134 
L -19 4134 
L -19 4666 
z
" transform="scale(0.015625)"/>
      </defs>
      <use xlink:href="#DejaVuSans-54"/>
      <use xlink:href="#DejaVuSans-69" x="57.958984"/>
      <use xlink:href="#DejaVuSans-6d" x="85.742188"/>
      <use xlink:href="#DejaVuSans-65" x="183.154297"/>
      <use xlink:href="#DejaVuSans-20" x="244.677734"/>
      <use xlink:href="#DejaVuSans-28" x="276.464844"/>
      <use xlink:href="#DejaVuSans-73" x="315.478516"/>
      <use xlink:href="#DejaVuSans-29" x="367.578125"/>
     </g>
    </g>
   </g>
   <g id="matplotlib.axis_4">
    <g id="ytick_7">
     <g id="line2d_51">
      <path d="M 60.05 519.967273 
L 853.2 519.967273 
" clip-path="url(#p5f2b2ca2ef)" style="fill: none; stroke: #b0b0b0; stroke-width: 0.8; stroke-linecap: square"/>
     </g>
     <g id="line2d_52">
      <g>
       <use xlink:href="#m3fc07a49fc" x="60.05" y="519.967273" style="stroke: #000000; stroke-width: 0.8"/>
      </g>
     </g>
     <g id="text_27">
      <!-- 0 -->
      <g transform="translate(46.6875 523.766491) scale(0.1 -0.1)">
       <use xlink:href="#DejaVuSans-30"/>
      </g>
     </g>
    </g>
    <g id="ytick_8">
     <g id="line2d_53">
      <path d="M 60.05 491.387204 
L 853.2 491.387204 
" clip-path="url(#p5f2b2ca2ef)" style="fill: none; stroke: #b0b0b0; stroke-width: 0.8; stroke-linecap: square"/>
     </g>
     <g id="line2d_54">
      <g>
       <use xlink:href="#m3fc07a49fc" x="60.05" y="491.387204" style="stroke: #000000; stroke-width: 0.8"/>
      </g>
     </g>
     <g id="text_28">
      <!-- 250 -->
      <g transform="translate(33.9625 495.186423) scale(0.1 -0.1)">
       <use xlink:href="#DejaVuSans-32"/>
       <use xlink:href="#DejaVuSans-35" x="63.623047"/>
       <use xlink:href="#DejaVuSans-30" x="127.246094"/>
      </g>
     </g>
    </g>
    <g id="ytick_9">
     <g id="line2d_55">
      <path d="M 60.05 462.807136 
L 853.2 462.807136 
" clip-path="url(#p5f2b2ca2ef)" style="fill: none; stroke: #b0b0b0; stroke-width: 0.8; stroke-linecap: square"/>
     </g>
     <g id="line2d_56">
      <g>
       <use xlink:href="#m3fc07a49fc" x="60.05" y="462.807136" style="stroke: #000000; stroke-width: 0.8"/>
      </g>
     </g>
     <g id="text_29">
      <!-- 500 -->
      <g transform="translate(33.9625 466.606354) scale(0.1 -0.1)">
       <use xlink:href="#DejaVuSans-35"/>
       <use xlink:href="#DejaVuSans-30" x="63.623047"/>
       <use xlink:href="#DejaVuSans-30" x="127.246094"/>
      </g>
     </g>
    </g>
    <g id="ytick_10">
     <g id="line2d_57">
      <path d="M 60.05 434.227067 
L 853.2 434.227067 
" clip-path="url(#p5f2b2ca2ef)" style="fill: none; stroke: #b0b0b0; stroke-width: 0.8; stroke-linecap: square"/>
     </g>
     <g id="line2d_58">
      <g>
       <use xlink:href="#m3fc07a49fc" x="60.05" y="434.227067" style="stroke: #000000; stroke-width: 0.8"/>
      </g>
     </g>
     <g id="text_30">
      <!-- 750 -->
      <g transform="translate(33.9625 438.026286) scale(0.1 -0.1)">
       <use xlink:href="#DejaVuSans-37"/>
       <use xlink:href="#DejaVuSans-35" x="63.623047"/>
       <use xlink:href="#DejaVuSans-30" x="127.246094"/>
      </g>
     </g>
    </g>
    <g id="ytick_11">
     <g id="line2d_59">
      <path d="M 60.05 405.646998 
L 853.2 405.646998 
" clip-path="url(#p5f2b2ca2ef)" style="fill: none; stroke: #b0b0b0; stroke-width: 0.8; stroke-linecap: square"/>
     </g>
     <g id="line2d_60">
      <g>
       <use xlink:href="#m3fc07a49fc" x="60.05" y="405.646998" style="stroke: #000000; stroke-width: 0.8"/>
      </g>
     </g>
     <g id="text_31">
      <!-- 1000 -->
      <g transform="translate(27.6 409.446217) scale(0.1 -0.1)">
       <use xlink:href="#DejaVuSans-31"/>
       <use xlink:href="#DejaVuSans-30" x="63.623047"/>
       <use xlink:href="#DejaVuSans-30" x="127.246094"/>
       <use xlink:href="#DejaVuSans-30" x="190.869141"/>
      </g>
     </g>
    </g>
    <g id="ytick_12">
     <g id="line2d_61">
      <path d="M 60.05 377.06693 
L 853.2 377.06693 
" clip-path="url(#p5f2b2ca2ef)" style="fill: none; stroke: #b0b0b0; stroke-width: 0.8; stroke-linecap: square"/>
     </g>
     <g id="line2d_62">
      <g>
       <use xlink:href="#m3fc07a49fc" x="60.05" y="377.06693" style="stroke: #000000; stroke-width: 0.8"/>
      </g>
     </g>
     <g id="text_32">
      <!-- 1250 -->
      <g transform="translate(27.6 380.866149) scale(0.1 -0.1)">
       <use xlink:href="#DejaVuSans-31"/>
       <use xlink:href="#DejaVuSans-32" x="63.623047"/>
       <use xlink:href="#DejaVuSans-35" x="127.246094"/>
       <use xlink:href="#DejaVuSans-30" x="190.869141"/>
      </g>
     </g>
    </g>
    <g id="ytick_13">
     <g id="line2d_63">
      <path d="M 60.05 348.486861 
L 853.2 348.486861 
" clip-path="url(#p5f2b2ca2ef)" style="fill: none; stroke: #b0b0b0; stroke-width: 0.8; stroke-linecap: square"/>
     </g>
     <g id="line2d_64">
      <g>
       <use xlink:href="#m3fc07a49fc" x="60.05" y="348.486861" style="stroke: #000000; stroke-width: 0.8"/>
      </g>
     </g>
     <g id="text_33">
      <!-- 1500 -->
      <g transform="translate(27.6 352.28608) scale(0.1 -0.1)">
       <use xlink:href="#DejaVuSans-31"/>
       <use xlink:href="#DejaVuSans-35" x="63.623047"/>
       <use xlink:href="#DejaVuSans-30" x="127.246094"/>
       <use xlink:href="#DejaVuSans-30" x="190.869141"/>
      </g>
     </g>
    </g>
    <g id="ytick_14">
     <g id="line2d_65">
      <path d="M 60.05 319.906793 
L 853.2 319.906793 
" clip-path="url(#p5f2b2ca2ef)" style="fill: none; stroke: #b0b0b0; stroke-width: 0.8; stroke-linecap: square"/>
     </g>
     <g id="line2d_66">
      <g>
       <use xlink:href="#m3fc07a49fc" x="60.05" y="319.906793" style="stroke: #000000; stroke-width: 0.8"/>
      </g>
     </g>
     <g id="text_34">
      <!-- 1750 -->
      <g transform="translate(27.6 323.706011) scale(0.1 -0.1)">
       <use xlink:href="#DejaVuSans-31"/>
       <use xlink:href="#DejaVuSans-37" x="63.623047"/>
       <use xlink:href="#DejaVuSans-35" x="127.246094"/>
       <use xlink:href="#DejaVuSans-30" x="190.869141"/>
      </g>
     </g>
    </g>
    <g id="ytick_15">
     <g id="line2d_67">
      <path d="M 60.05 291.326724 
L 853.2 291.326724 
" clip-path="url(#p5f2b2ca2ef)" style="fill: none; stroke: #b0b0b0; stroke-width: 0.8; stroke-linecap: square"/>
     </g>
     <g id="line2d_68">
      <g>
       <use xlink:href="#m3fc07a49fc" x="60.05" y="291.326724" style="stroke: #000000; stroke-width: 0.8"/>
      </g>
     </g>
     <g id="text_35">
      <!-- 2000 -->
      <g transform="translate(27.6 295.125943) scale(0.1 -0.1)">
       <use xlink:href="#DejaVuSans-32"/>
       <use xlink:href="#DejaVuSans-30" x="63.623047"/>
       <use xlink:href="#DejaVuSans-30" x="127.246094"/>
       <use xlink:href="#DejaVuSans-30" x="190.869141"/>
      </g>
     </g>
    </g>
    <g id="text_36">
     <!-- Force (N) -->
     <g transform="translate(21.104375 435.344688) rotate(-90) scale(0.12 -0.12)">
      <defs>
       <path id="DejaVuSans-46" d="M 628 4666 
L 3309 4666 
L 3309 4134 
L 1259 4134 
L 1259 2759 
L 3109 2759 
L 3109 2228 
L 1259 2228 
L 1259 0 
L 628 0 
L 628 4666 
z
" transform="scale(0.015625)"/>
       <path id="DejaVuSans-4e" d="M 628 4666 
L 1478 4666 
L 3547 763 
L 3547 4666 
L 4159 4666 
L 4159 0 
L 3309 0 
L 1241 3903 
L 1241 0 
L 628 0 
L 628 4666 
z
" transform="scale(0.015625)"/>
      </defs>
      <use xlink:href="#DejaVuSans-46"/>
      <use xlink:href="#DejaVuSans-6f" x="53.894531"/>
      <use xlink:href="#DejaVuSans-72" x="115.076172"/>
      <use xlink:href="#DejaVuSans-63" x="153.939453"/>
      <use xlink:href="#DejaVuSans-65" x="208.919922"/>
      <use xlink:href="#DejaVuSans-20" x="270.443359"/>
      <use xlink:href="#DejaVuSans-28" x="302.230469"/>
      <use xlink:href="#DejaVuSans-4e" x="341.244141"/>
      <use xlink:href="#DejaVuSans-29" x="416.048828"/>
     </g>
    </g>
   </g>
   <g id="line2d_69">
    <path d="M 96.102273 359.74819 
L 96.462615 359.74819 
L 96.822958 425.850979 
L 97.543643 408.007212 
L 97.903986 392.8413 
L 98.624671 342.498206 
L 98.985013 328.237604 
L 99.345356 323.676473 
L 99.705698 325.633063 
L 100.066041 330.902597 
L 102.228096 373.340343 
L 102.588439 377.365653 
L 102.948781 377.780678 
L 103.669466 376.331733 
L 104.390152 375.577347 
L 104.750494 378.133352 
L 105.110837 370.307939 
L 105.831522 365.706897 
L 106.191864 360.34752 
L 106.912549 359.614877 
L 107.272892 359.569648 
L 107.633235 360.510864 
L 107.993577 362.033451 
L 108.714262 367.185078 
L 109.074605 370.6949 
L 109.434947 377.894468 
L 110.155632 384.638122 
L 110.876318 392.967761 
L 111.23666 397.770552 
L 111.597003 404.319539 
L 111.957345 415.058333 
L 112.67803 448.618722 
L 113.759058 505.295134 
L 114.119401 516.822977 
L 114.479743 519.967273 
L 130.695158 519.967273 
L 131.055501 511.878211 
L 132.496871 308.900019 
L 132.857213 347.852853 
L 133.577899 381.912159 
L 133.938241 389.632056 
L 134.298584 380.777064 
L 135.379611 326.362427 
L 135.739954 319.02469 
L 136.100296 316.678012 
L 136.460639 317.076515 
L 136.820982 319.624802 
L 137.541667 328.447586 
L 138.983037 348.023663 
L 140.064065 362.200675 
L 140.78475 374.155935 
L 141.865777 395.739023 
L 142.22612 409.53132 
L 142.586462 405.449303 
L 142.946805 405.073995 
L 143.307148 401.692831 
L 146.189888 351.412676 
L 146.910573 343.779593 
L 147.270916 340.020281 
L 147.631258 338.601018 
L 147.991601 338.596371 
L 148.351943 339.484433 
L 148.712286 341.693555 
L 149.432971 349.057109 
L 150.153656 359.510674 
L 150.513999 365.501296 
L 150.874341 375.255347 
L 151.595026 385.125909 
L 152.315711 394.292324 
L 152.676054 401.53659 
L 153.396739 423.141845 
L 154.117424 457.308005 
L 154.838109 494.190022 
L 155.198452 508.656566 
L 155.558794 518.413268 
L 155.919137 519.967273 
L 172.134552 519.967273 
L 172.494895 516.619066 
L 172.855237 469.326378 
L 173.21558 441.343092 
L 173.936265 331.763014 
L 174.65695 382.868823 
L 175.017292 396.457529 
L 175.377635 403.627617 
L 175.737978 398.860656 
L 176.819005 345.680446 
L 177.179348 335.922711 
L 177.53969 330.42684 
L 177.900033 328.765009 
L 178.260375 329.040692 
L 178.620718 330.682762 
L 179.341403 335.56073 
L 180.782773 347.379858 
L 181.503458 354.620928 
L 182.224144 363.966653 
L 183.665514 387.020371 
L 184.025856 407.700067 
L 184.386199 397.597816 
L 184.746542 396.390629 
L 185.106884 392.969742 
L 187.268939 361.168011 
L 187.989625 352.88487 
L 189.070652 343.932304 
L 189.430995 343.604149 
L 189.791337 344.18958 
L 190.15168 345.545291 
L 190.872365 351.386733 
L 191.232708 355.408443 
L 191.59305 364.067283 
L 192.313735 371.385469 
L 193.394763 386.090417 
L 193.755105 393.04129 
L 194.475791 419.041882 
L 195.556818 473.209286 
L 196.277503 506.499766 
L 196.637846 516.984528 
L 196.998188 519.967273 
L 213.573946 519.967273 
L 213.934289 511.690861 
L 214.294631 473.926785 
L 214.654974 469.608229 
L 215.015316 389.188242 
L 215.375659 353.48388 
L 215.736001 372.389749 
L 216.096344 397.176608 
L 216.456686 406.103777 
L 216.817029 407.067552 
L 217.177372 396.683212 
L 217.898057 354.098784 
L 218.258399 339.285614 
L 218.618742 330.957608 
L 218.979084 326.427123 
L 219.339427 325.274347 
L 219.699769 325.931284 
L 220.060112 328.044507 
L 220.780797 334.682576 
L 222.942852 357.805527 
L 224.02388 372.182013 
L 225.104908 388.361778 
L 225.46525 407.498772 
L 225.825593 395.893255 
L 226.185935 393.02206 
L 227.627306 372.428837 
L 228.708333 358.60348 
L 229.429018 351.726052 
L 230.149704 347.647671 
L 230.510046 346.823244 
L 230.870389 345.158776 
L 231.230731 346.418797 
L 231.591074 348.251201 
L 231.951416 350.832269 
L 232.672101 358.542817 
L 233.032444 367.653063 
L 234.113472 379.17418 
L 234.473814 384.138069 
L 234.834157 391.389647 
L 235.554842 417.023017 
L 236.275527 454.325944 
L 236.996212 494.499034 
L 237.356555 509.790167 
L 237.716897 519.403818 
L 238.07724 519.967273 
L 253.932312 519.967273 
L 254.292655 510.31944 
L 254.652997 469.116856 
L 255.01334 448.59218 
L 255.373682 344.632669 
L 255.734025 296.112727 
L 256.094368 325.279245 
L 256.45471 363.993056 
L 256.815053 379.619417 
L 257.175395 388.532966 
L 257.535738 387.123444 
L 258.616765 353.993744 
L 258.977108 347.243754 
L 259.337451 343.364526 
L 259.697793 341.312622 
L 260.058136 341.098118 
L 260.418478 341.756953 
L 261.499506 345.963051 
L 262.220191 349.480507 
L 262.940876 354.396991 
L 263.661561 361.266645 
L 264.742589 374.511498 
L 265.823617 387.470326 
L 266.544302 393.478406 
L 268.346014 367.687281 
L 269.0667 359.141296 
L 269.787385 352.723661 
L 270.147727 350.505398 
L 270.50807 349.102351 
L 270.868412 348.531657 
L 271.228755 347.001912 
L 271.589097 348.326936 
L 271.94944 350.306343 
L 272.670125 358.740254 
L 273.39081 365.426985 
L 274.111495 374.808504 
L 274.832181 386.996522 
L 275.192523 395.883458 
L 275.913208 424.843022 
L 277.714921 510.970594 
L 278.075264 519.451194 
L 278.435606 519.967273 
L 294.651021 519.967273 
L 295.011364 513.496047 
L 295.371706 477.012403 
L 295.732049 459.057906 
L 296.092391 361.760475 
L 296.452734 310.076617 
L 296.813076 326.744267 
L 297.533762 377.733398 
L 297.894104 393.347424 
L 298.254447 398.455776 
L 298.614789 393.140567 
L 299.335474 370.355191 
L 300.056159 347.685461 
L 300.416502 340.406559 
L 300.776845 336.134048 
L 301.137187 334.120018 
L 301.49753 333.865198 
L 301.857872 334.750943 
L 302.218215 336.446782 
L 302.9389 341.849671 
L 303.659585 349.190952 
L 304.740613 362.955577 
L 306.542325 387.828289 
L 306.902668 391.053831 
L 307.263011 404.864493 
L 307.623353 388.993736 
L 307.983696 382.246244 
L 309.425066 364.814956 
L 310.145751 357.825189 
L 310.866436 352.979165 
L 311.226779 351.577374 
L 311.587121 350.923982 
L 311.947464 349.288694 
L 312.307806 350.427292 
L 312.668149 352.191636 
L 313.028491 354.542096 
L 313.388834 360.624878 
L 314.109519 366.523871 
L 314.830204 375.079429 
L 315.550889 386.734236 
L 316.271574 411.14855 
L 316.99226 446.154452 
L 318.073287 503.020292 
L 318.43363 515.236177 
L 318.793972 519.967273 
L 335.36973 519.967273 
L 335.730072 494.425412 
L 336.090415 449.414101 
L 336.450758 436.556845 
L 336.8111 319.142401 
L 337.171443 304.870704 
L 337.531785 345.211848 
L 338.25247 384.44903 
L 338.612813 393.091557 
L 338.973155 391.336897 
L 339.693841 372.226571 
L 340.414526 352.387134 
L 340.774868 345.426268 
L 341.135211 340.809931 
L 341.495553 338.410447 
L 341.855896 337.542509 
L 342.216238 337.849689 
L 342.576581 338.85034 
L 343.297266 342.6209 
L 344.017951 348.272301 
L 344.738636 355.63005 
L 345.819664 369.485453 
L 346.900692 383.996285 
L 347.981719 395.767435 
L 348.342062 385.311373 
L 349.42309 370.856835 
L 350.504117 358.959879 
L 351.224802 353.433404 
L 351.585145 351.652564 
L 351.945487 350.605945 
L 352.30583 350.336486 
L 352.666173 349.164228 
L 353.386858 352.777974 
L 353.7472 358.671371 
L 354.467885 363.993181 
L 355.18857 371.967802 
L 355.909256 382.415017 
L 356.269598 390.413487 
L 356.990283 417.604513 
L 358.071311 474.827019 
L 358.791996 508.622071 
L 359.152339 518.556183 
L 359.512681 519.967273 
L 375.728096 519.967273 
L 376.088439 500.669321 
L 376.448781 461.04928 
L 376.809124 450.939297 
L 377.169466 333.744946 
L 377.529809 305.715742 
L 378.250494 359.59033 
L 378.610837 378.109293 
L 378.971179 389.672303 
L 379.331522 391.705563 
L 379.691864 385.576882 
L 381.493577 344.738588 
L 381.85392 341.303747 
L 382.214262 339.502225 
L 382.574605 339.022644 
L 382.934947 339.423128 
L 383.29529 340.587249 
L 383.655632 342.380021 
L 384.376318 347.707636 
L 385.097003 354.981235 
L 386.17803 368.639675 
L 387.259058 382.76296 
L 387.979743 389.034024 
L 388.340086 390.000527 
L 388.700428 387.810342 
L 389.060771 379.764704 
L 390.141798 366.808555 
L 390.862484 359.573555 
L 391.583169 354.178495 
L 391.943511 352.436632 
L 392.303854 351.398846 
L 392.664196 351.105845 
L 393.024539 349.797888 
L 393.745224 353.305799 
L 394.105567 358.392395 
L 394.826252 363.659752 
L 395.546937 371.907976 
L 396.267622 382.811454 
L 396.627964 391.145977 
L 397.34865 419.049502 
L 399.150362 508.670825 
L 399.510705 518.47789 
L 399.871047 519.967273 
L 416.086462 519.967273 
L 416.446805 498.001601 
L 416.807148 458.713899 
L 417.16749 449.967812 
L 417.527833 329.240111 
L 417.888175 306.107643 
L 418.248518 340.541002 
L 418.969203 380.640387 
L 419.329545 391.042667 
L 419.689888 391.394741 
L 420.410573 375.08102 
L 421.131258 355.792669 
L 421.851943 343.204865 
L 422.212286 340.256541 
L 422.572628 338.875753 
L 422.932971 338.760595 
L 423.293314 339.448275 
L 423.653656 340.895964 
L 424.374341 345.448652 
L 425.095026 351.96601 
L 426.176054 364.786822 
L 427.617424 383.594894 
L 427.977767 387.143455 
L 428.338109 389.553098 
L 428.698452 400.975622 
L 429.058794 385.07602 
L 429.77948 374.330346 
L 430.860507 362.428688 
L 431.581192 356.287503 
L 432.301877 352.449304 
L 432.66222 351.567368 
L 433.022563 351.433776 
L 433.382905 350.2961 
L 434.10359 354.090425 
L 434.463933 359.440256 
L 435.184618 364.862934 
L 435.905303 373.200373 
L 436.625988 384.429926 
L 436.986331 393.105651 
L 437.707016 421.998635 
L 439.508729 510.167011 
L 439.869071 519.226541 
L 440.229414 519.967273 
L 456.084486 519.967273 
L 456.444829 518.049019 
L 456.805171 484.839037 
L 457.165514 465.512669 
L 457.886199 305.709574 
L 458.246542 308.044529 
L 458.606884 356.213053 
L 458.967227 377.49457 
L 459.327569 391.150833 
L 459.687912 395.639899 
L 460.048254 388.998006 
L 461.129282 355.328731 
L 461.489625 347.786217 
L 461.849967 342.59472 
L 462.21031 339.881218 
L 462.570652 338.903816 
L 462.930995 339.132903 
L 463.291337 340.130122 
L 464.012022 343.545314 
L 464.732708 348.435995 
L 465.453393 354.956772 
L 466.53442 367.774961 
L 467.975791 386.10246 
L 468.336133 389.233205 
L 468.696476 402.529678 
L 469.056818 388.381678 
L 469.417161 381.437029 
L 470.858531 364.116503 
L 471.579216 357.330257 
L 472.299901 352.750287 
L 472.660244 351.5027 
L 473.020586 350.998949 
L 473.380929 349.701723 
L 473.741271 350.755111 
L 474.101614 352.754976 
L 474.822299 360.950562 
L 475.542984 367.260631 
L 476.263669 376.226706 
L 476.984354 388.9428 
L 477.70504 415.212013 
L 478.786067 470.39671 
L 479.506752 505.068122 
L 479.867095 516.307059 
L 480.227437 519.967273 
L 496.442852 519.967273 
L 496.803195 500.602457 
L 497.163538 456.4037 
L 497.52388 447.648514 
L 497.884223 323.601171 
L 498.244565 301.571576 
L 498.604908 339.484991 
L 499.325593 380.635754 
L 499.685935 390.798355 
L 500.046278 390.247826 
L 500.766963 372.091779 
L 501.487648 352.830292 
L 501.847991 346.02518 
L 502.208333 341.576318 
L 502.568676 339.333438 
L 502.929018 338.588849 
L 503.289361 338.995083 
L 503.649704 340.104877 
L 504.370389 343.990259 
L 505.091074 349.706496 
L 505.811759 357.214402 
L 506.892787 371.159033 
L 507.973814 385.138176 
L 508.334157 388.606091 
L 508.694499 390.85973 
L 509.054842 395.016943 
L 509.415184 383.999229 
L 510.13587 374.219124 
L 511.216897 362.179784 
L 511.937582 356.062728 
L 512.658267 352.353599 
L 513.01861 351.571206 
L 513.378953 351.540937 
L 513.739295 350.490843 
L 514.45998 354.550929 
L 514.820323 360.253155 
L 515.541008 365.93396 
L 516.261693 374.482262 
L 516.982378 385.796745 
L 517.342721 394.456967 
L 518.063406 423.326164 
L 519.865119 511.011349 
L 520.225461 519.575748 
L 520.585804 519.967273 
L 536.801219 519.967273 
L 537.161561 502.525136 
L 537.521904 459.655883 
L 537.882246 449.727686 
L 538.242589 331.564935 
L 538.602931 305.618503 
L 539.323617 360.465273 
L 539.683959 379.315001 
L 540.044302 390.545628 
L 540.404644 391.421353 
L 540.764987 384.021795 
L 542.206357 345.154241 
L 542.5667 339.718334 
L 542.927042 336.814206 
L 543.287385 335.710859 
L 543.647727 336.030445 
L 544.00807 337.259304 
L 544.728755 341.765396 
L 545.44944 348.238739 
L 546.530468 360.85917 
L 548.692523 389.057511 
L 549.052866 391.53097 
L 549.413208 396.056892 
L 549.773551 385.164272 
L 550.854578 370.896691 
L 551.935606 359.18485 
L 552.656291 353.691378 
L 553.016634 351.920168 
L 553.376976 350.876716 
L 553.737319 350.591432 
L 554.097661 349.370666 
L 554.818347 352.99453 
L 555.178689 358.863952 
L 555.899374 364.220984 
L 556.620059 372.193484 
L 557.340744 382.538938 
L 557.701087 390.382576 
L 558.421772 417.182859 
L 559.5028 474.022988 
L 560.223485 508.159626 
L 560.583827 518.305391 
L 560.94417 519.967273 
L 577.159585 519.967273 
L 577.519928 511.030545 
L 577.88027 472.250668 
L 578.240613 457.087096 
L 578.600955 360.657854 
L 578.961298 313.863573 
L 579.32164 331.841302 
L 579.681983 360.985896 
L 580.042325 378.588302 
L 580.402668 389.950987 
L 580.763011 392.011724 
L 581.123353 384.641695 
L 582.204381 354.443949 
L 582.925066 341.869892 
L 583.285408 339.020328 
L 583.645751 337.708212 
L 584.006094 337.736876 
L 584.366436 338.599176 
L 585.087121 342.218155 
L 585.807806 347.68641 
L 586.528491 354.801898 
L 587.609519 368.188353 
L 589.050889 386.473331 
L 589.411232 389.461804 
L 589.771574 402.573204 
L 590.131917 387.699636 
L 590.852602 376.382139 
L 591.93363 363.591748 
L 592.654315 356.724605 
L 593.375 352.037921 
L 593.735343 350.723112 
L 594.095685 350.172597 
L 594.456028 348.928931 
L 594.81637 349.880684 
L 595.537055 354.196288 
L 595.897398 359.820505 
L 596.618083 365.794786 
L 597.338768 374.407016 
L 598.059453 386.388805 
L 598.780138 411.606906 
L 599.861166 466.190102 
L 600.581851 502.035549 
L 600.942194 514.324376 
L 601.302536 519.967273 
L 617.517951 519.967273 
L 617.878294 495.743517 
L 618.238636 455.970917 
L 618.598979 447.482553 
L 618.959321 331.479041 
L 619.319664 312.119743 
L 619.680007 348.556916 
L 620.400692 383.266516 
L 620.761034 390.792145 
L 621.121377 388.843983 
L 622.92309 349.343566 
L 623.283432 345.327717 
L 623.643775 343.041172 
L 624.004117 341.893392 
L 624.36446 341.700072 
L 624.724802 342.132778 
L 625.085145 343.253052 
L 625.445487 344.867519 
L 626.166173 349.726117 
L 626.886858 356.583868 
L 627.967885 369.659529 
L 629.048913 382.715345 
L 629.409256 385.959155 
L 629.769598 387.959648 
L 630.129941 394.015078 
L 630.850626 376.908818 
L 631.931653 365.113735 
L 632.652339 358.800456 
L 633.373024 354.39473 
L 633.733366 353.104817 
L 634.093709 352.509771 
L 634.454051 352.626059 
L 634.814394 351.641931 
L 635.174736 353.488206 
L 635.535079 358.580286 
L 636.255764 362.950762 
L 636.976449 370.319047 
L 637.697134 380.275712 
L 638.057477 387.256185 
L 638.778162 412.762347 
L 639.85919 467.545217 
L 640.579875 503.013729 
L 640.940217 514.968352 
L 641.30056 519.967273 
L 657.515975 519.967273 
L 657.876318 499.566511 
L 658.23666 459.747554 
L 658.597003 451.684528 
L 658.957345 328.586802 
L 659.317688 302.636728 
L 659.67803 338.632822 
L 660.398715 378.894366 
L 660.759058 388.920318 
L 661.119401 389.259176 
L 661.840086 374.137236 
L 662.560771 356.987408 
L 663.281456 345.531252 
L 663.641798 342.736713 
L 664.002141 341.337141 
L 664.362484 341.059127 
L 664.722826 341.523595 
L 665.083169 342.667328 
L 665.443511 344.360753 
L 666.164196 349.362475 
L 666.884881 356.3552 
L 667.965909 369.585469 
L 669.046937 382.911289 
L 669.407279 386.263502 
L 669.767622 388.394071 
L 670.127964 397.547312 
L 670.488307 384.482606 
L 670.84865 377.523053 
L 671.929677 365.435763 
L 672.650362 358.906724 
L 673.371047 354.310818 
L 673.73139 352.951018 
L 674.091733 352.274055 
L 674.452075 352.323247 
L 674.812418 351.329936 
L 675.17276 353.148496 
L 675.533103 358.16695 
L 676.253788 362.633563 
L 676.974473 369.966374 
L 677.695158 379.764104 
L 678.055501 386.384576 
L 678.776186 410.966868 
L 679.496871 445.425995 
L 680.577899 501.646303 
L 680.938241 514.162644 
L 681.298584 519.967273 
L 697.513999 519.967273 
L 697.874341 509.122446 
L 698.234684 473.657099 
L 698.595026 457.204626 
L 698.955369 354.005075 
L 699.315711 307.043724 
L 699.676054 327.500313 
L 700.036397 360.234846 
L 700.396739 378.387614 
L 700.757082 389.850245 
L 701.117424 391.842407 
L 701.477767 384.383553 
L 702.558794 355.587194 
L 703.27948 343.66731 
L 703.639822 340.969201 
L 704.000165 339.723177 
L 704.360507 339.697276 
L 704.72085 340.431817 
L 705.081192 341.806214 
L 705.801877 345.956869 
L 706.522563 351.903226 
L 707.243248 359.585166 
L 709.405303 386.177203 
L 709.765646 388.843383 
L 710.125988 400.854241 
L 710.486331 386.234964 
L 710.846673 379.350684 
L 711.927701 366.699356 
L 712.648386 359.6205 
L 713.369071 354.417337 
L 713.729414 352.731685 
L 714.089756 351.745798 
L 714.450099 351.490225 
L 714.810441 350.46257 
L 715.170784 351.721098 
L 715.531126 353.87066 
L 715.891469 359.206396 
L 716.612154 364.360242 
L 717.332839 372.428572 
L 718.053524 383.217645 
L 718.413867 391.619627 
L 719.134552 419.705127 
L 720.936265 508.966736 
L 721.296607 518.653788 
L 721.65695 519.967273 
L 737.512022 519.967273 
L 737.872365 514.458715 
L 738.232708 481.886651 
L 738.59305 461.279407 
L 739.313735 311.557631 
L 739.674078 318.371088 
L 740.03442 365.557242 
L 740.394763 383.396871 
L 740.755105 393.72223 
L 741.115448 394.995592 
L 741.475791 385.7703 
L 742.196476 361.524731 
L 742.556818 352.316828 
L 742.917161 346.124093 
L 743.277503 342.128954 
L 743.637846 340.333908 
L 743.998188 339.90698 
L 744.358531 340.407968 
L 744.718874 341.514246 
L 745.439559 344.865482 
L 746.160244 349.520837 
L 746.880929 355.799116 
L 747.961957 368.279508 
L 749.403327 385.842378 
L 749.763669 388.697734 
L 750.124012 401.566203 
L 750.484354 386.725081 
L 750.844697 379.9687 
L 751.925725 367.1172 
L 752.64641 359.926313 
L 753.367095 354.647862 
L 753.727437 352.907938 
L 754.08778 351.853574 
L 754.808465 351.212392 
L 755.168808 351.54518 
L 755.52915 353.752683 
L 756.249835 362.171174 
L 756.97052 368.45777 
L 757.691206 377.300804 
L 758.051548 383.070977 
L 758.411891 391.302748 
L 759.132576 419.028032 
L 760.934289 509.464468 
L 761.294631 519.052446 
L 761.654974 519.967273 
L 777.510046 519.967273 
L 777.870389 511.740184 
L 778.230731 476.473938 
L 778.591074 456.076697 
L 778.951416 358.073172 
L 779.311759 303.517882 
L 779.672101 320.338131 
L 780.032444 357.489541 
L 780.392787 375.438201 
L 780.753129 386.993424 
L 781.113472 389.005932 
L 781.834157 371.675526 
L 782.554842 354.204005 
L 783.275527 344.162968 
L 783.63587 342.107924 
L 783.996212 341.32574 
L 784.356555 341.579207 
L 784.716897 342.4249 
L 785.437582 345.418746 
L 786.158267 350.050964 
L 786.878953 356.527699 
L 787.95998 369.26986 
L 789.041008 382.822869 
L 789.761693 389.015757 
L 790.122036 400.813366 
L 790.482378 385.852259 
L 791.203063 374.8931 
L 792.284091 362.686425 
L 793.004776 356.405061 
L 793.725461 352.401982 
L 794.085804 351.443461 
L 794.446146 351.219816 
L 794.806489 350.207931 
L 795.166831 351.546422 
L 795.527174 353.766136 
L 795.887516 358.950934 
L 796.608202 364.369955 
L 797.328887 372.714861 
L 798.049572 383.706367 
L 798.409914 392.075248 
L 799.130599 419.986936 
L 800.932312 508.830822 
L 801.292655 518.537391 
L 801.652997 519.967273 
L 817.147727 519.967273 
L 817.147727 519.967273 
" clip-path="url(#p5f2b2ca2ef)" style="fill: none; stroke: #0000ff; stroke-linecap: square"/>
   </g>
   <g id="patch_8">
    <path d="M 60.05 531.16 
L 60.05 284.92 
" style="fill: none; stroke: #000000; stroke-width: 0.8; stroke-linejoin: miter; stroke-linecap: square"/>
   </g>
   <g id="patch_9">
    <path d="M 853.2 531.16 
L 853.2 284.92 
" style="fill: none; stroke: #000000; stroke-width: 0.8; stroke-linejoin: miter; stroke-linecap: square"/>
   </g>
   <g id="patch_10">
    <path d="M 60.05 531.16 
L 853.2 531.16 
" style="fill: none; stroke: #000000; stroke-width: 0.8; stroke-linejoin: miter; stroke-linecap: square"/>
   </g>
   <g id="patch_11">
    <path d="M 60.05 284.92 
L 853.2 284.92 
" style="fill: none; stroke: #000000; stroke-width: 0.8; stroke-linejoin: miter; stroke-linecap: square"/>
   </g>
  </g>
 </g>
 <defs>
  <clipPath id="p83edc2b914">
   <rect x="60.05" y="10.8" width="793.15" height="246.24"/>
  </clipPath>
  <clipPath id="p5f2b2ca2ef">
   <rect x="60.05" y="284.92" width="793.15" height="246.24"/>
  </clipPath>
 </defs>
</svg>
